<?xml version="1.0" encoding="UTF-8"?>
<svg version="1.1" xmlns="http://www.w3.org/2000/svg" width="512" height="512">
<path d="M0 0 C1.57803258 1.33603397 3.14182255 2.68916289 4.6875 4.0625 C5.32429687 4.61679687 5.96109375 5.17109375 6.6171875 5.7421875 C18.77732615 17.03760518 26.04538108 34.14444139 27.0078125 50.55078125 C27.48183967 64.10629496 25.05215609 75.54496913 19.6875 88.0625 C30.9075 87.7325 42.1275 87.4025 53.6875 87.0625 C51.2125 80.6275 51.2125 80.6275 48.6875 74.0625 C44.96319723 55.26363839 46.22032835 36.20267666 56.25 19.453125 C57.96513703 16.89630035 59.77714101 14.47660477 61.6875 12.0625 C62.65623047 10.81146484 62.65623047 10.81146484 63.64453125 9.53515625 C74.38319306 -3.39506919 90.16881639 -11.45742216 106.6875 -13.9375 C126.40763991 -15.66363076 145.48727634 -12.04335144 161.0859375 0.74609375 C176.09073281 13.75540129 185.59211504 31.33870552 187.06640625 51.2578125 C187.59820095 63.66349638 185.39219424 75.99568598 179.6875 87.0625 C180.49658813 87.06836624 181.30567627 87.07423248 182.13928223 87.08027649 C189.78938966 87.13834265 197.43917657 87.21049821 205.08899689 87.29821491 C209.0212242 87.34281399 212.9533504 87.38209258 216.88574219 87.40893555 C220.68552961 87.43507372 224.48492575 87.47554884 228.2844696 87.52568626 C229.72917285 87.54228432 231.17394366 87.55384236 232.61872864 87.56011391 C241.51431509 87.60261106 248.53189805 88.06505701 256.375 92.625 C262.85887212 99.45935169 264.42605652 107.00589201 264.32241821 116.14428711 C264.33021817 117.21566642 264.33801812 118.28704573 264.34605443 119.39089108 C264.36589425 122.95756523 264.35024025 126.52316291 264.33447266 130.08984375 C264.34125228 132.65634786 264.35015734 135.2228471 264.36102295 137.78933716 C264.38319057 144.02252032 264.37848334 150.25540148 264.36395974 156.4885962 C264.35264183 161.55694689 264.35114759 166.62521328 264.35657883 171.693573 C264.35734499 172.41647551 264.35811116 173.13937803 264.35890054 173.88418669 C264.36049926 175.35300806 264.36212033 176.8218294 264.3637635 178.29065073 C264.37800201 192.04561071 264.36165817 205.80040375 264.33476166 219.55533636 C264.31242455 231.34328957 264.31630522 243.13099654 264.33935547 254.91894531 C264.36614713 268.62656612 264.37662889 282.33404082 264.36129415 296.04168415 C264.3597015 297.50493175 264.35812964 298.96817936 264.35657883 300.431427 C264.35580745 301.15126689 264.35503607 301.87110679 264.35424132 302.61276001 C264.34993439 307.67171594 264.35718905 312.73057876 264.36897659 317.78952026 C264.38451004 324.60557879 264.3733619 331.42116582 264.34450531 338.2371788 C264.33790536 340.73566798 264.33977338 343.23419635 264.35081863 345.73266983 C264.36452765 349.14920786 264.34729092 352.56426843 264.32241821 355.98071289 C264.33357182 356.96419173 264.34472543 357.94767057 264.35621703 358.96095181 C264.25795223 365.94259717 262.47935541 371.18118928 258.6875 377.0625 C256.3359375 379.31640625 256.3359375 379.31640625 254.0625 380.625 C253.30710937 381.08003906 252.55171875 381.53507812 251.7734375 382.00390625 C247.83786862 384.0011706 244.76408931 384.1862563 240.40437317 384.18275452 C238.42927513 384.18481651 238.42927513 384.18481651 236.41427612 384.18692017 C234.95172096 384.18338099 233.48916604 384.17974618 232.02661133 384.17602539 C230.48924257 384.17574337 228.95187368 384.17590154 227.414505 384.1764679 C223.23711817 384.1767553 219.05975994 384.17086778 214.88237977 384.16389394 C210.51816086 384.15765091 206.15394132 384.15705585 201.78971863 384.15586853 C193.52372543 384.15275802 185.25774543 384.1445484 176.99175805 384.13451904 C167.58195396 384.12334922 158.17214925 384.11784526 148.76234019 384.11282361 C129.40405112 384.10236556 110.04578015 384.08402355 90.6875 384.0625 C90.6875 400.8925 90.6875 417.7225 90.6875 435.0625 C103.67172151 434.90434594 103.67172151 434.90434594 116.65527344 434.70214844 C118.28579665 434.69046349 119.91633154 434.68027121 121.546875 434.671875 C122.39008301 434.65141113 123.23329102 434.63094727 124.10205078 434.60986328 C130.03310408 434.60633079 130.03310408 434.60633079 133.26660156 436.86035156 C134.6875 439.0625 134.6875 439.0625 134.5625 442.6875 C133.6875 446.0625 133.6875 446.0625 131.6875 448.0625 C129.18600774 448.26208894 126.79485561 448.33619827 124.29200745 448.32319641 C123.5206239 448.32702196 122.74924035 448.33084751 121.95448154 448.33478898 C119.3557352 448.34515229 116.75720844 448.34112058 114.15844727 448.3371582 C112.30097243 448.34150284 110.4434994 448.34668516 108.58602905 448.35264587 C103.53030208 448.3660739 98.47464969 448.36661033 93.41890836 448.36408257 C89.2039679 448.36301542 84.98904269 448.36788965 80.77410549 448.372688 C70.83336023 448.38379636 60.89265276 448.38421314 50.9519043 448.37817383 C40.68402781 448.37213186 30.41628829 448.3844477 20.14843518 448.4057439 C11.34416565 448.42333559 2.53993981 448.4293651 -6.26434666 448.42610615 C-11.52773926 448.42428925 -16.79103418 448.4269699 -22.05441093 448.44082069 C-27.00297679 448.45335492 -31.95132851 448.45149689 -36.8998909 448.43840981 C-38.71921039 448.43603482 -40.53854475 448.43881148 -42.35784721 448.44703293 C-44.83549128 448.45742459 -47.3124067 448.44946149 -49.7900238 448.4367218 C-50.51531027 448.44409609 -51.24059673 448.45147037 -51.98786157 448.45906812 C-54.85122343 448.42794929 -56.84070337 448.37932146 -59.25531101 446.75786114 C-61.07465602 443.84026849 -60.72746281 441.38220248 -60.3125 438.0625 C-58.54728978 436.00101624 -57.10423414 435.16806877 -54.40393066 434.80801392 C-51.98744176 434.71419455 -49.58974785 434.72552162 -47.171875 434.76953125 C-45.99842529 434.77406311 -45.99842529 434.77406311 -44.80126953 434.77868652 C-41.88821152 434.79434358 -38.97534206 434.83622768 -36.0625 434.875 C-29.545 434.936875 -23.0275 434.99875 -16.3125 435.0625 C-16.3125 418.2325 -16.3125 401.4025 -16.3125 384.0625 C-21.01612793 384.08868408 -25.71975586 384.11486816 -30.56591797 384.1418457 C-46.11227217 384.22472018 -61.6586351 384.28018906 -77.20515251 384.32156086 C-86.6303727 384.3473111 -96.05538318 384.38240063 -105.48046875 384.43969727 C-113.69812767 384.48962982 -121.91563467 384.52181412 -130.13344109 384.53294247 C-134.48229863 384.53944461 -138.83072166 384.55465956 -143.17943954 384.59115028 C-147.27858591 384.62526586 -151.3771217 384.63552191 -155.47639656 384.62803841 C-156.9751334 384.62940605 -158.47389214 384.63924593 -159.97250557 384.65852737 C-169.38283574 384.77359186 -177.64813329 384.17292141 -184.95098686 377.58424854 C-190.51282009 371.36784756 -190.60575629 365.46861965 -190.58665466 357.54402161 C-190.59189134 356.47283087 -190.59712802 355.40164013 -190.60252339 354.29798907 C-190.6175461 350.7022839 -190.61822905 347.10672075 -190.61889648 343.51098633 C-190.62651649 340.93537149 -190.63494372 338.35975893 -190.64411926 335.78414917 C-190.66695402 328.78193162 -190.67488838 321.77974441 -190.67994571 314.77749467 C-190.68320482 310.40286894 -190.68972863 306.02825198 -190.6969471 301.65363121 C-190.71651185 289.53480342 -190.73291652 277.41598377 -190.73582363 265.29713917 C-190.7360112 264.52184863 -190.73619877 263.7465581 -190.73639202 262.94777391 C-190.73675827 261.37615375 -190.73712197 259.80453358 -190.73748314 258.23291341 C-190.73766595 257.45278783 -190.73784876 256.67266224 -190.73803711 255.86889648 C-190.73821766 255.08781541 -190.73839821 254.30673434 -190.73858423 253.50198414 C-190.74212451 240.85075566 -190.76913828 228.19969753 -190.806535 215.54852811 C-190.8446474 202.55090978 -190.86398133 189.55337592 -190.86428314 176.55570048 C-190.86486709 169.26154912 -190.87331839 161.96760093 -190.90228081 154.67350197 C-190.92940556 147.81077287 -190.93067456 140.94845185 -190.91462517 134.08568954 C-190.91280943 131.56944973 -190.91951248 129.05318688 -190.93544388 126.53699684 C-190.95589817 123.09615508 -190.94535433 119.656721 -190.92723083 116.21589661 C-190.9404308 115.22511622 -190.95363077 114.23433583 -190.96723074 113.21353179 C-190.88316602 106.20383112 -189.11709205 100.96856708 -185.3125 95.0625 C-182.99609375 92.80859375 -182.99609375 92.80859375 -180.75 91.5 C-180.00621094 91.04496094 -179.26242188 90.58992188 -178.49609375 90.12109375 C-174.27367087 88.07408731 -170.46984573 87.91956378 -165.79980469 87.85717773 C-165.15548492 87.84727814 -164.51116516 87.83737854 -163.84732056 87.82717896 C-161.72637555 87.79569571 -159.60540819 87.77085897 -157.484375 87.74609375 C-156.01034985 87.72551282 -154.53633045 87.70451605 -153.06231689 87.68312073 C-149.18917509 87.6280176 -145.31598105 87.57855666 -141.44274902 87.53027344 C-137.48782726 87.47997237 -133.53298102 87.42433129 -129.578125 87.36914062 C-121.82298068 87.26170295 -114.06777342 87.16022626 -106.3125 87.0625 C-106.82997803 85.66620361 -106.82997803 85.66620361 -107.35791016 84.24169922 C-107.80956543 83.00436035 -108.2612207 81.76702148 -108.7265625 80.4921875 C-109.17467285 79.27257324 -109.6227832 78.05295898 -110.08447266 76.79638672 C-115.60667649 60.00581308 -113.94907293 41.71184808 -106.80859375 25.6875 C-97.23811753 6.8574215 -82.69770669 -4.91885528 -63.1328125 -12.10546875 C-41.59994279 -18.06196388 -17.59639437 -13.70080706 0 0 Z " fill="#3B579F" transform="translate(219.3125,42.9375)"/>
<path d="M0 0 C1.57803258 1.33603397 3.14182255 2.68916289 4.6875 4.0625 C5.32429687 4.61679687 5.96109375 5.17109375 6.6171875 5.7421875 C18.77732615 17.03760518 26.04538108 34.14444139 27.0078125 50.55078125 C27.48183967 64.10629496 25.05215609 75.54496913 19.6875 88.0625 C30.9075 87.7325 42.1275 87.4025 53.6875 87.0625 C51.2125 80.6275 51.2125 80.6275 48.6875 74.0625 C44.96319723 55.26363839 46.22032835 36.20267666 56.25 19.453125 C57.96513703 16.89630035 59.77714101 14.47660477 61.6875 12.0625 C62.65623047 10.81146484 62.65623047 10.81146484 63.64453125 9.53515625 C74.38319306 -3.39506919 90.16881639 -11.45742216 106.6875 -13.9375 C126.40763991 -15.66363076 145.48727634 -12.04335144 161.0859375 0.74609375 C176.09073281 13.75540129 185.59211504 31.33870552 187.06640625 51.2578125 C187.59820095 63.66349638 185.39219424 75.99568598 179.6875 87.0625 C180.49658813 87.06836624 181.30567627 87.07423248 182.13928223 87.08027649 C189.78938966 87.13834265 197.43917657 87.21049821 205.08899689 87.29821491 C209.0212242 87.34281399 212.9533504 87.38209258 216.88574219 87.40893555 C220.68552961 87.43507372 224.48492575 87.47554884 228.2844696 87.52568626 C229.72917285 87.54228432 231.17394366 87.55384236 232.61872864 87.56011391 C241.51431509 87.60261106 248.53189805 88.06505701 256.375 92.625 C265.22274341 101.95099981 264.35103387 112.60161466 264.17578125 124.6328125 C264.16644153 126.52423157 264.1593309 128.41566284 264.15434265 130.30709839 C264.13536403 135.25571816 264.08634325 140.20358981 264.03082275 145.1519165 C263.97943188 150.21315393 263.95678645 155.27451368 263.93164062 160.3359375 C263.87821464 170.24511815 263.79301408 180.15374656 263.6875 190.0625 C263.3575 190.0625 263.0275 190.0625 262.6875 190.0625 C262.4915625 189.08152344 262.295625 188.10054687 262.09375 187.08984375 C258.19809015 168.97196961 249.39945246 153.08185999 233.8203125 142.359375 C216.2545467 131.6783599 196.46420518 127.78193062 176.1875 132.125 C156.71881535 138.12831198 141.9590649 150.78366379 132.37890625 168.63671875 C128.63798093 176.21360445 127.35485797 183.72571014 125.6875 192.0625 C98.2975 192.0625 70.9075 192.0625 42.6875 192.0625 C42.6875 198.3325 42.6875 204.6025 42.6875 211.0625 C58.1975 211.0625 73.7075 211.0625 89.6875 211.0625 C89.6875 236.8025 89.6875 262.5425 89.6875 289.0625 C79.7875 289.3925 69.8875 289.7225 59.6875 290.0625 C53.60677542 294.06917898 50.92883703 295.91906041 46.6875 301.0625 C44.01953125 303.4296875 44.01953125 303.4296875 41.6875 305.0625 C39.43036486 304.87440541 38.29204441 304.66704441 36.6875 303.0625 C36.6875 298.4425 36.6875 293.8225 36.6875 289.0625 C19.1975 289.0625 1.7075 289.0625 -16.3125 289.0625 C-16.3125 263.3225 -16.3125 237.5825 -16.3125 211.0625 C-0.8025 211.0625 14.7075 211.0625 30.6875 211.0625 C30.6875 205.1225 30.6875 199.1825 30.6875 193.0625 C3.6275 193.0625 -23.4325 193.0625 -51.3125 193.0625 C-51.3125 197.0225 -51.3125 200.9825 -51.3125 205.0625 C-53.23432472 222.93546993 -61.27778994 240.39153058 -75.3125 252.0625 C-92.52543076 265.85118876 -111.2955701 269.53997033 -132.7421875 267.78125 C-139.90581247 266.81369546 -145.94933442 264.43619604 -152.3125 261.0625 C-153.15683594 260.6190625 -154.00117188 260.175625 -154.87109375 259.71875 C-170.90892776 250.71154213 -181.62242957 237.02195431 -187.43614197 219.71810913 C-190.81268633 207.6662819 -190.91472536 195.9926303 -190.87890625 183.5390625 C-190.88415356 181.2990188 -190.89043405 179.05897731 -190.89768982 176.81893921 C-190.90802964 172.15441384 -190.90362069 167.49019483 -190.88891602 162.82568359 C-190.87166344 156.86752223 -190.8953378 150.91031949 -190.93040562 144.95226479 C-190.95241567 140.33838594 -190.95093056 135.72473575 -190.9426403 131.11082077 C-190.94182421 128.91411659 -190.94862161 126.71739505 -190.96341133 124.52074051 C-190.98094141 121.44894234 -190.96624789 118.37885982 -190.94360352 115.30712891 C-190.95529572 114.41444305 -190.96698792 113.5217572 -190.97903442 112.60202026 C-190.86618805 105.0319279 -188.50753828 98.17133151 -182.99609375 92.80859375 C-181.88427734 92.16083984 -181.88427734 92.16083984 -180.75 91.5 C-180.00621094 91.04496094 -179.26242188 90.58992188 -178.49609375 90.12109375 C-174.27367087 88.07408731 -170.46984573 87.91956378 -165.79980469 87.85717773 C-165.15548492 87.84727814 -164.51116516 87.83737854 -163.84732056 87.82717896 C-161.72637555 87.79569571 -159.60540819 87.77085897 -157.484375 87.74609375 C-156.01034985 87.72551282 -154.53633045 87.70451605 -153.06231689 87.68312073 C-149.18917509 87.6280176 -145.31598105 87.57855666 -141.44274902 87.53027344 C-137.48782726 87.47997237 -133.53298102 87.42433129 -129.578125 87.36914062 C-121.82298068 87.26170295 -114.06777342 87.16022626 -106.3125 87.0625 C-106.82997803 85.66620361 -106.82997803 85.66620361 -107.35791016 84.24169922 C-107.80956543 83.00436035 -108.2612207 81.76702148 -108.7265625 80.4921875 C-109.17467285 79.27257324 -109.6227832 78.05295898 -110.08447266 76.79638672 C-115.60667649 60.00581308 -113.94907293 41.71184808 -106.80859375 25.6875 C-97.23811753 6.8574215 -82.69770669 -4.91885528 -63.1328125 -12.10546875 C-41.59994279 -18.06196388 -17.59639437 -13.70080706 0 0 Z " fill="#6288CB" transform="translate(219.3125,42.9375)"/>
<path d="M0 0 C149.82 0 299.64 0 454 0 C454 43 454 43 449 53 C446.6484375 55.25390625 446.6484375 55.25390625 444.375 56.5625 C443.61960937 57.01753906 442.86421875 57.47257812 442.0859375 57.94140625 C438.15036862 59.9386706 435.07658931 60.1237563 430.71687317 60.12025452 C428.74177513 60.12231651 428.74177513 60.12231651 426.72677612 60.12442017 C425.26422096 60.12088099 423.80166604 60.11724618 422.33911133 60.11352539 C420.80174257 60.11324337 419.26437368 60.11340154 417.727005 60.1139679 C413.54961817 60.1142553 409.37225994 60.10836778 405.19487977 60.10139394 C400.83066086 60.09515091 396.46644132 60.09455585 392.10221863 60.09336853 C383.83622543 60.09025802 375.57024543 60.0820484 367.30425805 60.07201904 C357.89445396 60.06084922 348.48464925 60.05534526 339.07484019 60.05032361 C319.71655112 60.03986556 300.35828015 60.02152355 281 60 C281 76.83 281 93.66 281 111 C293.98422151 110.84184594 293.98422151 110.84184594 306.96777344 110.63964844 C308.59829665 110.62796349 310.22883154 110.61777121 311.859375 110.609375 C312.70258301 110.58891113 313.54579102 110.56844727 314.41455078 110.54736328 C320.34560408 110.54383079 320.34560408 110.54383079 323.57910156 112.79785156 C325 115 325 115 324.875 118.625 C324 122 324 122 322 124 C319.49850774 124.19958894 317.10735561 124.27369827 314.60450745 124.26069641 C313.44743212 124.26643473 313.44743212 124.26643473 312.26698154 124.27228898 C309.6682352 124.28265229 307.06970844 124.27862058 304.47094727 124.2746582 C302.61347243 124.27900284 300.7559994 124.28418516 298.89852905 124.29014587 C293.84280208 124.3035739 288.78714969 124.30411033 283.73140836 124.30158257 C279.5164679 124.30051542 275.30154269 124.30538965 271.08660549 124.310188 C261.14586023 124.32129636 251.20515276 124.32171314 241.2644043 124.31567383 C230.99652781 124.30963186 220.72878829 124.3219477 210.46093518 124.3432439 C201.65666565 124.36083559 192.85243981 124.3668651 184.04815334 124.36360615 C178.78476074 124.36178925 173.52146582 124.3644699 168.25808907 124.37832069 C163.30952321 124.39085492 158.36117149 124.38899689 153.4126091 124.37590981 C151.59328961 124.37353482 149.77395525 124.37631148 147.95465279 124.38453293 C145.47700872 124.39492459 143.0000933 124.38696149 140.5224762 124.3742218 C139.4345465 124.38528323 139.4345465 124.38528323 138.32463843 124.39656812 C135.46127657 124.36544929 133.47179663 124.31682146 131.05718899 122.69536114 C129.23784398 119.77776849 129.58503719 117.31970248 130 114 C131.76521022 111.93851624 133.20826586 111.10556877 135.90856934 110.74551392 C138.32505824 110.65169455 140.72275215 110.66302162 143.140625 110.70703125 C144.31407471 110.71156311 144.31407471 110.71156311 145.51123047 110.71618652 C148.42428848 110.73184358 151.33715794 110.77372768 154.25 110.8125 C164.02625 110.9053125 164.02625 110.9053125 174 111 C174 94.17 174 77.34 174 60 C169.29637207 60.02618408 164.59274414 60.05236816 159.74658203 60.0793457 C144.20022783 60.16222018 128.6538649 60.21768906 113.10734749 60.25906086 C103.6821273 60.2848111 94.25711682 60.31990063 84.83203125 60.37719727 C76.61437233 60.42712982 68.39686533 60.45931412 60.17905891 60.47044247 C55.83020137 60.47694461 51.48177834 60.49215956 47.13306046 60.52865028 C43.03391409 60.56276586 38.9353783 60.57302191 34.83610344 60.56553841 C33.3373666 60.56690605 31.83860786 60.57674593 30.33999443 60.59602737 C20.92966426 60.71109186 12.66436671 60.11042141 5.36151314 53.52174854 C-7.17569088 39.50905089 0 15.41513613 0 0 Z " fill="#A7B6ED" transform="translate(29,367)"/>
<path d="M0 0 C1.57803258 1.33603397 3.14182255 2.68916289 4.6875 4.0625 C5.32429688 4.61679687 5.96109375 5.17109375 6.6171875 5.7421875 C18.77732615 17.03760518 26.04538108 34.14444139 27.0078125 50.55078125 C27.47560874 63.92811242 25.17070811 75.80776554 19.6875 88.0625 C19.0275 88.0625 18.3675 88.0625 17.6875 88.0625 C17.48125 88.7225 17.275 89.3825 17.0625 90.0625 C10.35461683 104.69788146 -3.51949315 114.79236134 -18.109375 120.6328125 C-35.80396174 127.16562406 -54.40485655 127.25586997 -71.77734375 119.51953125 C-82.7559587 113.92133436 -91.6062453 106.64715428 -99.3125 97.0625 C-99.93125 96.30324219 -100.55 95.54398437 -101.1875 94.76171875 C-112.48720938 79.88214455 -114.74335285 61.13303111 -112.3125 43.0625 C-108.89165504 25.60503575 -99.50816648 9.74839893 -85.234375 -1.0234375 C-59.05811865 -18.17098511 -25.48314303 -19.84154359 0 0 Z " fill="#F977C7" transform="translate(219.3125,42.9375)"/>
<path d="M0 0 C14.99336028 11.22611728 25.95169565 26.92662674 29.55859375 45.4375 C32.15839077 66.4199326 27.84013107 84.93131004 14.8359375 101.80859375 C3.16881609 115.35152444 -12.06885308 124.91625816 -30 127 C-51.19632563 128.3747311 -69.12341076 124.10995887 -85.7265625 110.0859375 C-100.09641431 96.90122811 -107.84028669 80.25633218 -109.22265625 60.87890625 C-109.75004583 42.14511104 -103.56291478 24.92971338 -91 11 C-90.505 10.41347656 -90.01 9.82695312 -89.5 9.22265625 C-66.80466796 -15.79894732 -27.54552042 -17.31615952 0 0 Z " fill="#E00459" transform="translate(453,184)"/>
<path d="M0 0 C12.99968059 11.02372914 24.23283458 26.2125878 26.19262695 43.62792969 C26.34667231 47.15678788 26.35894416 50.65580846 26.3125 54.1875 C26.33570313 55.94610352 26.33570313 55.94610352 26.359375 57.74023438 C26.27700812 76.38603788 18.20711049 92.22987313 5.60546875 105.58984375 C-7.48565764 118.29019025 -24.33872155 124.55855808 -42.4375 124.625 C-54.03698302 124.42221184 -63.84864564 122.73157227 -74.1875 117.25 C-75.03183594 116.8065625 -75.87617187 116.363125 -76.74609375 115.90625 C-93.53363643 106.4779889 -104.60950661 91.84804026 -110.02441406 73.49853516 C-114.91160856 55.34673202 -112.61741529 37.09716582 -103.60131836 20.63037109 C-94.13016363 4.51975455 -78.48561147 -7.21708479 -60.6875 -12.6875 C-39.54446156 -17.21612938 -17.25995087 -13.1706702 0 0 Z " fill="#49B1F6" transform="translate(141.1875,186.75)"/>
<path d="M0 0 C0.97164597 -0.03395119 0.97164597 -0.03395119 1.96292114 -0.06858826 C7.93082901 -0.26555357 13.90072086 -0.3812107 19.87110329 -0.47180843 C23.87473585 -0.53358953 27.87373792 -0.62210946 31.875 -0.77539062 C60.00891158 -1.82692721 60.00891158 -1.82692721 65.67333984 3.34741211 C68.39480933 6.71133285 69.82543654 10.35850351 71.46240234 14.33569336 C81.61716927 25.93322527 97.26758154 34.02817043 112.46240234 36.33569336 C115.48429545 36.5015676 118.49893478 36.52289497 121.52490234 36.52319336 C122.36964111 36.53036377 123.21437988 36.53753418 124.0847168 36.54492188 C129.0295772 36.5331203 133.33837671 36.02837396 138.14990234 34.77319336 C142.78631333 33.91507309 142.78631333 33.91507309 145.50927734 35.60913086 C147.76236118 38.03910971 149.57725193 40.60816943 151.46240234 43.33569336 C152.93943964 45.29896358 154.43832817 47.24445171 155.93774414 49.19067383 C157.05025364 50.637249 158.15707677 52.08821288 159.25854492 53.54321289 C163.24660752 58.8084384 167.36767964 63.94224357 171.58740234 69.02319336 C176.05012023 74.40393831 180.4900116 79.79856894 184.83740234 85.27319336 C185.54340576 86.15140747 185.54340576 86.15140747 186.26367188 87.04736328 C189.46240234 91.10139853 189.46240234 91.10139853 189.46240234 93.33569336 C163.72240234 93.33569336 137.98240234 93.33569336 111.46240234 93.33569336 C108.98740234 86.90069336 108.98740234 86.90069336 106.46240234 80.33569336 C96.21122117 62.3961263 82.51402126 50.35721006 62.44995117 44.77587891 C43.42427856 40.02842418 24.14461081 43.43141655 7.37255859 53.1262207 C-7.9779706 62.84586815 -18.33241022 79.16980905 -22.41259766 96.64819336 C-22.80236832 98.54104514 -23.18313773 100.43591253 -23.53759766 102.33569336 C-23.86759766 102.33569336 -24.19759766 102.33569336 -24.53759766 102.33569336 C-24.65377147 91.42589192 -24.74245471 80.51623918 -24.79665852 69.60594368 C-24.82268208 64.53907447 -24.85794712 59.47263043 -24.91479492 54.40600586 C-24.96937388 49.51060723 -24.99907258 44.61561593 -25.01198387 39.71993637 C-25.02117748 37.8581082 -25.03913014 35.99630074 -25.06624794 34.13464737 C-25.33391845 14.98638874 -25.33391845 14.98638874 -19.53759766 7.33569336 C-17.22119141 5.08178711 -17.22119141 5.08178711 -14.97509766 3.77319336 C-14.23130859 3.3181543 -13.48751953 2.86311523 -12.72119141 2.39428711 C-8.52670327 0.36082327 -4.6351606 0.15863171 0 0 Z " fill="#3B58A0" transform="translate(53.53759765625,130.664306640625)"/>
<path d="M0 0 C1.24526459 -0.00921478 2.49052917 -0.01842957 3.77352905 -0.02792358 C4.80588684 -0.04325638 4.80588684 -0.04325638 5.85910034 -0.05889893 C8.13740748 -0.08672451 10.4145056 -0.0847737 12.69296265 -0.08016968 C14.28137662 -0.08794649 15.86978646 -0.09661643 17.45819092 -0.10614014 C20.79228158 -0.1210749 24.12594889 -0.1204786 27.46005249 -0.10995483 C31.713967 -0.09841179 35.96612661 -0.13210289 40.21975136 -0.17864418 C43.50400782 -0.20826002 46.78784966 -0.20984273 50.07221603 -0.20362473 C51.63898548 -0.20464575 53.2057798 -0.21501948 54.77241898 -0.23524857 C70.14783949 -0.40929299 70.14783949 -0.40929299 76.21327209 4.62338257 C84.66849201 13.7773597 83.62544239 24.36886011 83.4546814 36.09170532 C83.44534167 37.98312439 83.43823105 39.87455566 83.4332428 41.76599121 C83.41426418 46.71461099 83.3652434 51.66248264 83.3097229 56.61080933 C83.25833203 61.67204675 83.2356866 66.73340651 83.21054077 71.79483032 C83.15711478 81.70401097 83.07191423 91.61263939 82.96640015 101.52139282 C82.63640015 101.52139282 82.30640015 101.52139282 81.96640015 101.52139282 C81.77046265 100.54041626 81.57452515 99.5594397 81.37265015 98.54873657 C77.4769903 80.43086243 68.6783526 64.54075281 53.09921265 53.81826782 C35.53344685 43.13725272 15.74310533 39.24082344 -4.53359985 43.58389282 C-24.17197789 49.63953101 -38.13497247 62.21849949 -48.2718811 79.79873657 C-50.58068526 84.4367479 -50.58068526 84.4367479 -53.03359985 93.52139282 C-78.77359985 93.19139282 -104.51359985 92.86139282 -131.03359985 92.52139282 C-129.11664564 88.68748439 -126.87431956 85.58990305 -124.22109985 82.27139282 C-123.73971558 81.66368042 -123.2583313 81.05596802 -122.76235962 80.42984009 C-118.49297757 75.05638996 -114.15198326 69.74130954 -109.81069946 64.42593384 C-106.399176 60.23756398 -103.05939426 56.00409586 -99.78359985 51.70889282 C-96.5887204 47.53418084 -93.37808452 43.3778374 -90.09609985 39.27139282 C-89.38582642 38.37936157 -88.67555298 37.48733032 -87.9437561 36.56826782 C-86.03359985 34.52139282 -86.03359985 34.52139282 -83.03359985 33.52139282 C-81.83734985 33.83076782 -80.64109985 34.14014282 -79.40859985 34.45889282 C-61.97428146 38.64654773 -43.19018779 34.42949887 -27.84609985 25.77139282 C-18.64681676 19.93223748 -10.21055862 12.01657911 -4.86700439 2.42803955 C-3.03359985 0.52139282 -3.03359985 0.52139282 0 0 Z " fill="#3B579F" transform="translate(400.0335998535156,131.47860717773438)"/>
<path d="M0 0 C34.98 0 69.96 0 106 0 C106 25.74 106 51.48 106 78 C96.1 78.33 86.2 78.66 76 79 C69.91927542 83.00667898 67.24133703 84.85656041 63 90 C60.33203125 92.3671875 60.33203125 92.3671875 58 94 C55.74286486 93.81190541 54.60454441 93.60454441 53 92 C53 87.38 53 82.76 53 78 C35.51 78 18.02 78 0 78 C0 52.26 0 26.52 0 0 Z " fill="#FCD941" transform="translate(203,254)"/>
<path d="M0 0 C35.31 0 70.62 0 107 0 C107 16.83 107 33.66 107 51 C119.98422151 50.84184594 119.98422151 50.84184594 132.96777344 50.63964844 C134.59829665 50.62796349 136.22883154 50.61777121 137.859375 50.609375 C138.70258301 50.58891113 139.54579102 50.56844727 140.41455078 50.54736328 C146.34560408 50.54383079 146.34560408 50.54383079 149.57910156 52.79785156 C151 55 151 55 150.875 58.625 C150 62 150 62 148 64 C145.49850774 64.19958894 143.10735561 64.27369827 140.60450745 64.26069641 C139.44743212 64.26643473 139.44743212 64.26643473 138.26698154 64.27228898 C135.6682352 64.28265229 133.06970844 64.27862058 130.47094727 64.2746582 C128.61347243 64.27900284 126.7559994 64.28418516 124.89852905 64.29014587 C119.84280208 64.3035739 114.78714969 64.30411033 109.73140836 64.30158257 C105.5164679 64.30051542 101.30154269 64.30538965 97.08660549 64.310188 C87.14586023 64.32129636 77.20515276 64.32171314 67.2644043 64.31567383 C56.99652781 64.30963186 46.72878829 64.3219477 36.46093518 64.3432439 C27.65666565 64.36083559 18.85243981 64.3668651 10.04815334 64.36360615 C4.78476074 64.36178925 -0.47853418 64.3644699 -5.74191093 64.37832069 C-10.69047679 64.39085492 -15.63882851 64.38899689 -20.5873909 64.37590981 C-22.40671039 64.37353482 -24.22604475 64.37631148 -26.04534721 64.38453293 C-28.52299128 64.39492459 -30.9999067 64.38696149 -33.4775238 64.3742218 C-34.20281027 64.38159609 -34.92809673 64.38897037 -35.67536157 64.39656812 C-38.53872343 64.36544929 -40.52820337 64.31682146 -42.94281101 62.69536114 C-44.76215602 59.77776849 -44.41496281 57.31970248 -44 54 C-42.23478978 51.93851624 -40.79173414 51.10556877 -38.09143066 50.74551392 C-35.67494176 50.65169455 -33.27724785 50.66302162 -30.859375 50.70703125 C-29.68592529 50.71156311 -29.68592529 50.71156311 -28.48876953 50.71618652 C-25.57571152 50.73184358 -22.66284206 50.77372768 -19.75 50.8125 C-9.97375 50.9053125 -9.97375 50.9053125 0 51 C0 34.17 0 17.34 0 0 Z " fill="#6288CC" transform="translate(203,427)"/>
<path d="M0 0 C2.70072318 0.03312874 5.38437326 -0.04028501 8.08374023 -0.12304688 C20.57919649 -0.23853679 20.57919649 -0.23853679 24.90161133 3.65332031 C26.72631836 6.56445312 26.72631836 6.56445312 28.01074219 9.45703125 C31.93203992 18.2626457 41.25594883 23.62498218 49.26928711 28.28320312 C47.71313438 33.31895203 44.66195462 36.75877057 41.33178711 40.72070312 C40.14724645 42.15351457 38.96366866 43.58712253 37.78100586 45.02148438 C37.18852051 45.73771973 36.59603516 46.45395508 35.9855957 47.19189453 C33.49317754 50.22888656 31.06310478 53.31246929 28.64428711 56.40820312 C28.20044678 56.97506836 27.75660645 57.54193359 27.29931641 58.12597656 C25.95489638 59.84421333 24.61197465 61.56361232 23.26928711 63.28320312 C16.69526871 71.69583491 10.07173084 80.05308602 3.26928711 88.28320312 C-1.19117994 86.7225669 -3.51825932 83.1369044 -6.29321289 79.53320312 C-6.81987549 78.86216553 -7.34653809 78.19112793 -7.88916016 77.49975586 C-9.5097372 75.43272549 -11.12060716 73.35839513 -12.73071289 71.28320312 C-14.54012445 68.96827556 -16.35422895 66.65704823 -18.16821289 64.34570312 C-18.6102002 63.78036865 -19.0521875 63.21503418 -19.50756836 62.63256836 C-22.53391146 58.77135331 -25.61617483 54.95987671 -28.72436523 51.16430664 C-44.73071289 31.61662954 -44.73071289 31.61662954 -44.73071289 28.28320312 C-43.16463717 27.24420125 -41.54956159 26.27888021 -39.91821289 25.34570312 C-33.22949759 21.19973398 -24.92025962 15.479742 -21.75634766 7.97070312 C-17.47347643 -1.31545346 -9.01468439 -0.15099699 0 0 Z " fill="#3B579F" transform="translate(253.730712890625,130.716796875)"/>
<path d="M0 0 C1.56615807 -0.00430527 1.56615807 -0.00430527 3.16395569 -0.00869751 C5.36866804 -0.01073595 7.57339857 -0.00522155 9.77807617 0.00732422 C13.14478215 0.02336425 16.51028467 0.00747576 19.87695312 -0.01171875 C22.02213806 -0.00973596 24.16732224 -0.00589156 26.3125 0 C27.31578842 -0.00607269 28.31907684 -0.01214539 29.35276794 -0.0184021 C34.69471772 0.03508775 38.67771438 0.26927846 43.22265625 3.3984375 C46.04219014 6.47544584 46.60233653 8.49931343 46.62670898 12.63842773 C46.63939316 13.68308701 46.65207733 14.72774628 46.66514587 15.80406189 C46.66221024 16.92704178 46.6592746 18.05002167 46.65625 19.20703125 C46.66149185 20.36590347 46.6667337 21.5247757 46.6721344 22.71876526 C46.67855655 25.16902872 46.67721514 27.619323 46.66870117 30.06958008 C46.66019597 33.8184299 46.68894492 37.56575403 46.72070312 41.31445312 C46.72231533 43.69531204 46.72173725 46.07617366 46.71875 48.45703125 C46.72998398 49.57798691 46.74121796 50.69894257 46.75279236 51.85386658 C46.68352497 59.59073269 46.68352497 59.59073269 44.44165039 63.51977539 C40.77173908 66.6268243 38.06534746 67.64746854 33.25805664 67.6730957 C31.78116112 67.68739372 31.78116112 67.68739372 30.27442932 67.70198059 C29.21707077 67.70106918 28.15971222 67.70015778 27.0703125 67.69921875 C25.97802841 67.70350388 24.88574432 67.707789 23.76036072 67.71220398 C21.45133151 67.71794463 19.14228422 67.7184495 16.83325195 67.71411133 C13.301932 67.71095251 9.77145069 67.73441078 6.24023438 67.75976562 C3.99609481 67.76203875 1.75195299 67.76274205 -0.4921875 67.76171875 C-1.54752182 67.7709285 -2.60285614 67.78013824 -3.69017029 67.78962708 C-13.21262381 67.72957806 -13.21262381 67.72957806 -16.77734375 64.3984375 C-20.57843811 59.08844434 -20.22896075 53.57937595 -20.2109375 47.3046875 C-20.21617935 46.23980103 -20.2214212 45.17491455 -20.2268219 44.07775879 C-20.23322983 41.83195872 -20.23192108 39.58612503 -20.22338867 37.34033203 C-20.21487214 33.90987304 -20.24366962 30.48107621 -20.27539062 27.05078125 C-20.27700266 24.86458383 -20.27642507 22.67838347 -20.2734375 20.4921875 C-20.29028847 18.95914978 -20.29028847 18.95914978 -20.30747986 17.3951416 C-20.25080043 11.58761498 -19.87076228 7.87338279 -15.77734375 3.3984375 C-11.20482541 -0.67570053 -5.79907112 -0.03502988 0 0 Z " fill="#DADDEC" transform="translate(162.77734375,64.6015625)"/>
<path d="M0 0 C1.52837312 1.7968711 2.97344728 3.66504905 4.375 5.5625 C5.27002564 6.75809271 6.16726553 7.95203018 7.06640625 9.14453125 C7.54223145 9.77568848 8.01805664 10.4068457 8.50830078 11.05712891 C11.03543715 14.34861028 13.6777051 17.54455712 16.3125 20.75 C21.47399956 27.05017802 26.45573412 33.46875536 31.37695312 39.95776367 C35.78284029 45.75437753 40.33000838 51.41290408 45 57 C48.07305933 55.66779391 49.76865961 54.37899234 51.7421875 51.68359375 C52.24363281 51.01070312 52.74507813 50.3378125 53.26171875 49.64453125 C54.06029297 48.55205078 54.06029297 48.55205078 54.875 47.4375 C59.43752965 41.32641245 64.11074834 35.35301154 69 29.5 C75.45728894 21.74818182 81.59349751 13.7792397 87.67675781 5.73242188 C89.41395197 3.4580437 91.19860159 1.22373584 93 -1 C99 1 99 1 105 3 C103.70234874 5.78454333 102.27315368 8.07241613 100.3125 10.43359375 C99.78398437 11.07554687 99.25546875 11.7175 98.7109375 12.37890625 C98.14632812 13.05824219 97.58171875 13.73757812 97 14.4375 C92.91794844 19.40069926 88.89160293 24.38587049 85 29.5 C80.72919833 35.10629666 76.31325022 40.57921684 71.81640625 46.00585938 C67.27822969 51.5263501 63.23104908 57.18230752 59 63 C84.41 63 109.82 63 136 63 C135.67 66.63 135.34 70.26 135 74 C107.61 74 80.22 74 52 74 C52 80.27 52 86.54 52 93 C48.04 93 44.08 93 40 93 C40 87.06 40 81.12 40 75 C12.94 75 -14.12 75 -42 75 C-42 78.96 -42 82.92 -42 87 C-42.33 87 -42.66 87 -43 87 C-43.33 79.08 -43.66 71.16 -44 63 C-18.59 63 6.82 63 33 63 C24.86293106 52.4022775 24.86293106 52.4022775 16.5 42 C11.76153012 36.21039068 7.16125042 30.34243661 2.6328125 24.38671875 C0.63367663 21.78627417 -1.42549321 19.24132248 -3.5078125 16.70703125 C-4.10722656 15.97742188 -4.70664063 15.2478125 -5.32421875 14.49609375 C-6.50733079 13.06147417 -7.69471141 11.63036217 -8.88671875 10.203125 C-9.42167969 9.55472656 -9.95664063 8.90632812 -10.5078125 8.23828125 C-10.98879395 7.66118408 -11.46977539 7.08408691 -11.96533203 6.48950195 C-13 5 -13 5 -13 3 C-11.40084119 2.30093058 -9.79544955 1.61610532 -8.1875 0.9375 C-7.29417969 0.55464844 -6.40085938 0.17179688 -5.48046875 -0.22265625 C-3 -1 -3 -1 0 0 Z " fill="#228CE6" transform="translate(210,161)"/>
<path d="M0 0 C1.68227188 -0.01913956 1.68227188 -0.01913956 3.39852905 -0.03866577 C4.605867 -0.04089142 5.81320496 -0.04311707 7.05712891 -0.04541016 C8.30241364 -0.05206696 9.54769836 -0.05872375 10.83071899 -0.06558228 C13.46525363 -0.07570883 16.0993756 -0.08126448 18.73388672 -0.08007812 C21.43044809 -0.07991539 24.12633153 -0.09382665 26.82275391 -0.12109375 C30.71359014 -0.1577369 34.60363734 -0.16755105 38.49462891 -0.17041016 C39.6979184 -0.18478119 40.90120789 -0.19915222 42.14096069 -0.21395874 C48.49451864 -0.17929441 52.65752855 -0.13434963 57.40869141 4.29052734 C59.8596962 7.96703453 59.71477494 10.77447046 59.70947266 15.02880859 C59.71375778 15.78719528 59.71804291 16.54558197 59.72245789 17.32695007 C59.72819853 18.93157962 59.72870339 20.53623519 59.72436523 22.14086914 C59.7212162 24.58379166 59.74462792 27.02548988 59.77001953 29.46826172 C59.77229381 31.03010916 59.77299542 32.59195983 59.77197266 34.15380859 C59.7811824 34.87901199 59.79039215 35.60421539 59.79988098 36.35139465 C59.75741028 41.06014896 59.01160963 44.34770408 56.40869141 48.29052734 C53.64769957 50.25332108 51.42080253 50.5335575 48.08056641 50.48583984 C47.28134766 50.47939453 46.48212891 50.47294922 45.65869141 50.46630859 C44.83369141 50.44955078 44.00869141 50.43279297 43.15869141 50.41552734 C42.31822266 50.40650391 41.47775391 50.39748047 40.61181641 50.38818359 C38.54398536 50.36468551 36.47630146 50.32881642 34.40869141 50.29052734 C34.46089844 51.32113281 34.46089844 51.32113281 34.51416016 52.37255859 C34.54123047 53.27361328 34.56830078 54.17466797 34.59619141 55.10302734 C34.64839844 56.44300781 34.64839844 56.44300781 34.70166016 57.81005859 C34.40869141 60.29052734 34.40869141 60.29052734 33.27197266 62.11474609 C30.35451335 63.95574242 28.82729839 63.86229436 25.40869141 63.29052734 C22.41716483 61.55285245 19.72523334 59.44069716 16.97119141 57.35302734 C9.59881829 52.03851915 4.76153437 49.99777481 -4.45458984 50.57568359 C-7.59130859 50.29052734 -7.59130859 50.29052734 -10.44677734 47.97412109 C-13.89334966 43.66119726 -13.7763639 39.80884465 -13.82958984 34.51708984 C-13.83766159 33.75633148 -13.84573334 32.99557312 -13.85404968 32.21176147 C-13.86786883 30.60294866 -13.87860068 28.9941068 -13.88647461 27.38525391 C-13.90369834 24.93123653 -13.9476023 22.47856331 -13.99169922 20.02490234 C-14.001826 18.45980806 -14.01034215 16.89470235 -14.01708984 15.32958984 C-14.03459793 14.59922516 -14.05210602 13.86886047 -14.07014465 13.11636353 C-14.05505551 9.55413043 -13.70092859 7.46807046 -11.81469727 4.41308594 C-8.02743035 0.79757056 -5.20028562 0.04022332 0 0 Z " fill="#D9DEEE" transform="translate(75.59130859375,209.70947265625)"/>
<path d="M0 0 C2.05859375 0.69921875 2.05859375 0.69921875 4.62109375 2.76171875 C7.06173453 7.74911513 6.72766942 11.5615081 5.1171875 16.70703125 C4.38908706 18.77209661 3.63021801 20.82666216 2.8359375 22.8671875 C1.98166008 25.97950474 2.32982011 27.61320132 3.05859375 30.69921875 C3.87537598 30.71380127 4.6921582 30.72838379 5.53369141 30.7434082 C9.25079135 30.81808798 12.96701294 30.91468487 16.68359375 31.01171875 C17.96878906 31.03427734 19.25398438 31.05683594 20.578125 31.08007812 C22.44404297 31.13325195 22.44404297 31.13325195 24.34765625 31.1875 C25.48928223 31.21368408 26.6309082 31.23986816 27.80712891 31.2668457 C32.59662884 31.90374346 35.84382979 33.18982083 38.90869141 36.99804688 C40.25379152 40.15774701 40.44621735 42.48841728 40.45703125 45.91796875 C40.46283203 47.68720703 40.46283203 47.68720703 40.46875 49.4921875 C40.45714844 50.71550781 40.44554687 51.93882813 40.43359375 53.19921875 C40.44519531 54.42253906 40.45679688 55.64585938 40.46875 56.90625 C40.46488281 58.08574219 40.46101563 59.26523438 40.45703125 60.48046875 C40.45364746 61.55361328 40.45026367 62.62675781 40.44677734 63.73242188 C39.87232048 68.12286201 38.33777633 70.56534137 35.046875 73.48242188 C30.49638373 75.33533433 26.11560715 75.16699617 21.24609375 75.16796875 C20.1996167 75.17558228 19.15313965 75.1831958 18.07495117 75.19104004 C15.86607241 75.20182831 13.6571427 75.20469933 11.44824219 75.20019531 C8.07009961 75.19922206 4.6942216 75.24087961 1.31640625 75.28515625 C-0.83202652 75.29036273 -2.98046717 75.29305145 -5.12890625 75.29296875 C-6.64158081 75.31756165 -6.64158081 75.31756165 -8.18481445 75.34265137 C-12.68577116 75.29830602 -15.22339459 75.16171443 -19.0690918 72.68457031 C-21.45160532 68.885721 -21.7129625 65.70057949 -21.7109375 61.33984375 C-21.72600845 60.5258461 -21.74107941 59.71184845 -21.75660706 58.8731842 C-21.78945967 56.23078314 -21.77677137 53.59169281 -21.75390625 50.94921875 C-21.75231506 50.05326996 -21.75072388 49.15732117 -21.74908447 48.23422241 C-21.67291377 33.63511093 -21.3474378 14.767204 -11.49169922 2.96289062 C-7.57399345 -0.61203147 -4.96184393 -0.91204214 0 0 Z " fill="#D9DEED" transform="translate(326.94140625,61.30078125)"/>
<path d="M0 0 C0.94165512 -0.00145523 1.88331024 -0.00291046 2.85350037 -0.00440979 C4.84141132 -0.0027517 6.82933523 0.00879956 8.81713867 0.02954102 C11.86367125 0.05852314 14.9084667 0.05014274 17.95507812 0.03710938 C19.88672722 0.04334602 21.81837082 0.05173639 23.75 0.0625 C25.11881065 0.05809654 25.11881065 0.05809654 26.51527405 0.05360413 C27.36302902 0.0662883 28.210784 0.07897247 29.08422852 0.09204102 C29.82939224 0.097444 30.57455597 0.10284698 31.34230042 0.1084137 C33.87573417 0.60791279 34.7711812 1.4481617 36.30859375 3.49609375 C36.6015625 6.6328125 36.6015625 6.6328125 36.49609375 10.18359375 C36.45548828 11.95283203 36.45548828 11.95283203 36.4140625 13.7578125 C36.37925781 14.66144531 36.34445312 15.56507813 36.30859375 16.49609375 C36.82768311 16.18792725 37.34677246 15.87976074 37.8815918 15.56225586 C40.24452518 14.17085315 42.61987074 12.80216629 44.99609375 11.43359375 C46.22102539 10.7055957 46.22102539 10.7055957 47.47070312 9.96289062 C48.66469727 9.28129883 48.66469727 9.28129883 49.8828125 8.5859375 C50.61072998 8.16175537 51.33864746 7.73757324 52.08862305 7.30053711 C54.85696484 6.29738235 56.51629064 6.70411846 59.30859375 7.49609375 C59.35795885 12.44399552 59.39429644 17.39175458 59.41845703 22.33984375 C59.42852692 24.02378841 59.44218363 25.70771554 59.45947266 27.39160156 C59.48367801 29.80928876 59.49506671 32.22674518 59.50390625 34.64453125 C59.51422882 35.39979095 59.52455139 36.15505066 59.53518677 36.93319702 C59.53558693 38.78903355 59.43082091 40.64428655 59.30859375 42.49609375 C58.31859375 43.48609375 58.31859375 43.48609375 57.30859375 44.49609375 C52.31046857 44.28281568 48.20446876 41.38941938 43.99609375 38.93359375 C43.25552734 38.50884766 42.51496094 38.08410156 41.75195312 37.64648438 C39.93391257 36.60257722 38.12075627 35.55017183 36.30859375 34.49609375 C36.355 35.39972656 36.40140625 36.30335938 36.44921875 37.234375 C36.50335938 39.00361328 36.50335938 39.00361328 36.55859375 40.80859375 C36.605 41.98035156 36.65140625 43.15210938 36.69921875 44.359375 C36.30859375 47.49609375 36.30859375 47.49609375 34.87402344 49.16503906 C30.95815372 51.19675982 27.22180137 50.94411102 22.87109375 50.9296875 C21.95400635 50.93492935 21.03691895 50.9401712 20.09204102 50.9455719 C18.15544649 50.95198781 16.21881297 50.95066068 14.28222656 50.94213867 C11.31895655 50.93362353 8.3576111 50.96240388 5.39453125 50.99414062 C3.51171933 50.99575262 1.62890399 50.99517514 -0.25390625 50.9921875 C-1.13941162 51.00342148 -2.02491699 51.01465546 -2.93725586 51.02622986 C-6.60130256 50.98470037 -9.02255459 50.87312119 -12.24804688 49.05493164 C-14.45949122 45.1344059 -14.26317033 41.48934249 -14.22265625 37.05859375 C-14.22648315 36.14150635 -14.23031006 35.22441895 -14.23425293 34.27954102 C-14.23697174 32.34292502 -14.22961271 30.40627228 -14.21289062 28.46972656 C-14.19148019 25.50632822 -14.21269294 22.54535424 -14.23828125 19.58203125 C-14.23563797 17.6992134 -14.23051298 15.81639706 -14.22265625 13.93359375 C-14.23075317 13.04808838 -14.2388501 12.16258301 -14.24719238 11.25024414 C-14.19155706 7.59822094 -14.06111479 5.15881228 -12.26391602 1.93725586 C-8.27057849 -0.29987724 -4.50375419 -0.05556746 0 0 Z " fill="#DBDDEC" transform="translate(390.69140625,216.50390625)"/>
<path d="M0 0 C1.14632959 -0.00807831 1.14632959 -0.00807831 2.31581736 -0.01631981 C4.87847365 -0.03063585 7.44061606 -0.02348686 10.0032959 -0.01637268 C11.83974117 -0.02207431 13.6761829 -0.02903776 15.51261902 -0.03717041 C20.50221197 -0.05513872 25.49162943 -0.05392668 30.48124504 -0.04822803 C34.64400648 -0.04514185 38.80673392 -0.05122217 42.96949053 -0.05726677 C52.78759103 -0.0713221 62.60560453 -0.06974198 72.42370605 -0.05836487 C82.55986605 -0.04687892 92.69576162 -0.06096508 102.83188677 -0.08776134 C111.52921684 -0.1098949 120.22646377 -0.11656113 128.92382002 -0.11068493 C134.12073059 -0.10730898 139.31747157 -0.10977284 144.51435852 -0.12693596 C149.39981793 -0.14236598 154.28488448 -0.13849353 159.17032814 -0.11963081 C160.96503943 -0.11593415 162.75977957 -0.11908462 164.55446434 -0.1295166 C167.00120365 -0.14265491 169.44662856 -0.131244 171.89331055 -0.11352539 C172.60653803 -0.1231304 173.31976552 -0.1327354 174.05460596 -0.14263147 C177.39720087 -0.09269148 179.19406556 0.20385604 181.92655182 2.19244289 C183.44665527 4.38768005 183.44665527 4.38768005 183.32165527 8.01268005 C182.44665527 11.38768005 182.44665527 11.38768005 180.44665527 13.38768005 C177.94516301 13.587269 175.55401088 13.66137832 173.05116272 13.64837646 C171.8940874 13.65411479 171.8940874 13.65411479 170.71363682 13.65996903 C168.11489048 13.67033235 165.51636371 13.66630063 162.91760254 13.66233826 C161.06012771 13.6666829 159.20265467 13.67186521 157.34518433 13.67782593 C152.28945736 13.69125395 147.23380497 13.69179038 142.17806363 13.68926263 C137.96312317 13.68819548 133.74819797 13.69306971 129.53326076 13.69786805 C119.59251551 13.70897641 109.65180803 13.70939319 99.71105957 13.70335388 C89.44318309 13.69731191 79.17544356 13.70962776 68.90759045 13.73092395 C60.10332092 13.74851565 51.29909508 13.75454516 42.49480861 13.75128621 C37.23141601 13.7494693 31.96812109 13.75214995 26.70474434 13.76600075 C21.75617849 13.77853498 16.80782677 13.77667694 11.85926437 13.76358986 C10.03994488 13.76121487 8.22061053 13.76399154 6.40130806 13.77221298 C3.923664 13.78260465 1.44674857 13.77464154 -1.03086853 13.76190186 C-1.75615499 13.76927614 -2.48144146 13.77665043 -3.2287063 13.78424817 C-6.09206816 13.75312935 -8.0815481 13.70450151 -10.49615574 12.08304119 C-12.31550074 9.16544854 -11.96830754 6.70738253 -11.55334473 3.38768005 C-8.25179346 -0.20949707 -4.58295408 -0.03861848 0 0 Z " fill="#A8B7EE" transform="translate(170.5533447265625,477.61231994628906)"/>
<path d="M0 0 C2.92700833 1.30886976 4.87184315 2.66226088 7.015625 5.0390625 C7.54414063 5.61914062 8.07265625 6.19921875 8.6171875 6.796875 C9.15601563 7.40015625 9.69484375 8.0034375 10.25 8.625 C10.80429688 9.23601562 11.35859375 9.84703125 11.9296875 10.4765625 C13.2917841 11.97956565 14.64661601 13.4891468 16 15 C20.10110762 13.59601721 22.98089159 11.62912962 26.3125 8.875 C27.19550781 8.15054688 28.07851562 7.42609375 28.98828125 6.6796875 C29.65214844 6.12539062 30.31601563 5.57109375 31 5 C44.90665029 13.01824882 44.90665029 13.01824882 46.78515625 19.859375 C46.92335135 24.30565211 46.46867217 27.17982371 44.25 31.0625 C40.57821367 34.22431601 37.87723096 35.24884692 33.03540039 35.2746582 C31.55850487 35.28895622 31.55850487 35.28895622 30.05177307 35.30354309 C28.99441452 35.30263168 27.93705597 35.30172028 26.84765625 35.30078125 C25.75537216 35.30506638 24.66308807 35.3093515 23.53770447 35.31376648 C21.22867526 35.31950713 18.91962797 35.320012 16.6105957 35.31567383 C13.07927575 35.31251501 9.54879444 35.33597328 6.01757812 35.36132812 C3.77343856 35.36360125 1.52929674 35.36430455 -0.71484375 35.36328125 C-1.77017807 35.372491 -2.82551239 35.38170074 -3.91282654 35.39118958 C-13.12552001 35.33309392 -13.12552001 35.33309392 -17 32 C-19.84028567 27.88648283 -20.55964386 24.20523375 -20.48852539 19.31347656 C-19.56191617 14.9253961 -16.23985923 12.79229302 -12.8125 10.1875 C-12.13896484 9.64158203 -11.46542969 9.09566406 -10.77148438 8.53320312 C-8.86648315 6.99619238 -6.93764651 5.49549898 -5 4 C-3.33227043 2.66799638 -1.66508834 1.33530385 0 0 Z " fill="#70AF46" transform="translate(163,97)"/>
<path d="M0 0 C0.0493651 4.94790177 0.08570269 9.89566083 0.10986328 14.84375 C0.11993317 16.52769466 0.13358988 18.21162179 0.15087891 19.89550781 C0.17508426 22.31319501 0.18647296 24.73065143 0.1953125 27.1484375 C0.20563507 27.9036972 0.21595764 28.65895691 0.22659302 29.43710327 C0.22699318 31.2929398 0.12222716 33.1481928 0 35 C-0.66 35.66 -1.32 36.32 -2 37 C-6.99694475 36.7867723 -11.10532215 33.89193743 -15.3125 31.4375 C-17.849375 29.973125 -20.38625 28.50875 -23 27 C-23 21.06 -23 15.12 -23 9 C-20.11350651 7.294481 -17.21764264 5.61070089 -14.3125 3.9375 C-13.49587891 3.45216797 -12.67925781 2.96683594 -11.83789062 2.46679688 C-11.04189453 2.01240234 -10.24589844 1.55800781 -9.42578125 1.08984375 C-8.69786377 0.66566162 -7.96994629 0.24147949 -7.2199707 -0.19555664 C-4.45162891 -1.1987114 -2.79230311 -0.79197529 0 0 Z " fill="#BDC7F2" transform="translate(450,224)"/>
<path d="M0 0 C0.82773422 -0.0127597 1.65546844 -0.02551941 2.50828552 -0.03866577 C3.84428551 -0.04200424 3.84428551 -0.04200424 5.20727539 -0.04541016 C6.12577774 -0.05206696 7.04428009 -0.05872375 7.99061584 -0.06558228 C9.93317665 -0.07570714 11.87577222 -0.08039935 13.81835938 -0.08007812 C16.79037756 -0.08445124 19.76091064 -0.12077192 22.73266602 -0.15869141 C24.62003073 -0.1645596 26.50740249 -0.16852897 28.39477539 -0.17041016 C29.72773903 -0.19196671 29.72773903 -0.19196671 31.08763123 -0.21395874 C37.20357725 -0.16866614 37.20357725 -0.16866614 40.46728516 2.08886719 C41.86743164 4.29052734 41.86743164 4.29052734 41.74243164 7.97802734 C41.45368164 9.07115234 41.16493164 10.16427734 40.86743164 11.29052734 C38.56124066 12.44362283 37.21525343 12.4288488 34.64892578 12.45166016 C33.77784683 12.4612677 32.90676788 12.47087524 32.0092926 12.48077393 C31.06658005 12.4850238 30.12386749 12.48927368 29.15258789 12.49365234 C27.7025663 12.50220245 27.7025663 12.50220245 26.22325134 12.51092529 C24.1763519 12.5203807 22.12943719 12.52691142 20.08251953 12.53076172 C16.94610176 12.54047725 13.81033642 12.57149967 10.67407227 12.60302734 C8.68774804 12.60955627 6.70141912 12.61480717 4.71508789 12.61865234 C3.3040554 12.63717255 3.3040554 12.63717255 1.86451721 12.65606689 C0.9902861 12.6530658 0.11605499 12.6500647 -0.78466797 12.64697266 C-1.93810951 12.6524411 -1.93810951 12.6524411 -3.11485291 12.65802002 C-5.70653568 12.18598892 -6.60634165 11.4169367 -8.13256836 9.29052734 C-8.00756836 5.72802734 -8.00756836 5.72802734 -7.13256836 2.29052734 C-4.08101058 0.25615549 -3.43887103 0.03604153 0 0 Z " fill="#6489CD" transform="translate(239.132568359375,390.70947265625)"/>
<path d="M0 0 C1.08003296 0.00326294 1.08003296 0.00326294 2.18188477 0.0065918 C4.37697108 0.0097488 6.57070573 -0.01369198 8.765625 -0.0390625 C10.15950351 -0.04133581 11.55338564 -0.04203884 12.94726562 -0.04101562 C14.85270142 -0.04548706 14.85270142 -0.04548706 16.79663086 -0.05004883 C19.95117188 0.32226562 19.95117188 0.32226562 21.89672852 1.62231445 C22.95117188 3.32226562 22.95117188 3.32226562 22.82617188 6.88476562 C21.95117188 10.32226562 21.95117188 10.32226562 18.95117188 12.32226562 C14.31924569 12.76905607 9.66474894 12.64636432 5.01367188 12.63476562 C3.72525391 12.65087891 2.43683594 12.66699219 1.109375 12.68359375 C-0.7459082 12.68456055 -0.7459082 12.68456055 -2.63867188 12.68554688 C-4.33817993 12.69001831 -4.33817993 12.69001831 -6.07202148 12.69458008 C-9.36519461 12.28269711 -10.76782751 11.71170556 -13.04882812 9.32226562 C-13.42382812 5.75976562 -13.42382812 5.75976562 -13.04882812 2.32226562 C-9.60779247 -1.11877003 -4.64831117 0.01861075 0 0 Z " fill="#FF9404" transform="translate(239.048828125,300.677734375)"/>
<path d="M0 0 C0.98178223 -0.00430527 0.98178223 -0.00430527 1.98339844 -0.00869751 C3.36524319 -0.01073618 4.74711693 -0.00521996 6.12890625 0.00732422 C8.2428445 0.02338314 10.35487113 0.00747149 12.46875 -0.01171875 C13.81250422 -0.00973628 15.15625724 -0.00589252 16.5 0 C17.72203125 0.00338379 18.9440625 0.00676758 20.203125 0.01025391 C23.25 0.3984375 23.25 0.3984375 25.1484375 1.73583984 C26.87601751 4.34329105 26.62981601 6.35990942 26.25 9.3984375 C25.1484375 11.05883789 25.1484375 11.05883789 23.25 12.3984375 C20.203125 12.80249023 20.203125 12.80249023 16.5 12.83203125 C15.84547852 12.8372731 15.19095703 12.84251495 14.51660156 12.84791565 C13.13478004 12.85433013 11.75290387 12.85300616 10.37109375 12.84448242 C8.25682476 12.83596499 6.14525245 12.86474481 4.03125 12.89648438 C2.68750081 12.89809638 1.34374684 12.89751887 0 12.89453125 C-1.83304687 12.89731079 -1.83304687 12.89731079 -3.703125 12.90014648 C-6.75 12.3984375 -6.75 12.3984375 -8.6484375 10.52758789 C-10.01360411 7.88893141 -10.20116541 6.3310127 -9.75 3.3984375 C-7.20395352 -0.36307531 -4.28724197 0.01187132 0 0 Z " fill="#FF9203" transform="translate(259.75,274.6015625)"/>
<path d="M0 0 C1.1653125 -0.02578125 2.330625 -0.0515625 3.53125 -0.078125 C5.00078125 0.08429688 5.00078125 0.08429688 6.5 0.25 C8.81361802 3.72042703 9.01020728 5.16834173 8.5 9.25 C5.61836453 12.04610748 3.46846592 12.68145051 -0.5 12.6875 C-3.80942616 12.57017913 -5.27916009 12.3783953 -8.1875 10.6875 C-10.05737427 7.21487636 -9.48695477 4.98632878 -8.5 1.25 C-5.65504507 -0.17247747 -3.1688204 0.04206399 0 0 Z " fill="#FF9404" transform="translate(277.5,300.75)"/>
<path d="M0 0 C0.94746094 -0.00773437 1.89492187 -0.01546875 2.87109375 -0.0234375 C5.96605308 0.43474226 7.35160172 1.18466821 9.5625 3.375 C10.01384106 6.46991014 10.22901655 8.41250491 8.41015625 11.0390625 C5.77632011 12.94344296 3.7801351 12.77365908 0.5625 12.75 C-0.489375 12.75773437 -1.54125 12.76546875 -2.625 12.7734375 C-5.4375 12.375 -5.4375 12.375 -7.2890625 11.0390625 C-9.08158122 8.44173946 -8.82028728 6.43729826 -8.4375 3.375 C-6.07077294 0.04752235 -3.94444171 -0.03211214 0 0 Z " fill="#FF9203" transform="translate(234.4375,274.625)"/>
</svg>
