<?xml version="1.0" encoding="UTF-8"?>
<svg version="1.1" xmlns="http://www.w3.org/2000/svg" width="512" height="512">
<path d="M0 0 C2.08777208 1.65990612 4.13728938 3.35533115 6.1875 5.0625 C7.06019531 5.77019531 7.93289063 6.47789063 8.83203125 7.20703125 C29.48896543 24.74102735 42.49835287 50.65519773 47.1875 77.0625 C47.1875 78.0525 47.1875 79.0425 47.1875 80.0625 C52.7975 80.0625 58.4075 80.0625 64.1875 80.0625 C64.8475 78.4125 65.5075 76.7625 66.1875 75.0625 C69.62475041 72.77099973 70.90991843 72.80569782 74.95654297 72.7878418 C76.14142303 72.77830978 77.3263031 72.76877777 78.54708862 72.75895691 C80.46897507 72.76032402 80.46897507 72.76032402 82.4296875 72.76171875 C84.40317673 72.75529106 84.40317673 72.75529106 86.41653442 72.74873352 C89.2023725 72.74127241 91.98808386 72.74156126 94.77392578 72.74682617 C98.3372175 72.75261403 101.89998827 72.73570655 105.46319389 72.7124815 C108.86871331 72.69416897 112.27411913 72.69793025 115.6796875 72.69921875 C116.95689667 72.690009 118.23410583 72.68079926 119.55001831 72.67131042 C120.7412027 72.67753922 121.93238708 72.68376801 123.15966797 72.69018555 C124.20540985 72.68955612 125.25115173 72.6889267 126.32858276 72.6882782 C130.77621293 73.27045671 133.35862561 75.21060133 136.4375 78.375 C138.39523052 81.38151473 138.95017022 83.50255323 139.1875 87.0625 C138.8575 87.7225 138.5275 88.3825 138.1875 89.0625 C138.97153198 89.05361755 139.75556396 89.04473511 140.56335449 89.0355835 C147.97776443 88.95519921 155.39196095 88.89441535 162.80669403 88.85525131 C166.61806435 88.83443921 170.42907246 88.80624003 174.24023438 88.76074219 C177.92313664 88.71705421 181.60569208 88.69331501 185.28883362 88.68299103 C186.68898472 88.6756405 188.08911836 88.66128702 189.48912048 88.63957977 C197.47202033 88.52080605 203.42511973 88.59179251 210.1875 93.0625 C215.19613919 98.33475178 216.48320036 102.3963778 216.3125 109.56225586 C216.29361035 111.11717645 216.27524296 112.67210344 216.25732422 114.22703552 C216.24473572 115.04923521 216.23214722 115.8714349 216.21917725 116.71854973 C216.16494289 121.09944022 216.18500737 125.48019563 216.1953125 129.86132812 C216.20769192 135.42558248 216.19759598 140.98578439 216.08496094 146.54907227 C214.49387583 167.68460372 214.49387583 167.68460372 222.046875 186.25439453 C225.69591204 189.22571705 229.54649257 191.22082491 233.88183594 193.00588989 C239.23823205 195.46055029 244.90397592 199.47492128 247.57562256 204.84896851 C250.25676591 214.54828873 247.67922042 224.99234331 245.046875 234.3984375 C244.72342102 235.60263336 244.39996704 236.80682922 244.06671143 238.04751587 C243.38563477 240.5689316 242.69614319 243.08808839 241.99853516 245.60498047 C240.9357343 249.44387782 239.90149277 253.28901381 238.87109375 257.13671875 C238.20216818 259.59940639 237.53165028 262.06166217 236.859375 264.5234375 C236.39818268 266.23302139 236.39818268 266.23302139 235.92767334 267.97714233 C233.0260109 278.37802911 229.55117363 287.05457789 220.34375 293.31640625 C216.38754455 295.51339739 213.05455757 296.23099008 208.5625 296.6875 C205.22189316 297.21061701 203.7003645 297.46804342 201.46875 300.0546875 C200.50549757 301.77248766 199.58128155 303.51259796 198.69140625 305.26953125 C192.4556942 316.85013934 180.9655769 324.67173078 168.5625 328.40234375 C158.460214 330.3783696 147.17637935 330.64575657 138.1875 325.0625 C131.39105785 320.16384274 126.14965562 314.40166139 124.1875 306.0625 C124.1875 303.0925 124.1875 300.1225 124.1875 297.0625 C68.0875 297.0625 11.9875 297.0625 -45.8125 297.0625 C-46.4725 299.0425 -47.1325 301.0225 -47.8125 303.0625 C-49.87846631 306.28409918 -52.32781989 309.15522061 -54.8125 312.0625 C-55.3384375 312.68511719 -55.864375 313.30773437 -56.40625 313.94921875 C-64.49295903 322.76928129 -75.93563616 328.60671368 -87.86328125 329.375 C-98.06067882 329.78108605 -106.34559869 328.77361061 -114.625 322.3125 C-120.41996412 316.87288745 -123.43523422 310.82527077 -124.8125 303.0625 C-124.8390037 301.06267562 -124.84365769 299.06225728 -124.8125 297.0625 C-125.87162598 297.08344727 -126.93075195 297.10439453 -128.02197266 297.12597656 C-131.96909957 297.19863385 -135.91616792 297.24439254 -139.86376953 297.28222656 C-141.56894894 297.30228369 -143.27406006 297.32953657 -144.97900391 297.36425781 C-147.43669524 297.41303861 -149.89347366 297.43552719 -152.3515625 297.453125 C-153.10805084 297.47377014 -153.86453918 297.49441528 -154.64395142 297.51568604 C-159.82507494 297.51785923 -162.67652171 296.43775789 -166.8125 293.0625 C-169.89347098 289.46803386 -170.1151178 286.42518606 -170.04901123 281.77017212 C-169.57927852 276.39249021 -168.03367838 271.26247382 -166.6015625 266.07421875 C-166.27336517 264.85346146 -165.94516785 263.63270416 -165.60702515 262.37495422 C-164.91448707 259.80753082 -164.21792461 257.24167683 -163.51367188 254.67749023 C-162.61300217 251.39758118 -161.72611397 248.11414762 -160.84403419 244.82919598 C-159.99759324 241.6802871 -159.14334805 238.53350702 -158.2890625 235.38671875 C-157.81238632 233.62263924 -157.81238632 233.62263924 -157.32608032 231.82292175 C-157.0259201 230.73111099 -156.72575989 229.63930023 -156.41650391 228.5144043 C-156.15447174 227.5555986 -155.89243958 226.59679291 -155.62246704 225.6089325 C-153.736018 219.67817867 -153.736018 219.67817867 -150.9375 217.8125 C-148.8125 217.0625 -148.8125 217.0625 -144.8125 217.0625 C-144.1121047 214.3360685 -143.4269225 211.60726473 -142.75 208.875 C-142.55083984 208.10607422 -142.35167969 207.33714844 -142.14648438 206.54492188 C-140.67649201 200.78410549 -140.67649201 200.78410549 -141.8125 195.0625 C-143.51694706 193.27143621 -143.51694706 193.27143621 -145.75 191.8125 C-171.25221382 172.99807053 -185.59629312 145.74317117 -191.3984375 114.953125 C-194.95103226 81.57214023 -187.94490304 49.47997901 -167.09765625 22.83984375 C-126.59438426 -26.3872099 -52.25825861 -40.1927148 0 0 Z " fill="#E4636D" transform="translate(263.8125,102.9375)"/>
<path d="M0 0 C1.31282959 -0.00004028 2.62565918 -0.00008057 3.97827148 -0.00012207 C6.75244709 0.0015283 9.52581179 0.02017131 12.29980469 0.05175781 C15.84743625 0.09143594 19.39400688 0.09580162 22.94181824 0.08829498 C26.33634034 0.08447925 29.73053029 0.10531437 33.125 0.125 C35.03140259 0.12530212 35.03140259 0.12530212 36.97631836 0.12561035 C38.16104736 0.14152222 39.34577637 0.15743408 40.56640625 0.17382812 C42.12597046 0.18645691 42.12597046 0.18645691 43.71704102 0.19934082 C48.14625174 0.81327389 50.7413076 2.7497467 53.8125 5.90625 C55.77023052 8.91276473 56.32517022 11.03380323 56.5625 14.59375 C56.2325 15.25375 55.9025 15.91375 55.5625 16.59375 C56.73854797 16.58042633 56.73854797 16.58042633 57.93835449 16.5668335 C65.35276443 16.48644921 72.76696095 16.42566535 80.18169403 16.38650131 C83.99306435 16.36568921 87.80407246 16.33749003 91.61523438 16.29199219 C95.29813664 16.24830421 98.98069208 16.22456501 102.66383362 16.21424103 C104.06398472 16.2068905 105.46411836 16.19253702 106.86412048 16.17082977 C114.84702033 16.05205605 120.80011973 16.12304251 127.5625 20.59375 C132.57113919 25.86600178 133.85820036 29.9276278 133.6875 37.09350586 C133.66861035 38.64842645 133.65024296 40.20335344 133.63232422 41.75828552 C133.61973572 42.58048521 133.60714722 43.4026849 133.59417725 44.24979973 C133.53994289 48.63069022 133.56000737 53.01144563 133.5703125 57.39257812 C133.58269192 62.95683248 133.57259598 68.51703439 133.45996094 74.08032227 C131.86887583 95.21585372 131.86887583 95.21585372 139.421875 113.78564453 C143.07091204 116.75696705 146.92149257 118.75207491 151.25683594 120.53713989 C156.61323205 122.99180029 162.27897592 127.00617128 164.95062256 132.38021851 C167.63176591 142.07953873 165.05422042 152.52359331 162.421875 161.9296875 C162.09842102 163.13388336 161.77496704 164.33807922 161.44171143 165.57876587 C160.76063477 168.1001816 160.07114319 170.61933839 159.37353516 173.13623047 C158.3107343 176.97512782 157.27649277 180.82026381 156.24609375 184.66796875 C155.57716818 187.13065639 154.90665028 189.59291217 154.234375 192.0546875 C153.92691345 193.1944101 153.6194519 194.33413269 153.30267334 195.50839233 C150.4010109 205.90927911 146.92617363 214.58582789 137.71875 220.84765625 C133.76254455 223.04464739 130.42955757 223.76224008 125.9375 224.21875 C122.59689316 224.74186701 121.0753645 224.99929342 118.84375 227.5859375 C117.88049757 229.30373766 116.95628155 231.04384796 116.06640625 232.80078125 C109.8306942 244.38138934 98.3405769 252.20298078 85.9375 255.93359375 C75.835214 257.9096196 64.55137935 258.17700657 55.5625 252.59375 C48.76605785 247.69509274 43.52465562 241.93291139 41.5625 233.59375 C41.5625 230.62375 41.5625 227.65375 41.5625 224.59375 C-14.5375 224.59375 -70.6375 224.59375 -128.4375 224.59375 C-129.4275 227.56375 -129.4275 227.56375 -130.4375 230.59375 C-132.50346631 233.81534918 -134.95281989 236.68647061 -137.4375 239.59375 C-137.9634375 240.21636719 -138.489375 240.83898437 -139.03125 241.48046875 C-147.11795903 250.30053129 -158.56063616 256.13796368 -170.48828125 256.90625 C-180.68567882 257.31233605 -188.97059869 256.30486061 -197.25 249.84375 C-203.04496412 244.40413745 -206.06023422 238.35652077 -207.4375 230.59375 C-207.4640037 228.59392562 -207.46865769 226.59350728 -207.4375 224.59375 C-208.49662598 224.61469727 -209.55575195 224.63564453 -210.64697266 224.65722656 C-214.59409957 224.72988385 -218.54116792 224.77564254 -222.48876953 224.81347656 C-224.19394894 224.83353369 -225.89906006 224.86078657 -227.60400391 224.89550781 C-230.06169524 224.94428861 -232.51847366 224.96677719 -234.9765625 224.984375 C-235.73305084 225.00502014 -236.48953918 225.02566528 -237.26895142 225.04693604 C-242.45007494 225.04910923 -245.30152171 223.96900789 -249.4375 220.59375 C-252.51847098 216.99928386 -252.7401178 213.95643606 -252.67401123 209.30142212 C-252.20427852 203.92374021 -250.65867838 198.79372382 -249.2265625 193.60546875 C-248.89836517 192.38471146 -248.57016785 191.16395416 -248.23202515 189.90620422 C-247.53948707 187.33878082 -246.84292461 184.77292683 -246.13867188 182.20874023 C-245.23800217 178.92883118 -244.35111397 175.64539762 -243.46903419 172.36044598 C-242.62259324 169.2115371 -241.76834805 166.06475702 -240.9140625 162.91796875 C-240.59627838 161.74191574 -240.27849426 160.56586273 -239.95108032 159.35417175 C-239.50084 157.71645561 -239.50084 157.71645561 -239.04150391 156.0456543 C-238.77947174 155.0868486 -238.51743958 154.12804291 -238.24746704 153.1401825 C-236.39316669 147.31050002 -236.39316669 147.31050002 -233.6875 145.28125 C-230.51107864 144.31067681 -228.60148262 144.60500543 -225.4375 145.59375 C-223 147.71875 -223 147.71875 -221.4375 150.59375 C-221.92586621 157.36637568 -223.90825865 163.9679792 -225.5625 170.53125 C-226.02184937 172.36381348 -226.02184937 172.36381348 -226.49047852 174.23339844 C-229.50544422 186.11514259 -232.92838303 197.84895033 -236.4375 209.59375 C-225.5475 209.59375 -214.6575 209.59375 -203.4375 209.59375 C-202.4475 206.62375 -202.4475 206.62375 -201.4375 203.59375 C-199.3713407 200.37184989 -196.91895051 197.50409319 -194.4375 194.59375 C-193.93476563 193.98273438 -193.43203125 193.37171875 -192.9140625 192.7421875 C-189.29698534 188.72117279 -185.09277187 185.97872584 -180.4375 183.28125 C-179.85605225 182.94343506 -179.27460449 182.60562012 -178.67553711 182.25756836 C-168.83097095 176.79389637 -157.33858905 175.90210658 -146.390625 178.24609375 C-138.29554818 181.1749026 -132.40693567 186.18615609 -128.5 193.84375 C-125.8154571 199.70424366 -125.4375 202.65089382 -125.4375 209.59375 C-87.8175 209.59375 -50.1975 209.59375 -11.4375 209.59375 C-10.7775 205.96375 -10.1175 202.33375 -9.4375 198.59375 C-8.73432951 196.01800593 -7.98616805 193.45400109 -7.1875 190.90625 C-5.03028407 183.85631241 -3.1901114 176.75432306 -1.4375 169.59375 C0.23042713 162.7936581 1.95215786 156.03965488 4 149.34375 C6.29550156 141.82710763 8.18500805 134.22439218 10.0625 126.59375 C12.10313505 118.30004954 14.22092346 110.06957923 16.71875 101.90234375 C18.85578958 94.82078123 20.57026122 87.63823235 22.33227539 80.45605469 C23.94056175 73.94865683 25.71202044 67.52502814 27.66577148 61.11425781 C29.52968111 54.9086665 31.08081856 48.635504 32.625 42.34375 C37.87678846 20.96517308 37.87678846 20.96517308 40.5625 15.59375 C39.89486633 15.60263245 39.22723267 15.61151489 38.53936768 15.6206665 C31.59664462 15.70909473 24.65408129 15.76946576 17.7109375 15.81347656 C15.11907454 15.83360375 12.52725704 15.86090816 9.93554688 15.89550781 C6.21212551 15.94397501 2.48930401 15.96670816 -1.234375 15.984375 C-2.97518341 16.01534271 -2.97518341 16.01534271 -4.75115967 16.04693604 C-5.83197815 16.04723816 -6.91279663 16.04754028 -8.02636719 16.04785156 C-9.45199982 16.06117523 -9.45199982 16.06117523 -10.90643311 16.07476807 C-14.20636715 15.4476302 -15.3626564 14.18124082 -17.4375 11.59375 C-18.5 8.65625 -18.5 8.65625 -18.4375 5.59375 C-14.1083067 -1.31161818 -7.45417546 -0.09616004 0 0 Z " fill="#020101" transform="translate(346.4375,175.40625)"/>
<path d="M0 0 C-1.875 3.875 -1.875 3.875 -3 5 C-3.17858965 7.09916026 -3.26798477 9.20622688 -3.3125 11.3125 C-3.34988281 12.46363281 -3.38726562 13.61476563 -3.42578125 14.80078125 C-3.26057827 18.06991159 -3.26057827 18.06991159 -1.171875 20.390625 C0.96825992 22.24325549 0.96825992 22.24325549 4.0625 22.4375 C6.90853159 22.2173797 6.90853159 22.2173797 8.66796875 20.9375 C10.6938845 17.99071346 10.35556046 15.00311121 10.25 11.5625 C10.22679687 9.58443359 10.22679687 9.58443359 10.203125 7.56640625 C10.04737332 4.83176615 9.82056239 2.58741849 9 0 C28.32926868 -0.51259939 47.65529978 8.35523991 62 21 C63.87565339 22.93526102 65.42565432 24.80716137 67 27 C66.278125 26.67 65.55625 26.34 64.8125 26 C61.83990734 24.94307817 60.11985139 24.63244887 57 25 C54.74667551 26.59733289 54.74667551 26.59733289 52.70385742 28.88720703 C51.88918503 29.734534 51.07451263 30.58186096 50.2351532 31.4548645 C49.36735733 32.37983734 48.49956146 33.30481018 47.60546875 34.2578125 C46.22102282 35.68930081 44.83654665 37.12076129 43.45031452 38.55051994 C40.03492618 42.0806294 36.64695779 45.6366706 33.27319336 49.20654297 C31.37835317 51.20945009 29.47068595 53.19840394 27.54768372 55.17428589 C25.73736791 57.03639434 23.94782067 58.91896424 22.1816864 60.82302856 C16.19144651 66.93606203 16.19144651 66.93606203 12.74917603 67.12078857 C10.63012695 66.58935547 10.63012695 66.58935547 7 65 C-0.1296695 64.19503731 -5.01309261 66.07754344 -11 70 C-15.05793653 73.51687832 -17.3420266 77.93881803 -19 83 C-19.23095251 86.57976384 -19.34695544 89.60973489 -18.47998047 93.08374023 C-17.92194177 95.55748837 -17.70450736 97.47270553 -18 100 C-20.14669048 103.26039829 -22.93068082 105.65142676 -25.875 108.1875 C-31.61695364 112.96264495 -31.61695364 112.96264495 -35.0703125 119.33984375 C-35.1607606 122.02058182 -35.1607606 122.02058182 -34 124.375 C-31.99804367 126.25215321 -31.99804367 126.25215321 -28.8125 126.6875 C-22.31183595 125.51524911 -18.83592186 120.93284082 -14.41015625 116.2734375 C-13.09337891 114.90058594 -13.09337891 114.90058594 -11.75 113.5 C-10.94046875 112.6234375 -10.1309375 111.746875 -9.296875 110.84375 C-7 109 -7 109 -5.125 109.1953125 C-4.42375 109.46085937 -3.7225 109.72640625 -3 110 C4.45267643 110.64247211 11.2039563 111.16957372 17.38671875 106.49609375 C21.94331406 102.27048599 25.78567129 98.08052106 26.23046875 91.6875 C26.21628906 90.470625 26.20210938 89.25375 26.1875 88 C26.18105469 86.783125 26.17460937 85.56625 26.16796875 84.3125 C26.17567582 81.16999305 26.17567582 81.16999305 25.26908875 79.04191589 C25 77 25 77 26.38484192 75.06098938 C27.09162582 74.38642197 27.79840973 73.71185455 28.52661133 73.0168457 C29.32106155 72.24536697 30.11551178 71.47388824 30.93403625 70.67903137 C31.8078746 69.85295883 32.68171295 69.02688629 33.58203125 68.17578125 C35.39931922 66.40713803 37.21636895 64.63825 39.03320312 62.86914062 C41.91800429 60.08981216 44.80821569 57.31659405 47.7043457 54.54907227 C50.49114505 51.87724658 53.2559503 49.18408563 56.01953125 46.48828125 C56.88729691 45.67232986 57.75506256 44.85637848 58.64912415 44.01570129 C63.91848846 38.85558526 66.17097555 35.38279262 67 28 C77.36069168 32.75175364 83.08407881 46.87225487 87 57 C90.36563106 66.36034171 91.69901042 75.09744267 92 85 C91.2575 84.34 90.515 83.68 89.75 83 C85.10491521 79.87734731 79.36216066 80.17103087 74 81 C71.62477186 82.1812785 71.62477186 82.1812785 70 84 C69.53086911 88.37855495 69.53056471 90.29584707 72 94 C74.53736271 94.3062852 76.77916926 94.41846993 79.3125 94.375 C80.62863281 94.38273437 81.94476563 94.39046875 83.30078125 94.3984375 C87.06929345 93.9925365 88.97694945 93.21027681 92 91 C93.22552068 111.42534472 83.08332659 131.63458726 70.05664062 146.78735352 C54.75057989 163.83745363 34.60137241 173.6798108 12 176 C10.33358499 176.02896176 8.66616929 176.04071466 7 176 C7.48726563 175.32195312 7.97453125 174.64390625 8.4765625 173.9453125 C10.32883818 170.36424619 10.40056449 167.88862515 10.375 163.875 C10.38273437 162.65554688 10.39046875 161.43609375 10.3984375 160.1796875 C10.25427783 157.05898124 10.25427783 157.05898124 8.6953125 155.09765625 C5.79181859 153.21774429 3.33491542 153.58313557 0 154 C-2.27117876 156.22921703 -2.94536941 157.64662378 -3.43359375 160.8046875 C-3.44170091 167.17691421 -3.30625648 171.15546145 1 176 C-23.06668307 174.87430031 -43.01909393 165.95678546 -60 149 C-61.11375 147.90365234 -61.11375 147.90365234 -62.25 146.78515625 C-74.78701639 133.63598086 -84.13603129 113.43315595 -84.1875 95.1875 C-84.14087754 93.79104617 -84.08500087 92.39464397 -84 91 C-83.49597656 91.48726563 -82.99195312 91.97453125 -82.47265625 92.4765625 C-79.05198328 94.58408613 -76.42674519 94.39839733 -72.4375 94.375 C-71.42913086 94.39240234 -71.42913086 94.39240234 -70.40039062 94.41015625 C-67.50144228 94.39288347 -65.48388023 94.33461879 -63.0625 92.66015625 C-61.36068026 90.00106291 -61.56112418 88.07213073 -62 85 C-64.23448681 82.00988963 -65.4009977 81.0949729 -69.12890625 80.50390625 C-70.26199219 80.52324219 -71.39507812 80.54257813 -72.5625 80.5625 C-73.69816406 80.56378906 -74.83382812 80.56507813 -76.00390625 80.56640625 C-79.26015687 81.03764982 -79.97027272 81.55524861 -82 84 C-82.66 84 -83.32 84 -84 84 C-83.93086614 60.56362197 -74.2570113 41.45406598 -58 25 C-57.41734375 24.34515625 -56.8346875 23.6903125 -56.234375 23.015625 C-42.57443731 7.97589563 -19.98822263 -0.4164213 0 0 Z " fill="#FDFDFD" transform="translate(188,112)"/>
<path d="M0 0 C2.4046182 1.90882063 4.75258628 3.86524593 7.08984375 5.85546875 C7.940625 6.52320312 8.79140625 7.1909375 9.66796875 7.87890625 C22.30525727 18.1925643 31.23831176 33.85656175 37.08984375 48.85546875 C37.36231934 49.55140137 37.63479492 50.24733398 37.91552734 50.96435547 C45.82804342 72.33359896 44.71104791 100.30136457 36.46484375 121.29296875 C36.11292969 122.19893799 35.76101563 123.10490723 35.3984375 124.03833008 C24.84098179 150.38265741 3.98831138 170.53731556 -21.77490234 181.98291016 C-44.71635204 191.35779481 -74.61286432 192.97695999 -97.91015625 183.85546875 C-98.63831543 183.5713916 -99.36647461 183.28731445 -100.11669922 182.99462891 C-110.73900812 178.69772912 -119.92108943 172.91165333 -128.91015625 165.85546875 C-129.6784375 165.25992188 -130.44671875 164.664375 -131.23828125 164.05078125 C-136.94014302 159.35909184 -141.42398528 153.68830226 -145.91015625 147.85546875 C-146.53019531 147.06269531 -147.15023437 146.26992188 -147.7890625 145.453125 C-152.99829772 138.44920919 -156.48984889 130.83902908 -159.91015625 122.85546875 C-160.31363281 121.91703125 -160.71710938 120.97859375 -161.1328125 120.01171875 C-170.79033355 95.62923214 -169.01601353 67.8682003 -159.16015625 43.91796875 C-155.86322239 36.32018505 -151.94259441 29.45695607 -146.91015625 22.85546875 C-146.21148437 21.92476562 -145.5128125 20.9940625 -144.79296875 20.03515625 C-110.06770835 -24.3291444 -45.42397492 -33.47350635 0 0 Z M-119.91015625 17.85546875 C-120.88855469 18.74105469 -121.86695313 19.62664062 -122.875 20.5390625 C-133.58709077 30.56015991 -140.96820417 41.98298121 -145.91015625 55.85546875 C-146.21695313 56.66113281 -146.52375 57.46679688 -146.83984375 58.296875 C-149.38228596 65.64574367 -149.61208928 73.14684014 -149.91015625 80.85546875 C-147.21960345 79.63538931 -147.21960345 79.63538931 -144.91015625 77.85546875 C-142.81099599 77.6768791 -140.70392937 77.58748398 -138.59765625 77.54296875 C-137.44652344 77.50558594 -136.29539062 77.46820313 -135.109375 77.4296875 C-131.91015625 77.85546875 -131.91015625 77.85546875 -129.51953125 79.68359375 C-127.91015625 81.85546875 -127.91015625 81.85546875 -127.47265625 84.91796875 C-127.91015625 87.85546875 -127.91015625 87.85546875 -128.97265625 89.515625 C-131.91594492 91.55100406 -134.9001295 91.28996586 -138.34765625 91.23046875 C-139.66636719 91.23820312 -140.98507813 91.2459375 -142.34375 91.25390625 C-145.95421435 90.8505466 -147.34479689 90.33553483 -149.91015625 87.85546875 C-151.41739951 106.24383653 -142.99603245 124.96704259 -131.97265625 139.29296875 C-130.64247728 140.83482649 -129.28780875 142.35587714 -127.91015625 143.85546875 C-126.80607422 145.09683594 -126.80607422 145.09683594 -125.6796875 146.36328125 C-111.30534463 161.6990402 -91.64388403 170.44786375 -70.91015625 172.85546875 C-68.91038471 172.88569785 -66.90978653 172.89392318 -64.91015625 172.85546875 C-65.90015625 171.74171875 -65.90015625 171.74171875 -66.91015625 170.60546875 C-70.03280894 165.96038396 -69.73912538 160.21762941 -68.91015625 154.85546875 C-67.6015625 152.515625 -67.6015625 152.515625 -65.91015625 150.85546875 C-60.04289301 150.12206085 -60.04289301 150.12206085 -57.21484375 151.953125 C-55.23957029 154.83323929 -55.51327341 157.28027492 -55.53515625 160.73046875 C-55.52355469 162.55191406 -55.52355469 162.55191406 -55.51171875 164.41015625 C-55.92956756 168.02331947 -56.80931388 169.93207434 -58.91015625 172.85546875 C-39.48028613 171.94665224 -21.98966037 166.38665357 -6.91015625 153.85546875 C-6.04777344 153.14390625 -5.18539062 152.43234375 -4.296875 151.69921875 C12.10522831 137.56204928 23.73547453 117.59073243 26.08984375 95.85546875 C26.2140413 93.16166663 26.19165865 90.55356363 26.08984375 87.85546875 C25.42339844 88.34273438 24.75695312 88.83 24.0703125 89.33203125 C20.32349347 91.24718121 17.59295322 91.25509525 13.40234375 91.23046875 C12.72623047 91.24207031 12.05011719 91.25367188 11.35351562 91.265625 C9.390625 91.25390625 9.390625 91.25390625 6.08984375 90.85546875 C3.62040846 87.15131582 3.62071286 85.2340237 4.08984375 80.85546875 C6.31623534 78.58181885 7.73719382 77.90998705 10.89453125 77.421875 C17.26675796 77.41376784 21.2453052 77.54921227 26.08984375 81.85546875 C25.73612419 61.5648284 18.73697739 40.47012537 4.08984375 25.85546875 C3.09984375 25.52546875 2.10984375 25.19546875 1.08984375 24.85546875 C0.872677 26.78942505 0.872677 26.78942505 0.65112305 28.76245117 C-0.82089571 35.29790827 -5.14964034 38.88584944 -9.890625 43.34375 C-11.22170036 44.64218086 -11.22170036 44.64218086 -12.57966614 45.96684265 C-15.40276714 48.71791682 -18.2477869 51.44465333 -21.09765625 54.16796875 C-23.95760822 56.90941077 -26.80940949 59.65883998 -29.64778137 62.4226532 C-31.41163344 64.13929088 -33.18751731 65.84366616 -34.97612 67.53450012 C-35.77057022 68.30597885 -36.56502045 69.07745758 -37.38354492 69.87231445 C-38.09032883 70.54688187 -38.79711273 71.22144928 -39.52531433 71.91645813 C-41.1608414 73.7419577 -41.1608414 73.7419577 -40.6476593 75.90617371 C-40.40428329 76.54944107 -40.16090729 77.19270844 -39.91015625 77.85546875 C-39.26768414 85.30814518 -38.74058253 92.05942505 -43.4140625 98.2421875 C-47.63967026 102.79878281 -51.82963519 106.64114004 -58.22265625 107.0859375 C-60.04796875 107.06466797 -60.04796875 107.06466797 -61.91015625 107.04296875 C-63.12703125 107.03652344 -64.34390625 107.03007812 -65.59765625 107.0234375 C-68.91015625 106.85546875 -68.91015625 106.85546875 -70.87841797 106.13452148 C-73.01386007 105.60536548 -73.01386007 105.60536548 -74.80126953 107.19482422 C-75.43790527 107.86400879 -76.07454102 108.53319336 -76.73046875 109.22265625 C-77.43042969 109.94324219 -78.13039063 110.66382813 -78.8515625 111.40625 C-79.57214844 112.17324219 -80.29273438 112.94023437 -81.03515625 113.73046875 C-82.47332285 115.22972561 -83.91333806 116.72721204 -85.35546875 118.22265625 C-85.98984863 118.89409668 -86.62422852 119.56553711 -87.27783203 120.25732422 C-89.73559258 122.66362104 -90.82680485 122.84789135 -94.34765625 123.16796875 C-97.91015625 122.85546875 -97.91015625 122.85546875 -99.91015625 121.23046875 C-101.34224831 117.8292501 -101.0549213 116.39421327 -99.91015625 112.85546875 C-98.08563702 110.90642414 -96.11600043 109.23018469 -94.08129883 107.50244141 C-87.32503681 102.03945726 -87.32503681 102.03945726 -83.33544922 94.61669922 C-83.19308079 90.8947817 -83.81112828 87.37770287 -84.42578125 83.71875 C-85.04708998 78.76331182 -84.13304568 76.0653186 -81.5703125 71.875 C-77.79534266 67.28286022 -72.74634822 63.31451674 -66.91015625 61.85546875 C-62.20997145 61.54725991 -59.733965 61.48754478 -55.37060547 63.4362793 C-53.20800198 64.08372421 -53.20800198 64.08372421 -50.91015625 63.85546875 C-47.09755701 61.4236366 -44.23104269 58.14458633 -41.1875 54.828125 C-39.80591911 53.39594002 -38.42431574 51.96377594 -37.04139805 50.53288174 C-34.62189941 48.01490259 -32.2371394 45.46438638 -29.84765625 42.91796875 C-26.99280265 39.88354048 -24.13055596 36.85725234 -21.23744202 33.85923767 C-19.43883818 31.99087566 -17.65942019 30.10381589 -15.90159607 28.19703674 C-13.65681733 25.86163921 -11.5513238 23.73097271 -8.91015625 21.85546875 C-4.99829102 21.78295898 -4.99829102 21.78295898 -1.91015625 22.85546875 C-0.92015625 22.85546875 0.06984375 22.85546875 1.08984375 22.85546875 C-11.51293602 8.75235805 -32.51689379 -2.05330047 -51.4921875 -3.31640625 C-53.29904126 -3.32906372 -55.10637619 -3.25063596 -56.91015625 -3.14453125 C-56.7503125 -2.64050781 -56.59046875 -2.13648437 -56.42578125 -1.6171875 C-55.72417546 1.74733117 -55.70044741 4.98314698 -55.66015625 8.41796875 C-55.63953125 9.09021484 -55.61890625 9.76246094 -55.59765625 10.45507812 C-55.57457324 13.36065162 -55.56762999 15.35724873 -57.2421875 17.79296875 C-59.90717412 19.49057147 -61.83413599 19.29490022 -64.91015625 18.85546875 C-67.90026662 16.62098194 -68.81518335 15.45447105 -69.40625 11.7265625 C-69.37724609 10.02693359 -69.37724609 10.02693359 -69.34765625 8.29296875 C-69.34636719 7.15730469 -69.34507812 6.02164063 -69.34375 4.8515625 C-68.87250643 1.59531188 -68.35490764 0.88519603 -65.91015625 -1.14453125 C-65.91015625 -1.80453125 -65.91015625 -2.46453125 -65.91015625 -3.14453125 C-85.3803408 -4.00987279 -105.71124594 4.90090739 -119.91015625 17.85546875 Z " fill="#E9E7E9" transform="translate(253.91015625,115.14453125)"/>
<path d="M0 0 C2.08777208 1.65990612 4.13728938 3.35533115 6.1875 5.0625 C7.06019531 5.77019531 7.93289063 6.47789063 8.83203125 7.20703125 C22.38749493 18.71316499 32.38695419 34.12241873 39.4375 50.3125 C39.75485107 51.02559326 40.07220215 51.73868652 40.39916992 52.47338867 C46.21406089 66.43065521 47.91854535 80.40313573 47.75 95.375 C47.74607239 96.18132874 47.74214478 96.98765747 47.73809814 97.81842041 C47.65133253 110.48024906 46.57468078 122.08951661 42.1875 134.0625 C41.96288086 134.72217773 41.73826172 135.38185547 41.50683594 136.06152344 C31.09406776 166.51167083 8.8010982 190.80290504 -19.79296875 205.2109375 C-24.03049407 207.23360758 -28.36872512 208.866001 -32.8125 210.375 C-33.48692139 210.60533936 -34.16134277 210.83567871 -34.85620117 211.07299805 C-46.69649257 214.85772462 -58.39152512 216.57059882 -70.79199219 216.45361328 C-72.81253481 216.43749972 -74.83107874 216.45359508 -76.8515625 216.47265625 C-106.80625874 216.52344575 -136.37432833 202.66449936 -157.8125 182.0625 C-181.61919728 157.92162265 -192.09187809 126.84804419 -192.12939453 93.39379883 C-191.79384683 60.12693727 -177.01544189 31.34667921 -153.7734375 8.015625 C-112.67113308 -30.46967876 -44.75360245 -34.42075621 0 0 Z M-138.8125 16.0625 C-139.81152344 16.88492188 -140.81054688 17.70734375 -141.83984375 18.5546875 C-161.52888394 35.35014083 -173.33541305 59.59197313 -176.8125 85.0625 C-179.05431848 115.40978331 -170.58840476 142.83827571 -150.8125 166.0625 C-150.14476562 166.91328125 -149.47703125 167.7640625 -148.7890625 168.640625 C-138.47540445 181.27791352 -122.811407 190.21096801 -107.8125 196.0625 C-107.11656738 196.33497559 -106.42063477 196.60745117 -105.70361328 196.88818359 C-84.81786868 204.62167168 -57.07298059 203.80643756 -36.4375 195.9375 C-35.62732422 195.63183105 -34.81714844 195.32616211 -33.98242188 195.01123047 C-6.8516843 184.4383799 13.47647134 163.55103616 25.1875 137.0625 C34.68389221 114.01422713 36.39424879 84.57754909 27.1875 61.0625 C26.90342285 60.33434082 26.6193457 59.60618164 26.32666016 58.85595703 C22.02976037 48.23364813 16.24368458 39.05156682 9.1875 30.0625 C8.29417969 28.91007812 8.29417969 28.91007812 7.3828125 27.734375 C2.69112309 22.03251323 -2.97966649 17.54867097 -8.8125 13.0625 C-9.60527344 12.44246094 -10.39804688 11.82242188 -11.21484375 11.18359375 C-18.21875956 5.97435853 -25.82893967 2.48280736 -33.8125 -0.9375 C-34.7509375 -1.34097656 -35.689375 -1.74445313 -36.65625 -2.16015625 C-70.91229507 -15.72843916 -110.91736005 -7.04106464 -138.8125 16.0625 Z " fill="#020202" transform="translate(263.8125,102.9375)"/>
<path d="M0 0 C1.27156952 -0.00960754 2.54313904 -0.01921509 3.85324097 -0.02911377 C5.25258201 -0.03396137 6.65192512 -0.03824029 8.05126953 -0.04199219 C9.47754927 -0.04774141 10.90382897 -0.05349916 12.33010864 -0.05926514 C15.32456829 -0.06978449 18.31900102 -0.07562089 21.31347656 -0.07910156 C25.15274261 -0.08458565 28.99165387 -0.10860746 32.83080864 -0.13707352 C35.77846315 -0.1556881 38.72603206 -0.16090487 41.67374039 -0.16243744 C43.08915266 -0.16546764 44.5045633 -0.17350859 45.91991806 -0.18662262 C47.89966589 -0.20365511 49.87955936 -0.19996212 51.859375 -0.1953125 C52.98665009 -0.19895813 54.11392517 -0.20260376 55.27536011 -0.20635986 C58.05908203 0.16113281 58.05908203 0.16113281 59.92825317 1.47369385 C61.80854814 4.27949684 61.33744945 7.04711656 61.24658203 10.34863281 C61.20597656 12.25708984 61.20597656 12.25708984 61.16455078 14.20410156 C61.12974609 15.17992187 61.09494141 16.15574219 61.05908203 17.16113281 C59.42664551 17.15944092 59.42664551 17.15944092 57.76123047 17.15771484 C53.66794558 17.16142574 49.5758116 17.20457845 45.48291016 17.25878906 C43.72191861 17.27679774 41.96078757 17.28454544 40.19970703 17.28125 C27.49289054 17.26681044 18.35095372 18.26557698 8.12158203 26.53613281 C2.94096458 33.12964593 0.15994306 39.08794172 -1.62841797 47.28613281 C-2.02608838 49.01837997 -2.42577934 50.75016469 -2.82763672 52.48144531 C-3.01302002 53.29371582 -3.19840332 54.10598633 -3.3894043 54.94287109 C-3.94091797 57.16113281 -3.94091797 57.16113281 -5.05810547 60.41113281 C-6.82378577 65.91130508 -7.08608548 72.12373571 -5.03076172 77.57519531 C-2.2063693 82.42479516 1.43521214 85.97912373 6.89463806 87.75984192 C9.52859365 88.24818091 11.94877396 88.2170822 14.62768555 88.14428711 C20.24602153 88.01761586 25.86139286 87.94193107 31.48111057 87.90904522 C34.86855771 87.88539111 38.25195866 87.83741902 41.63793945 87.73266602 C58.59254142 87.26914093 70.41926983 88.02839634 83.38696289 99.65649414 C84.00989227 100.25499176 84.63282166 100.85348938 85.27462769 101.47012329 C86.95915024 103.06643406 88.70285728 104.48319065 90.53393555 105.90600586 C93.05908203 108.16113281 93.05908203 108.16113281 93.43408203 111.47363281 C93.24845703 112.80394531 93.24845703 112.80394531 93.05908203 114.16113281 C92.08326172 114.21011719 91.10744141 114.25910156 90.10205078 114.30957031 C88.19359375 114.42171875 88.19359375 114.42171875 86.24658203 114.53613281 C84.34972656 114.64054687 84.34972656 114.64054687 82.41455078 114.74707031 C78.93152969 114.92216221 78.93152969 114.92216221 76.05908203 117.16113281 C75.32978713 122.51532254 75.32978713 122.51532254 77.55908203 127.09863281 C81.06547049 128.58884791 84.26272147 128.84476943 88.05908203 129.16113281 C87.05594509 136.54629614 85.17219191 143.63662433 83.12158203 150.78613281 C82.86876465 151.66809326 82.61594727 152.55005371 82.35546875 153.45874023 C81.12568662 157.68567261 79.85523572 161.89985489 78.52001953 166.09472656 C78.29749512 166.79654053 78.0749707 167.49835449 77.84570312 168.22143555 C76.21745286 172.23647228 73.58031756 175.17680394 69.93408203 177.53613281 C68.05908203 178.16113281 68.05908203 178.16113281 65.05908203 178.16113281 C64.98431641 177.32710937 64.90955078 176.49308594 64.83251953 175.63378906 C63.70243979 165.961636 61.07104549 160.26427726 54.30908203 153.34863281 C44.86715594 146.99349025 35.22450471 145.72899458 24.05908203 147.16113281 C11.3670626 150.15154347 0.856769 157.86818602 -6.94091797 168.16113281 C-8.59091797 171.46113281 -10.24091797 174.76113281 -11.94091797 178.16113281 C-25.47091797 178.16113281 -39.00091797 178.16113281 -52.94091797 178.16113281 C-52.26767809 172.10197388 -51.56222623 167.17930243 -49.75341797 161.53613281 C-47.54734544 154.43475458 -45.62163805 147.27508282 -43.76513672 140.07519531 C-43.49165405 139.02050049 -43.21817139 137.96580566 -42.93640137 136.87915039 C-42.2696525 134.30688429 -41.60452328 131.73421135 -40.94091797 129.16113281 C-39.78468933 129.15526657 -38.62846069 129.14940033 -37.43719482 129.14335632 C-26.54835615 129.08617854 -15.65971813 129.01344282 -4.77108383 128.9254179 C0.82707535 128.88066334 6.42516089 128.84141838 12.0234375 128.81469727 C17.42465954 128.78871513 22.82559898 128.74834872 28.22664642 128.69794655 C30.28870889 128.68124338 32.35082028 128.66975064 34.41294098 128.66351891 C37.29822008 128.65391538 40.18277053 128.62590096 43.06787109 128.59350586 C43.92310867 128.59494095 44.77834625 128.59637604 45.65950012 128.59785461 C49.19581709 128.54158809 51.45726814 128.49491551 54.59002686 126.75740051 C56.42163712 124.76718235 56.57163247 123.77543189 56.49658203 121.09863281 C56.28001953 119.14957031 56.28001953 119.14957031 56.05908203 117.16113281 C52.20792442 114.5936944 49.01633001 114.85403438 44.54858398 114.84228516 C43.68007813 114.83223953 42.81157227 114.82219391 41.91674805 114.81184387 C39.04362658 114.78093237 36.17059862 114.76395462 33.29736328 114.74707031 C31.30624075 114.72836507 29.3151262 114.70879215 27.32402039 114.68838501 C22.08141782 114.63698978 16.83878954 114.59740362 11.59606934 114.5602417 C6.24708658 114.52024836 0.89821149 114.46913474 -4.45068359 114.41894531 C-14.94735283 114.32209852 -25.44408275 114.23772176 -35.94091797 114.16113281 C-33.91855577 101.48512252 -33.91855577 101.48512252 -32.46044922 96.21582031 C-32.1870874 95.21526611 -31.91372559 94.21471191 -31.63208008 93.18383789 C-31.34212158 92.14509521 -31.05216309 91.10635254 -30.75341797 90.03613281 C-30.12568807 87.74580269 -29.49808761 85.45543708 -28.87060547 83.16503906 C-28.5505957 82.00504395 -28.23058594 80.84504883 -27.90087891 79.64990234 C-26.37286603 74.09667142 -24.87520807 68.53534578 -23.37841797 62.97363281 C-23.08894287 61.90105225 -22.79946777 60.82847168 -22.5012207 59.72338867 C-20.56286112 52.52602371 -18.67908633 45.3157748 -16.81591797 38.09863281 C-14.87623559 30.58581468 -12.80232854 23.13058194 -10.5625 15.7019043 C-9.46645287 12.0434277 -8.48714675 8.39638254 -7.69091797 4.66113281 C-6.51546371 -0.82432039 -5.30034773 0.03215005 0 0 Z " fill="#F5A35B" transform="translate(403.94091796875,206.8388671875)"/>
<path d="M0 0 C5.61 0 11.22 0 17 0 C24.56467023 22.6940107 12.03906253 56.13109832 2 76.5 C-15.90157353 111.45048816 -44.58978677 135.67510196 -81.69921875 148.25390625 C-105.8803074 155.59217615 -136.30206533 156.83120841 -160 147 C-163.54230809 146.41657647 -163.54230809 146.41657647 -167 147 C-171.27393238 151.07002339 -172.33921574 155.7094621 -173.6875 161.25 C-173.89955078 162.05824219 -174.11160156 162.86648438 -174.33007812 163.69921875 C-177.27012889 173.26462405 -177.27012889 173.26462405 -175.578125 182.515625 C-172.04583419 184.5493682 -168.72672903 184.67271375 -164.75 184.75 C-164.00492188 184.77964844 -163.25984375 184.80929687 -162.4921875 184.83984375 C-160.66203328 184.9102343 -158.83101231 184.95741832 -157 185 C-157.37511719 185.47308594 -157.75023437 185.94617188 -158.13671875 186.43359375 C-158.64847656 187.09488281 -159.16023438 187.75617188 -159.6875 188.4375 C-160.43580078 189.39462891 -160.43580078 189.39462891 -161.19921875 190.37109375 C-163.73691032 194.07579316 -165.81921577 198.07458838 -168 202 C-178.89 202 -189.78 202 -201 202 C-199.3262612 194.46817541 -197.55226179 186.98483425 -195.6875 179.5 C-195.22827148 177.64628784 -195.22827148 177.64628784 -194.75976562 175.75512695 C-192.70233052 167.53988309 -190.41533732 159.45562662 -187.75 151.41796875 C-186.89131923 147.50471003 -186.95568352 144.86490342 -188 141 C-189.91738855 139.03712176 -189.91738855 139.03712176 -192 138 C-190.77048326 130.52164523 -189.11170763 123.2783523 -187 116 C-183.68135307 117.23296952 -180.92250535 118.64345281 -178 120.625 C-172.83145128 123.76939362 -167.43500748 126.0037763 -161.8125 128.1875 C-160.97654297 128.52023926 -160.14058594 128.85297852 -159.27929688 129.19580078 C-147.15656282 133.77749469 -134.93376066 135.51293642 -122.02050781 135.39111328 C-119.99996519 135.37499972 -117.98142126 135.39109508 -115.9609375 135.41015625 C-103.6305265 135.43087837 -91.80779127 133.34503131 -80.125 129.375 C-79.38161377 129.12266602 -78.63822754 128.87033203 -77.87231445 128.61035156 C-48.00339455 118.00794082 -24.50296877 95.51909946 -10.91113281 67.05810547 C-8.04617783 60.58662355 -5.88768628 53.81373914 -4 47 C-3.73292236 46.06873291 -3.46584473 45.13746582 -3.19067383 44.17797852 C-0.74686099 34.83209507 -0.4537003 25.77997805 -0.3125 16.1875 C-0.27923301 14.60869738 -0.24473516 13.0299202 -0.20898438 11.45117188 C-0.12291518 7.63410321 -0.06195704 3.81783536 0 0 Z " fill="#D84554" transform="translate(311,183)"/>
<path d="M0 0 C0.495 0.99 0.495 0.99 1 2 C6.28 2 11.56 2 17 2 C17.33 1.34 17.66 0.68 18 0 C18.4021875 1.670625 18.4021875 1.670625 18.8125 3.375 C19.65809019 7.21840951 19.65809019 7.21840951 23 9 C25.0492094 9.45139459 25.0492094 9.45139459 27.1875 9.625 C28.445625 9.74875 29.70375 9.8725 31 10 C29.99686306 17.38516333 28.11310988 24.47549152 26.0625 31.625 C25.80968262 32.50696045 25.55686523 33.3889209 25.29638672 34.29760742 C24.06660458 38.5245398 22.79615369 42.73872208 21.4609375 46.93359375 C21.23841309 47.63540771 21.01588867 48.33722168 20.78662109 49.06030273 C19.15837083 53.07533947 16.52123553 56.01567113 12.875 58.375 C11 59 11 59 8 59 C7.88785156 57.74896484 7.88785156 57.74896484 7.7734375 56.47265625 C6.64335776 46.80050319 4.01196346 41.10314444 -2.75 34.1875 C-12.1919261 27.83235744 -21.83457732 26.56786177 -33 28 C-45.69201943 30.99041066 -56.20231303 38.7070532 -64 49 C-66.475 53.95 -66.475 53.95 -69 59 C-82.53 59 -96.06 59 -110 59 C-109.32676012 52.94084107 -108.62130826 48.01816961 -106.8125 42.375 C-104.60642747 35.27362177 -102.68072008 28.11395 -100.82421875 20.9140625 C-100.55073608 19.85936768 -100.27725342 18.80467285 -99.9954834 17.71801758 C-99.32873454 15.14575147 -98.66360531 12.57307853 -98 10 C-96.84377136 9.99413376 -95.68754272 9.98826752 -94.49627686 9.98222351 C-83.60743818 9.92504573 -72.71880016 9.85231001 -61.83016586 9.76428509 C-56.23200668 9.71953053 -50.63392114 9.68028556 -45.03564453 9.65356445 C-39.63442249 9.62758231 -34.23348305 9.58721591 -28.83243561 9.53681374 C-26.77037314 9.52011057 -24.70826175 9.50861783 -22.64614105 9.50238609 C-19.76086196 9.49278257 -16.8763115 9.46476815 -13.99121094 9.43237305 C-12.70835457 9.43452568 -12.70835457 9.43452568 -11.39958191 9.4367218 C-7.91790018 9.38132458 -5.59868561 9.31606901 -2.48492432 7.67219543 C-0.37824705 5.29983472 -0.27520949 3.09610674 0 0 Z " fill="#FDA85E" transform="translate(461,326)"/>
<path d="M0 0 C4.67633393 1.76859652 4.67633393 1.76859652 6.02172852 4.14282227 C6.64672852 7.33032227 6.64672852 7.33032227 6.02172852 11.14282227 C1.7891887 17.10261033 -3.90609212 22.14587687 -9.13452148 27.22094727 C-10.66635252 28.72556428 -12.19758593 30.23078993 -13.72827148 31.73657227 C-16.11703714 34.08183391 -18.50934604 36.42297407 -20.91186523 38.75415039 C-23.24744307 41.02348412 -25.567083 43.30811271 -27.88452148 45.59594727 C-28.61143188 46.29391418 -29.33834229 46.9918811 -30.08728027 47.71099854 C-30.74546753 48.36558044 -31.40365479 49.02016235 -32.08178711 49.69458008 C-32.66690063 50.26557434 -33.25201416 50.8365686 -33.8548584 51.42486572 C-35.21495991 53.08900167 -35.21495991 53.08900167 -34.6763916 55.16009521 C-34.44601196 55.81439514 -34.21563232 56.46869507 -33.97827148 57.14282227 C-33.34145121 64.52993751 -32.78135243 71.3277959 -37.41577148 77.46313477 C-41.94409327 82.33108069 -46.4078883 86.89441117 -53.29077148 87.37329102 C-55.11608398 87.35202148 -55.11608398 87.35202148 -56.97827148 87.33032227 C-58.19514648 87.32387695 -59.41202148 87.31743164 -60.66577148 87.31079102 C-63.97827148 87.14282227 -63.97827148 87.14282227 -65.9465332 86.421875 C-68.0819753 85.892719 -68.0819753 85.892719 -69.86938477 87.48217773 C-70.50602051 88.1513623 -71.14265625 88.82054687 -71.79858398 89.51000977 C-72.49854492 90.2305957 -73.19850586 90.95118164 -73.91967773 91.69360352 C-74.64026367 92.4605957 -75.36084961 93.22758789 -76.10327148 94.01782227 C-77.54143808 95.51707913 -78.9814533 97.01456556 -80.42358398 98.51000977 C-81.05796387 99.1814502 -81.69234375 99.85289062 -82.34594727 100.54467773 C-84.76518482 102.9132582 -85.90371757 103.1345385 -89.35327148 103.51782227 C-92.97827148 103.14282227 -92.97827148 103.14282227 -95.47827148 101.01782227 C-96.97827148 98.14282227 -96.97827148 98.14282227 -97.07983398 95.42016602 C-95.6663825 91.21489725 -93.47204138 89.6111654 -90.14941406 86.78979492 C-83.39315205 81.32681077 -83.39315205 81.32681077 -79.40356445 73.90405273 C-79.26115273 70.18100346 -79.88008339 66.66555809 -80.49780273 63.00610352 C-81.1165556 58.03092804 -80.14592971 55.3519605 -77.56420898 51.15844727 C-73.30303242 45.74276474 -68.6194639 42.24004092 -61.97827148 40.14282227 C-57.14508384 39.75923594 -54.8034962 39.78438686 -50.33203125 41.7265625 C-48.21857414 42.37235957 -48.21857414 42.37235957 -45.97827148 42.14282227 C-42.16859827 39.70544878 -39.29958271 36.43240272 -36.25561523 33.11547852 C-34.87403435 31.68329354 -33.49243097 30.25112946 -32.10951328 28.82023525 C-29.69001464 26.30225611 -27.30525464 23.75173989 -24.91577148 21.20532227 C-22.06091788 18.17089399 -19.19867119 15.14460585 -16.30555725 12.14659119 C-14.50695341 10.27822918 -12.72753543 8.39116941 -10.9697113 6.48439026 C-4.90623239 0.1761366 -4.90623239 0.1761366 0 0 Z " fill="#030303" transform="translate(248.978271484375,135.857177734375)"/>
<path d="M0 0 C2 1 2 1 2.7890625 3.07421875 C3.20285156 4.36779297 3.20285156 4.36779297 3.625 5.6875 C5.74441336 11.24896813 8.76794441 14.23068932 14 17 C17.2594056 18.04041805 20.16035232 18.07576801 23.56860352 17.9831543 C29.1869395 17.85648305 34.80231083 17.78079826 40.42202854 17.74791241 C43.80947568 17.7242583 47.19287663 17.67628621 50.57885742 17.5715332 C67.53345939 17.10800811 79.36018779 17.86726353 92.32788086 29.49536133 C93.26227493 30.39310776 93.26227493 30.39310776 94.21554565 31.30899048 C95.90006821 32.90530124 97.64377525 34.32205784 99.47485352 35.74487305 C102 38 102 38 102.375 41.3125 C102.189375 42.6428125 102.189375 42.6428125 102 44 C101.03578125 44.02578125 100.0715625 44.0515625 99.078125 44.078125 C97.18320312 44.16320312 97.18320312 44.16320312 95.25 44.25 C93.99703125 44.29640625 92.7440625 44.3428125 91.453125 44.390625 C87.55860305 45.07789358 86.38245417 45.92362714 84 49 C83.505 49.99 83.505 49.99 83 51 C80.3941111 51.13494246 77.79517889 51.23402299 75.1875 51.3125 C74.44951172 51.35439453 73.71152344 51.39628906 72.95117188 51.43945312 C70.79296875 51.48828125 70.79296875 51.48828125 67 51 C65.17578125 48.60546875 65.17578125 48.60546875 64 46 C60.31702529 43.54468353 58.44696039 43.7271933 54.05004883 43.68115234 C52.99600609 43.66608391 52.99600609 43.66608391 51.92066956 43.65071106 C49.59946506 43.61983573 47.27837613 43.60283213 44.95703125 43.5859375 C43.34705101 43.56722932 41.73708061 43.54765617 40.12712097 43.5272522 C35.89065345 43.47588789 31.65415412 43.43628527 27.4175415 43.39910889 C23.0940359 43.35909612 18.77066308 43.30799136 14.44726562 43.2578125 C5.9649344 43.16100233 -2.51746244 43.07661394 -11 43 C-10.52775682 40.93278071 -10.05419275 38.86586314 -9.58007812 36.79907227 C-9.31650513 35.64802505 -9.05293213 34.49697784 -8.78137207 33.31105042 C-7.79976525 29.15150878 -6.67840275 25.04469806 -5.5 20.9375 C-3.53644408 13.98839337 -1.69323705 7.02073901 0 0 Z " fill="#FDC068" transform="translate(395,277)"/>
<path d="M0 0 C0.70568115 0.00100708 1.4113623 0.00201416 2.13842773 0.00305176 C4.77719749 0.00828797 7.41594411 0.02224923 10.0546875 0.03515625 C18.9028125 0.06609375 18.9028125 0.06609375 27.9296875 0.09765625 C27.9296875 13.95765625 27.9296875 27.81765625 27.9296875 42.09765625 C20.86368938 42.14352281 13.79820602 42.18336217 6.73217773 42.20751953 C4.32753755 42.21758826 1.92290964 42.2312441 -0.48168945 42.24853516 C-3.93443834 42.27274499 -7.3870256 42.28413057 -10.83984375 42.29296875 C-12.45715141 42.30845261 -12.45715141 42.30845261 -14.10713196 42.32424927 C-15.60834846 42.32447586 -15.60834846 42.32447586 -17.13989258 42.32470703 C-18.02147537 42.32914825 -18.90305817 42.33358948 -19.81135559 42.33816528 C-22.0703125 42.09765625 -22.0703125 42.09765625 -25.0703125 40.09765625 C-25.95120247 33.41757395 -23.80165931 27.00588796 -22.0703125 20.59765625 C-21.67005859 18.94443359 -21.67005859 18.94443359 -21.26171875 17.2578125 C-19.23206725 9.74359161 -16.61871002 5.41364553 -10.0703125 1.09765625 C-6.89705956 -0.48897022 -3.48247703 -0.02322627 0 0 Z " fill="#BCD5F5" transform="translate(437.0703125,238.90234375)"/>
<path d="M0 0 C40.26 0 80.52 0 122 0 C121 6 121 6 118 17 C80.38 17 42.76 17 4 17 C3.34 13.37 2.68 9.74 2 6 C1.34 4.02 0.68 2.04 0 0 Z " fill="#D84554" transform="translate(217,368)"/>
<path d="M0 0 C3.63288796 2.94298857 5.25800147 6.04177995 6 10.640625 C6.45667807 19.73137279 3.30181644 26.70691353 -2.5 33.56640625 C-9.51330174 40.91477512 -17.95551222 46.19076247 -28.25 46.69140625 C-33.36924571 46.56034122 -37.29782662 45.47292757 -41.375 42.31640625 C-45.3514704 37.44523001 -46.02732037 33.38264903 -45.74609375 27.14453125 C-44.38173375 16.74667185 -38.40261927 8.9875377 -30.22265625 2.6484375 C-21.3369157 -3.1673735 -9.62480317 -5.75483023 0 0 Z " fill="#5B515E" transform="translate(200.375,370.68359375)"/>
<path d="M0 0 C4.73898254 4.50203341 6.74863425 7.59333857 7 14.1875 C6.62671429 23.94109437 2.17158503 31.40135502 -4.5 38.375 C-12.17486701 44.7109064 -19.88705895 48.03114225 -29.8828125 47.7265625 C-35.10229073 47.02543856 -38.24840944 44.69246375 -41.875 40.875 C-44.93490841 36.1674486 -45.3609915 30.85772888 -44.5 25.375 C-39.97711945 13.55176527 -33.51012021 6.43136511 -22.5 0.375 C-15.53305081 -2.53845148 -6.91990484 -3.21281296 0 0 Z " fill="#5B515E" transform="translate(447.5,369.625)"/>
<path d="M0 0 C1.23503769 -0.00569504 1.23503769 -0.00569504 2.49502563 -0.01150513 C5.20858209 -0.01889682 7.92106069 0.00245024 10.63452148 0.02490234 C12.52351251 0.0272875 14.41250595 0.02819194 16.30149841 0.02767944 C20.25665173 0.03080498 24.21144192 0.04735253 28.16650391 0.07421875 C33.23636156 0.10822141 38.30582082 0.1158465 43.37577915 0.11432838 C47.27483422 0.11487217 51.17380219 0.12584032 55.07282829 0.14033127 C56.94233478 0.14669512 58.81185114 0.1506372 60.68136787 0.15211868 C63.29295802 0.15645475 65.90412566 0.17396161 68.515625 0.1953125 C69.28820145 0.19440613 70.06077789 0.19349976 70.85676575 0.19256592 C74.59832931 0.23729822 77.56155129 0.31056896 80.69311523 2.48583984 C82.58197777 5.00432322 82.70027362 6.31403852 82.56811523 9.48583984 C81.51795154 13.08640109 80.69362049 14.24373176 77.69311523 16.48583984 C74.77460527 16.88041761 72.23368053 17.03321296 69.31616211 17.00341797 C68.05208275 17.01393188 68.05208275 17.01393188 66.76246643 17.0246582 C63.97859688 17.0422543 61.19574501 17.03060993 58.41186523 17.01708984 C56.47660121 17.0197843 54.5413385 17.02366633 52.6060791 17.02868652 C48.55081285 17.03458375 44.4958991 17.02601134 40.44067383 17.00732422 C35.24168592 16.98453458 30.04352395 16.99765645 24.84456635 17.02161407 C20.84854912 17.03606595 16.85272783 17.03146886 12.85670471 17.02110291 C10.93974205 17.01843393 9.02276162 17.02171137 7.1058197 17.03102112 C4.42675641 17.04117667 1.74903189 17.02570011 -0.92993164 17.00341797 C-1.72278061 17.01151489 -2.51562958 17.01961182 -3.33250427 17.0279541 C-6.91291805 16.97276506 -8.91225583 16.78835062 -11.79504395 14.57849121 C-13.42353394 12.32437705 -13.87475892 11.23740645 -13.86938477 8.48583984 C-13.89129883 7.82583984 -13.91321289 7.16583984 -13.93579102 6.48583984 C-11.9206261 0.07736507 -5.717731 -0.08339689 0 0 Z " fill="#000000" transform="translate(13.306884765625,295.51416015625)"/>
<path d="M0 0 C5.61 0 11.22 0 17 0 C16.3503125 2.60261719 16.3503125 2.60261719 15.6875 5.2578125 C15.12463768 7.54678594 14.56215768 9.83585341 14 12.125 C13.57074219 13.83816406 13.57074219 13.83816406 13.1328125 15.5859375 C12.72675781 17.24882812 12.72675781 17.24882812 12.3125 18.9453125 C12.06113281 19.96125488 11.80976563 20.97719727 11.55078125 22.02392578 C10.8180205 25.47886706 10.8180205 25.47886706 11 31 C24.86 31.495 24.86 31.495 39 32 C37.02 34.97 35.04 37.94 33 41 C31.68 43.64 30.36 46.28 29 49 C15.47 49 1.94 49 -12 49 C-11.32664945 42.93984508 -10.61910741 38.01897406 -8.8125 32.375 C-6.57784961 25.10966309 -4.59008898 17.79660277 -2.6875 10.4375 C-2.42106689 9.40737793 -2.15463379 8.37725586 -1.88012695 7.31591797 C-1.25129481 4.87782526 -0.62532793 2.43899382 0 0 Z " fill="#FB8958" transform="translate(363,336)"/>
<path d="M0 0 C1.73974342 0.00137466 1.73974342 0.00137466 3.51463318 0.0027771 C5.9631663 0.0088119 8.41169208 0.02455408 10.86010742 0.04931641 C14.61079051 0.08583718 18.36048574 0.09033557 22.11132812 0.08984375 C24.49089397 0.09967456 26.87045311 0.1113314 29.25 0.125 C30.37297989 0.12722565 31.49595978 0.12945129 32.65296936 0.13174438 C34.21995827 0.15088394 34.21995827 0.15088394 35.81860352 0.17041016 C37.19496727 0.18184555 37.19496727 0.18184555 38.59913635 0.19351196 C41.21422495 0.47785983 42.83332507 1.08190375 45.05859375 2.4609375 C47.14018395 5.13726776 47.05446966 6.57847418 46.93359375 10.0234375 C46.05859375 13.4609375 46.05859375 13.4609375 44.34387207 15.15052795 C41.56555682 16.74365156 39.811564 16.84695005 36.61914062 16.86499023 C35.53121216 16.87767441 34.44328369 16.89035858 33.3223877 16.90342712 C31.56759094 16.89902367 31.56759094 16.89902367 29.77734375 16.89453125 C28.57170776 16.8997731 27.36607178 16.90501495 26.12390137 16.91041565 C23.57528453 16.91683812 21.02663806 16.915496 18.47802734 16.90698242 C14.57335808 16.89846969 10.67014981 16.92723827 6.765625 16.95898438 C4.29036502 16.96059634 1.81510245 16.96001894 -0.66015625 16.95703125 C-1.83002075 16.96826523 -2.99988525 16.97949921 -4.2052002 16.99107361 C-5.29312866 16.98169266 -6.38105713 16.97231171 -7.50195312 16.96264648 C-8.45807495 16.96248032 -9.41419678 16.96231415 -10.39929199 16.96214294 C-13.67610668 16.31608333 -14.86804402 15.02127264 -16.94140625 12.4609375 C-17.5078125 10.4609375 -17.5078125 10.4609375 -17.50390625 8.4609375 C-17.52582031 7.8009375 -17.54773438 7.1409375 -17.5703125 6.4609375 C-15.12251173 -1.32337302 -6.55098722 -0.08398588 0 0 Z " fill="#000000" transform="translate(40.94140625,327.5390625)"/>
<path d="M0 0 C16.5 0 33 0 50 0 C51.50156874 3.00313748 51.09281204 5.79067522 51.0625 9.125 C51.05347656 10.40632812 51.04445313 11.68765625 51.03515625 13.0078125 C51.02355469 13.99523437 51.01195312 14.98265625 51 16 C49.36756348 15.99830811 49.36756348 15.99830811 47.70214844 15.99658203 C43.60886355 16.00029292 39.51672957 16.04344563 35.42382812 16.09765625 C33.66283658 16.11566493 31.90170554 16.12341262 30.140625 16.12011719 C17.94991451 16.10626411 7.23785415 16.60223846 -2 25.6875 C-2.66 26.450625 -3.32 27.21375 -4 28 C-5.32 28.99 -6.64 29.98 -8 31 C-5.90707337 20.53536685 -2.93178919 10.26126216 0 0 Z " fill="#FDC068" transform="translate(414,208)"/>
<path d="M0 0 C9.24 0 18.48 0 28 0 C28 7.92 28 15.84 28 24 C23.60336967 24.02291238 19.20694512 24.04283833 14.81030273 24.05493164 C13.31355082 24.05997121 11.81680384 24.06680287 10.32006836 24.07543945 C8.17300193 24.08752159 6.02600038 24.09323191 3.87890625 24.09765625 C1.93866577 24.10551147 1.93866577 24.10551147 -0.04077148 24.11352539 C-3 24 -3 24 -4 23 C-4.80595736 14.9404264 -2.19453602 7.68087606 0 0 Z " fill="#DAE9FE" transform="translate(437,240)"/>
<path d="M0 0 C0.93714844 -0.01546875 1.87429687 -0.0309375 2.83984375 -0.046875 C7.18665167 -0.02221226 9.8042394 0.08447631 13.59375 2.34765625 C16.05806484 5.13011009 16.5 6.79465006 16.5 10.5 C14.36956522 15.06521739 14.36956522 15.06521739 11.5 16.5 C7.7146452 16.79452482 3.92047488 16.77795381 0.125 16.8125 C-0.92945313 16.84150391 -1.98390625 16.87050781 -3.0703125 16.90039062 C-4.08609375 16.90876953 -5.101875 16.91714844 -6.1484375 16.92578125 C-7.54328369 16.94765503 -7.54328369 16.94765503 -8.96630859 16.9699707 C-12.25405919 16.36013067 -13.42458274 15.0603863 -15.5 12.5 C-16.06640625 10.5 -16.06640625 10.5 -16.0625 8.5 C-16.08441406 7.84 -16.10632812 7.18 -16.12890625 6.5 C-13.81978177 -0.84330271 -6.29113251 -0.10384263 0 0 Z " fill="#000000" transform="translate(63.5,359.5)"/>
<path d="M0 0 C3.3125 2.125 3.3125 2.125 5 5 C5.5625 8.0625 5.5625 8.0625 5 11 C2.66163696 14.2072311 1.43785677 14.92976855 -2.53125 15.56640625 C-3.8409375 15.56511719 -5.150625 15.56382812 -6.5 15.5625 C-8.46453125 15.59537109 -8.46453125 15.59537109 -10.46875 15.62890625 C-14 15 -14 15 -16.43359375 12.62109375 C-18.22147562 9.62940115 -18.76567354 8.40299352 -18 5 C-13.95531264 -1.7411456 -7.02063379 -1.11467169 0 0 Z " fill="#090909" transform="translate(122,192)"/>
<path d="M0 0 C4.53734574 1.34439874 4.53734574 1.34439874 6.375 4 C6.70132361 6.58413022 6.83969974 8.85847049 6.8125 11.4375 C6.83183594 12.75621094 6.85117188 14.07492188 6.87109375 15.43359375 C6.375 19 6.375 19 4.53125 21.4375 C2.375 23 2.375 23 -0.5625 23.5625 C-3.625 23 -3.625 23 -6.5 21.3125 C-9.82850749 16.1239442 -9.56663101 10.98662967 -8.625 5 C-6.02635999 0.74767998 -4.97904445 0 0 0 Z " fill="#090909" transform="translate(192.625,112)"/>
<path d="M0 0 C3.25 1.5 3.25 1.5 5 4 C5.66166 7.0169268 5.45403584 8.82174913 5 12 C2.56958913 14.67345196 1.05223514 14.9936494 -2.56640625 15.43359375 C-4.54447266 15.43552734 -4.54447266 15.43552734 -6.5625 15.4375 C-7.23474609 15.45748047 -7.90699219 15.47746094 -8.59960938 15.49804688 C-11.80532591 15.49486344 -13.5477915 15.42297482 -15.93359375 13.19140625 C-17.53232394 9.90610355 -17.51358313 7.59508191 -17 4 C-12.98832917 -1.58768437 -6.21265403 -0.82377733 0 0 Z " fill="#070707" transform="translate(274,192)"/>
<path d="M0 0 C2.19140625 1.59765625 2.19140625 1.59765625 4 4 C4.49609375 7.3125 4.49609375 7.3125 4.4375 11 C4.43621094 12.216875 4.43492187 13.43375 4.43359375 14.6875 C3.97870879 18.16265717 3.54947031 19.63015146 1 22 C-3.55609272 22.65087039 -5.72465021 22.89274485 -9.5 20.25 C-11.82154062 15.21999533 -11.72901208 10.44128605 -11 5 C-8.4422936 -0.32002931 -5.70161275 -0.91633062 0 0 Z " fill="#060606" transform="translate(195,265)"/>
<path d="M0 0 C2.5 1.5 2.5 1.5 4 4 C4.791013 8.02098277 4.62153384 10.96411027 2.5 14.5 C-1.03588973 16.62153384 -3.97901723 16.791013 -8 16 C-10.5 14.5 -10.5 14.5 -12 12 C-12.791013 7.97901723 -12.62153384 5.03588973 -10.5 1.5 C-6.96411027 -0.62153384 -4.02098277 -0.791013 0 0 Z " fill="#5B515E" transform="translate(196,192)"/>
<path d="M0 0 C5.61 0 11.22 0 17 0 C15.9220292 7.54579559 14.88884842 10.75966857 8.9375 15.375 C6 17 6 17 3 17 C2.86722656 16.10796875 2.73445313 15.2159375 2.59765625 14.296875 C2.42105469 13.12640625 2.24445313 11.9559375 2.0625 10.75 C1.88847656 9.58984375 1.71445312 8.4296875 1.53515625 7.234375 C1.02034376 3.85211096 1.02034376 3.85211096 0 0 Z " fill="#F68656" transform="translate(466,368)"/>
<path d="M0 0 C2.4375 1.5625 2.4375 1.5625 4 4 C4.5625 7.5 4.5625 7.5 4 11 C1.61186047 13.66106976 -0.01553885 14.77849624 -3.5 15.5625 C-7.29082295 14.70956484 -8.74689043 13.11459264 -11 10 C-11 6.45638757 -10.65850044 4.13408409 -8.875 1.0625 C-5.81547541 -0.6712306 -3.43182475 -0.42145216 0 0 Z " fill="#040304" transform="translate(432,385)"/>
<path d="M0 0 C3.0099077 2.29014716 4.69783903 3.79135614 5.625 7.5 C4.68500224 11.25999106 3.11394311 12.7473603 0 15 C-3.85210127 15.06641554 -5.99848005 14.87229157 -8.9375 12.3125 C-10.33817538 9.26397123 -10.4842732 7.32073048 -10 4 C-7.2247536 -0.05612936 -4.80517165 -0.88258255 0 0 Z " fill="#030203" transform="translate(183,385)"/>
</svg>
