<?xml version="1.0" encoding="UTF-8"?>
<svg version="1.1" xmlns="http://www.w3.org/2000/svg" width="512" height="512">
<path d="M0 0 C0.92227251 -0.05009356 1.84454502 -0.10018712 2.79476517 -0.15179867 C4.33311334 -0.22723741 4.33311334 -0.22723741 5.90253925 -0.30420017 C6.9835871 -0.36008873 8.06463495 -0.41597729 9.17844182 -0.47355944 C12.83481842 -0.65915743 16.4915567 -0.83560028 20.14846516 -1.01039219 C21.42575048 -1.07265429 22.70303581 -1.13491638 24.01902676 -1.19906521 C48.70316423 -2.39031051 73.39476898 -3.15206033 98.10049434 -3.72588694 C102.17319776 -3.82072257 106.24581404 -3.91890746 110.31838703 -4.01918125 C111.12875222 -4.03907596 111.93911741 -4.05897068 112.77403913 -4.07946826 C124.11595387 -4.36512897 135.43607039 -4.83822983 146.76399972 -5.46608002 C166.29237878 -6.54835584 185.79833142 -7.26601571 205.35867023 -7.31141758 C206.11866925 -7.31393904 206.87866827 -7.31646049 207.66169757 -7.31905836 C247.67554396 -7.39697059 277.84032221 -3.32233744 307.92094368 25.8128708 C320.23853974 38.2139932 331.64797277 51.89851118 341.49191189 66.34930897 C347.3090135 75.1303272 347.3090135 75.1303272 356.33912945 79.77652073 C360.13312137 80.32895297 363.84637325 80.37607463 367.672562 80.29360783 C389.86448547 80.79830121 411.22069947 96.82938152 426.08913898 111.67295742 C445.14444768 131.80134664 453.66220629 158.75664783 453.06960773 186.06748867 C451.96836973 210.88450908 441.66530289 232.64862004 425.75320148 251.34092617 C425.18085773 252.01768398 424.60851398 252.6944418 424.01882648 253.39170742 C408.38258404 270.27723728 384.41879961 281.05935603 361.75320148 283.34092617 C359.11320148 283.34092617 356.47320148 283.34092617 353.75320148 283.34092617 C353.75320148 293.24092617 353.75320148 303.14092617 353.75320148 313.34092617 C356.39320148 313.34092617 359.03320148 313.34092617 361.75320148 313.34092617 C370.84203247 315.64531816 376.79790905 320.26350144 381.67507648 328.18076992 C385.09446193 335.03192989 385.0495129 341.27750001 385.04372883 348.79698086 C385.05044605 350.04975826 385.05716328 351.30253567 385.06408405 352.59327602 C385.07980004 356.01917714 385.08643757 359.44483577 385.08771563 362.87075615 C385.08914067 365.01533633 385.093417 367.15989137 385.09871006 369.30446529 C385.11719722 376.79840607 385.12538256 384.29227585 385.12380695 391.78623867 C385.12260677 398.75156709 385.14368799 405.71658503 385.17529428 412.68183494 C385.20152447 418.67783101 385.2121714 424.67372612 385.21089613 430.66977906 C385.21038836 434.24381295 385.21596812 437.8175709 385.23725224 441.3915472 C385.2603786 445.38367515 385.25107278 449.37511645 385.23904133 453.36729336 C385.25028034 454.53751034 385.26151936 455.70772732 385.27309895 456.91340542 C385.20100464 466.35741384 383.35910172 474.26317592 376.75320148 481.34092617 C378.02884464 481.35123363 379.3044878 481.3615411 380.61878681 481.37216091 C392.61218352 481.46971233 404.60552622 481.57242858 416.59883499 481.68026543 C422.76542486 481.73554407 428.93201942 481.78897183 435.09866047 481.83824062 C441.04440372 481.88581146 446.99008723 481.93815134 452.93575954 481.99386692 C455.20965376 482.01432358 457.48356438 482.03303104 459.7574873 482.05000019 C462.93051711 482.07397116 466.10343285 482.10403534 469.27639484 482.1356039 C470.2265749 482.14135937 471.17675495 482.14711483 472.15572834 482.1530447 C478.63914932 482.22687401 478.63914932 482.22687401 479.75320148 483.34092617 C479.87820148 485.84092617 479.87820148 485.84092617 479.75320148 488.34092617 C477.95999251 490.13413515 475.52658211 489.46570647 473.13870406 489.47386175 C472.32340075 489.47152059 471.50809743 489.46917942 470.66808796 489.46676731 C469.80616313 489.46822075 468.94423831 489.46967419 468.05619454 489.47117168 C465.13014715 489.47485904 462.20415096 489.47133268 459.27810383 489.46790981 C457.174305 489.46906055 455.07050638 489.47064776 452.96670818 489.47263706 C447.1560901 489.47683686 441.34548831 489.47473677 435.53487015 489.47165084 C429.27986697 489.46939959 423.0248667 489.47287497 416.76986408 489.47563076 C405.21463227 489.47983226 393.65940777 489.47945148 382.10417598 489.47671929 C371.43092985 489.47420791 360.75768564 489.47354508 350.08443928 489.47474194 C349.02420479 489.47485651 349.02420479 489.47485651 347.94255142 489.47497341 C345.07363085 489.47528472 342.20471027 489.47560312 339.3357897 489.47593317 C312.39993448 489.47899507 285.4640826 489.47621411 258.5282279 489.47083627 C234.57522251 489.46609035 210.62222245 489.46651496 186.66921711 489.47129726 C159.78395284 489.47664701 132.89869151 489.47877796 106.01342678 489.475685 C103.14960575 489.47536426 100.28578472 489.47505142 97.42196369 489.47474194 C96.71677087 489.47466286 96.01157805 489.47458378 95.28501575 489.47450231 C84.61610534 489.47336281 73.94719705 489.47469887 63.27828693 489.47722149 C51.15238737 489.48007424 39.02649546 489.4792831 26.90059614 489.47394074 C20.70719674 489.47130254 14.51380816 489.47030067 8.32040882 489.4735899 C2.66056197 489.47655042 -2.99926395 489.47496416 -8.65910888 489.46961235 C-10.71628351 489.46848711 -12.77345987 489.46908166 -14.8306334 489.47148813 C-17.60767645 489.47448971 -20.38464592 489.47145016 -23.16168499 489.46676731 C-24.38463996 489.47027906 -24.38463996 489.47027906 -25.63230109 489.47386175 C-31.13264818 489.45507651 -31.13264818 489.45507651 -32.24679852 488.34092617 C-32.37179852 485.84092617 -32.37179852 485.84092617 -32.24679852 483.34092617 C-31.24679852 482.34092617 -31.24679852 482.34092617 -28.74655437 482.22740078 C-27.66253338 482.2326376 -26.57851238 482.23787441 -25.46164227 482.24326992 C-23.70690594 482.2481039 -23.70690594 482.2481039 -21.91672039 482.25303555 C-20.68502117 482.26141445 -19.45332195 482.26979336 -18.18429852 482.27842617 C-16.33094891 482.28519375 -16.33094891 482.28519375 -14.44015789 482.29209805 C-11.37565735 482.30393009 -8.3112513 482.32041444 -5.24679852 482.34092617 C-5.24717824 481.32352449 -5.24755796 480.3061228 -5.24794918 479.25789076 C-5.26460981 434.44262878 -5.28003874 389.62736652 -5.28914165 344.81210232 C-5.28927971 344.13415662 -5.28941777 343.45621092 -5.28956001 342.75772141 C-5.29255257 328.02592081 -5.2953228 313.29412017 -5.29786384 298.56231949 C-5.29911124 291.33837523 -5.30040778 284.11443097 -5.30173016 276.89048672 C-5.30186092 276.17159814 -5.30199167 275.45270956 -5.3021264 274.71203649 C-5.30639157 251.38965463 -5.31390573 228.0672752 -5.32309574 204.74489481 C-5.3325186 180.78818899 -5.3386817 156.83148451 -5.34071351 132.87477687 C-5.34100168 129.49496748 -5.34132732 126.11515809 -5.34167576 122.7353487 C-5.34174318 122.07012074 -5.3418106 121.40489279 -5.34188007 120.7195064 C-5.34299066 110.65496756 -5.34698793 100.59043242 -5.35252857 90.52589512 C-5.35880357 79.0861815 -5.36177456 67.64647333 -5.36029989 56.20675797 C-5.35965618 50.36373549 -5.3606777 44.52072516 -5.36600399 38.67770481 C-5.37083629 33.33794233 -5.37113829 27.99820027 -5.36769741 22.65843689 C-5.36727155 20.7176509 -5.3685687 18.77686368 -5.3716817 16.83608014 C-5.37564287 14.21600417 -5.37356367 11.59600385 -5.36984634 8.97592926 C-5.37247336 8.20686612 -5.37510037 7.43780297 -5.37780699 6.64543489 C-5.35712653 0.27994983 -5.35712653 0.27994983 0 0 Z " fill="#62BBE6" transform="translate(32.246798515319824,-0.3409261703491211)"/>
<path d="M0 0 C0.92227251 -0.05009356 1.84454502 -0.10018712 2.79476517 -0.15179867 C4.33311334 -0.22723741 4.33311334 -0.22723741 5.90253925 -0.30420017 C6.9835871 -0.36008873 8.06463495 -0.41597729 9.17844182 -0.47355944 C12.83481842 -0.65915743 16.4915567 -0.83560028 20.14846516 -1.01039219 C21.42575048 -1.07265429 22.70303581 -1.13491638 24.01902676 -1.19906521 C48.70316423 -2.39031051 73.39476898 -3.15206033 98.10049434 -3.72588694 C102.17319776 -3.82072257 106.24581404 -3.91890746 110.31838703 -4.01918125 C111.12875222 -4.03907596 111.93911741 -4.05897068 112.77403913 -4.07946826 C124.11595387 -4.36512897 135.43607039 -4.83822983 146.76399972 -5.46608002 C166.29237878 -6.54835584 185.79833142 -7.26601571 205.35867023 -7.31141758 C206.11866925 -7.31393904 206.87866827 -7.31646049 207.66169757 -7.31905836 C247.67554396 -7.39697059 277.84032221 -3.32233744 307.92094368 25.8128708 C320.23853974 38.2139932 331.64797277 51.89851118 341.49191189 66.34930897 C347.3090135 75.1303272 347.3090135 75.1303272 356.33912945 79.77652073 C360.13312137 80.32895297 363.84637325 80.37607463 367.672562 80.29360783 C389.86448547 80.79830121 411.22069947 96.82938152 426.08913898 111.67295742 C445.14444768 131.80134664 453.66220629 158.75664783 453.06960773 186.06748867 C451.96836973 210.88450908 441.66530289 232.64862004 425.75320148 251.34092617 C425.18085773 252.01768398 424.60851398 252.6944418 424.01882648 253.39170742 C408.38258404 270.27723728 384.41879961 281.05935603 361.75320148 283.34092617 C359.11320148 283.34092617 356.47320148 283.34092617 353.75320148 283.34092617 C353.75320148 293.24092617 353.75320148 303.14092617 353.75320148 313.34092617 C356.39320148 313.34092617 359.03320148 313.34092617 361.75320148 313.34092617 C370.84203247 315.64531816 376.79790905 320.26350144 381.67507648 328.18076992 C385.09446193 335.03192989 385.0495129 341.27750001 385.04372883 348.79698086 C385.05044605 350.04975826 385.05716328 351.30253567 385.06408405 352.59327602 C385.07980004 356.01917714 385.08643757 359.44483577 385.08771563 362.87075615 C385.08914067 365.01533633 385.093417 367.15989137 385.09871006 369.30446529 C385.11719722 376.79840607 385.12538256 384.29227585 385.12380695 391.78623867 C385.12260677 398.75156709 385.14368799 405.71658503 385.17529428 412.68183494 C385.20152447 418.67783101 385.2121714 424.67372612 385.21089613 430.66977906 C385.21038836 434.24381295 385.21596812 437.8175709 385.23725224 441.3915472 C385.2603786 445.38367515 385.25107278 449.37511645 385.23904133 453.36729336 C385.25028034 454.53751034 385.26151936 455.70772732 385.27309895 456.91340542 C385.20100464 466.35741384 383.35910172 474.26317592 376.75320148 481.34092617 C378.02884464 481.35123363 379.3044878 481.3615411 380.61878681 481.37216091 C392.61218352 481.46971233 404.60552622 481.57242858 416.59883499 481.68026543 C422.76542486 481.73554407 428.93201942 481.78897183 435.09866047 481.83824062 C441.04440372 481.88581146 446.99008723 481.93815134 452.93575954 481.99386692 C455.20965376 482.01432358 457.48356438 482.03303104 459.7574873 482.05000019 C462.93051711 482.07397116 466.10343285 482.10403534 469.27639484 482.1356039 C470.2265749 482.14135937 471.17675495 482.14711483 472.15572834 482.1530447 C478.63914932 482.22687401 478.63914932 482.22687401 479.75320148 483.34092617 C479.87820148 485.84092617 479.87820148 485.84092617 479.75320148 488.34092617 C477.95999251 490.13413515 475.52658211 489.46570647 473.13870406 489.47386175 C472.32340075 489.47152059 471.50809743 489.46917942 470.66808796 489.46676731 C469.80616313 489.46822075 468.94423831 489.46967419 468.05619454 489.47117168 C465.13014715 489.47485904 462.20415096 489.47133268 459.27810383 489.46790981 C457.174305 489.46906055 455.07050638 489.47064776 452.96670818 489.47263706 C447.1560901 489.47683686 441.34548831 489.47473677 435.53487015 489.47165084 C429.27986697 489.46939959 423.0248667 489.47287497 416.76986408 489.47563076 C405.21463227 489.47983226 393.65940777 489.47945148 382.10417598 489.47671929 C371.43092985 489.47420791 360.75768564 489.47354508 350.08443928 489.47474194 C349.02420479 489.47485651 349.02420479 489.47485651 347.94255142 489.47497341 C345.07363085 489.47528472 342.20471027 489.47560312 339.3357897 489.47593317 C312.39993448 489.47899507 285.4640826 489.47621411 258.5282279 489.47083627 C234.57522251 489.46609035 210.62222245 489.46651496 186.66921711 489.47129726 C159.78395284 489.47664701 132.89869151 489.47877796 106.01342678 489.475685 C103.14960575 489.47536426 100.28578472 489.47505142 97.42196369 489.47474194 C96.71677087 489.47466286 96.01157805 489.47458378 95.28501575 489.47450231 C84.61610534 489.47336281 73.94719705 489.47469887 63.27828693 489.47722149 C51.15238737 489.48007424 39.02649546 489.4792831 26.90059614 489.47394074 C20.70719674 489.47130254 14.51380816 489.47030067 8.32040882 489.4735899 C2.66056197 489.47655042 -2.99926395 489.47496416 -8.65910888 489.46961235 C-10.71628351 489.46848711 -12.77345987 489.46908166 -14.8306334 489.47148813 C-17.60767645 489.47448971 -20.38464592 489.47145016 -23.16168499 489.46676731 C-24.38463996 489.47027906 -24.38463996 489.47027906 -25.63230109 489.47386175 C-31.13264818 489.45507651 -31.13264818 489.45507651 -32.24679852 488.34092617 C-32.37179852 485.84092617 -32.37179852 485.84092617 -32.24679852 483.34092617 C-31.24679852 482.34092617 -31.24679852 482.34092617 -28.74655437 482.22740078 C-27.66253338 482.2326376 -26.57851238 482.23787441 -25.46164227 482.24326992 C-23.70690594 482.2481039 -23.70690594 482.2481039 -21.91672039 482.25303555 C-20.68502117 482.26141445 -19.45332195 482.26979336 -18.18429852 482.27842617 C-16.33094891 482.28519375 -16.33094891 482.28519375 -14.44015789 482.29209805 C-11.37565735 482.30393009 -8.3112513 482.32041444 -5.24679852 482.34092617 C-5.24717824 481.32352449 -5.24755796 480.3061228 -5.24794918 479.25789076 C-5.26460981 434.44262878 -5.28003874 389.62736652 -5.28914165 344.81210232 C-5.28927971 344.13415662 -5.28941777 343.45621092 -5.28956001 342.75772141 C-5.29255257 328.02592081 -5.2953228 313.29412017 -5.29786384 298.56231949 C-5.29911124 291.33837523 -5.30040778 284.11443097 -5.30173016 276.89048672 C-5.30186092 276.17159814 -5.30199167 275.45270956 -5.3021264 274.71203649 C-5.30639157 251.38965463 -5.31390573 228.0672752 -5.32309574 204.74489481 C-5.3325186 180.78818899 -5.3386817 156.83148451 -5.34071351 132.87477687 C-5.34100168 129.49496748 -5.34132732 126.11515809 -5.34167576 122.7353487 C-5.34174318 122.07012074 -5.3418106 121.40489279 -5.34188007 120.7195064 C-5.34299066 110.65496756 -5.34698793 100.59043242 -5.35252857 90.52589512 C-5.35880357 79.0861815 -5.36177456 67.64647333 -5.36029989 56.20675797 C-5.35965618 50.36373549 -5.3606777 44.52072516 -5.36600399 38.67770481 C-5.37083629 33.33794233 -5.37113829 27.99820027 -5.36769741 22.65843689 C-5.36727155 20.7176509 -5.3685687 18.77686368 -5.3716817 16.83608014 C-5.37564287 14.21600417 -5.37356367 11.59600385 -5.36984634 8.97592926 C-5.37247336 8.20686612 -5.37510037 7.43780297 -5.37780699 6.64543489 C-5.35712653 0.27994983 -5.35712653 0.27994983 0 0 Z M1.75320148 6.34092617 C1.75320148 163.42092617 1.75320148 320.50092617 1.75320148 482.34092617 C22.87320148 482.34092617 43.99320148 482.34092617 65.75320148 482.34092617 C66.08320148 439.11092617 66.41320148 395.88092617 66.75320148 351.34092617 C83.58320148 351.34092617 100.41320148 351.34092617 117.75320148 351.34092617 C118.08320148 394.90092617 118.41320148 438.46092617 118.75320148 483.34092617 C128.32320148 483.34092617 137.89320148 483.34092617 147.75320148 483.34092617 C148.24820148 397.21092617 148.24820148 397.21092617 148.75320148 309.34092617 C165.58320148 309.34092617 182.41320148 309.34092617 199.75320148 309.34092617 C200.08320148 366.76092617 200.41320148 424.18092617 200.75320148 483.34092617 C210.32320148 483.34092617 219.89320148 483.34092617 229.75320148 483.34092617 C229.76350895 480.83753155 229.77381641 478.33413692 229.78443623 475.75488186 C229.88179388 452.2240473 229.98462112 428.69324123 230.09254074 405.1624527 C230.14789765 393.06350658 230.20138363 380.96455751 230.25051594 368.86558437 C230.29332761 358.32423956 230.33959786 347.78291668 230.39008003 337.2416057 C230.41670535 331.65635769 230.44155894 326.07111411 230.46227551 320.4858408 C230.48180499 315.23530836 230.50593749 309.98481776 230.53369236 304.73432255 C230.54308241 302.80129408 230.5507506 300.86825641 230.5566206 298.93521404 C230.56484873 296.30808101 230.57911581 293.68105043 230.5949831 291.05395412 C230.59596121 290.27867731 230.59693931 289.50340049 230.59794706 288.70463043 C230.63908027 283.45504738 230.63908027 283.45504738 231.75320148 282.34092617 C248.58320148 282.34092617 265.41320148 282.34092617 282.75320148 282.34092617 C282.75320148 348.67092617 282.75320148 415.00092617 282.75320148 483.34092617 C297.60320148 483.34092617 312.45320148 483.34092617 327.75320148 483.34092617 C325.77320148 480.70092617 323.79320148 478.06092617 321.75320148 475.34092617 C317.537385 467.98443475 317.17733429 460.82974566 317.23562336 452.50669765 C317.22510944 450.6388763 317.22510944 450.6388763 317.21438313 448.73332119 C317.1998817 445.3467048 317.20315612 441.96107712 317.21589947 438.57451797 C317.22609992 435.01398063 317.21661461 431.45348256 317.2103548 427.89294338 C317.20309967 421.91727614 317.21261066 415.94180735 317.23171711 409.96617031 C317.25349192 403.07682355 317.24642179 396.18795027 317.22441149 389.29861492 C317.20620819 383.36112582 317.20372281 377.4237785 317.21416616 371.48627049 C317.22037289 367.9498075 317.22131508 364.41356646 317.20802021 360.87711811 C317.19422592 356.93314759 317.21339175 352.98969958 317.23562336 349.04576015 C317.22752644 347.88758282 317.21942951 346.72940548 317.21108723 345.53613186 C317.31351078 335.69862394 319.9570782 328.30706696 326.70632648 321.06748867 C332.98189475 315.77397498 339.7340402 315.23194409 347.75320148 314.34092617 C347.75320148 303.78092617 347.75320148 293.22092617 347.75320148 282.34092617 C344.57695148 281.92842617 341.40070148 281.51592617 338.12820148 281.09092617 C317.16179368 278.1221885 298.39821502 271.04674458 282.75320148 256.34092617 C281.84441242 255.52237148 280.93562336 254.7038168 279.99929523 253.86045742 C268.70516717 243.2260698 261.14948749 230.83283889 255.75320148 216.34092617 C255.36390461 215.3225668 254.97460773 214.30420742 254.57351398 213.25498867 C245.74067507 188.69067024 248.19689761 161.89197838 258.75320148 138.34092617 C262.74587717 129.90026968 267.99689481 122.66320745 273.75320148 115.34092617 C274.92882648 113.76311367 274.92882648 113.76311367 276.12820148 112.15342617 C286.6614275 100.86782686 300.50389194 92.12789066 314.75320148 86.34092617 C314.75320148 86.01092617 314.75320148 85.68092617 314.75320148 85.34092617 C299.90320148 85.01092617 285.05320148 84.68092617 269.75320148 84.34092617 C269.42320148 58.60092617 269.09320148 32.86092617 268.75320148 6.34092617 C180.64320148 6.34092617 92.53320148 6.34092617 1.75320148 6.34092617 Z " fill="#42397A" transform="translate(32.246798515319824,-0.3409261703491211)"/>
<path d="M0 0 C17.67620128 15.25480384 30.15033035 37.38504717 32.25390625 60.77734375 C33.1043241 75.1017101 33.52696835 89.23798135 28.25390625 102.77734375 C28.00189453 103.43234863 27.74988281 104.08735352 27.49023438 104.76220703 C22.21969226 118.23242347 15.28820019 129.28694554 5.25390625 139.77734375 C4.33351563 140.80988281 4.33351563 140.80988281 3.39453125 141.86328125 C-11.36053142 157.81640456 -35.557206 167.65670138 -57.04296875 168.98046875 C-84.05827978 169.34719243 -108.62271601 161.07132351 -128.74609375 142.77734375 C-129.38804687 142.205 -130.03 141.63265625 -130.69140625 141.04296875 C-146.8508113 125.8255918 -158.2787778 101.51878923 -159.046875 79.296875 C-159.066348 77.39462691 -159.069832 75.49215831 -159.05859375 73.58984375 C-159.0529541 72.58171631 -159.04731445 71.57358887 -159.04150391 70.53491211 C-158.58672074 42.36762401 -146.26532489 19.97919752 -126.58984375 0.66015625 C-90.43227888 -32.68186054 -36.69839399 -29.70325204 0 0 Z " fill="#CCCCCD" transform="translate(445.74609375,108.22265625)"/>
<path d="M0 0 C1.60875 0.08894531 1.60875 0.08894531 3.25 0.1796875 C14.97759886 1.48629498 27.25932159 8.19298496 36 16 C36.6496875 16.55816406 37.299375 17.11632812 37.96875 17.69140625 C46.49295301 25.54350864 52.46231302 36.01455096 56 47 C56.33644531 48.01707031 56.33644531 48.01707031 56.6796875 49.0546875 C61.08230426 65.03678944 57.4268756 82.95010227 49.69140625 97.2578125 C39.80011307 113.29404302 25.25287261 124.22697871 7 129 C4.16549189 129.56690162 1.84391215 129.88267689 -1 130 C-2.75957031 130.09474609 -2.75957031 130.09474609 -4.5546875 130.19140625 C-22.25384293 130.85447451 -38.02083912 124.99714729 -51.46484375 113.41015625 C-64.15527617 101.34544623 -71.90491743 85.04498098 -72.37084961 67.44873047 C-72.40669717 48.45795853 -66.5209286 32.55169525 -53.6875 18.4609375 C-38.47851798 3.90233958 -20.66500547 -1.25692323 0 0 Z " fill="#F7AE23" transform="translate(390,116)"/>
<path d="M0 0 C8.91 0 17.82 0 27 0 C27 157.08 27 314.16 27 476 C18.09 476 9.18 476 0 476 C0 318.92 0 161.84 0 0 Z " fill="#6278E6" transform="translate(34,6)"/>
<path d="M0 0 C6.49219513 4.01520779 11.03679459 9.55726816 13.1875 16.9375 C13.63132712 21.00519627 13.61795789 25.05105152 13.60742188 29.13989258 C13.61589142 30.35380173 13.62436096 31.56771088 13.63308716 32.81840515 C13.65241995 36.13278804 13.65823829 39.4466067 13.65633965 42.76100755 C13.6562195 45.53655003 13.66480157 48.31204054 13.67311716 51.08756846 C13.69232034 57.64150381 13.69524676 64.19531181 13.68847656 70.74926758 C13.68184175 77.48919615 13.70468405 84.22857664 13.74179029 90.9683941 C13.77257883 96.77334626 13.78383736 102.57812297 13.77995348 108.38315505 C13.77789494 111.84209486 13.78322457 115.3006082 13.80784607 118.75946999 C13.83443608 122.62216918 13.82031566 126.48416177 13.80273438 130.34692383 C13.81599762 131.47816681 13.82926086 132.60940979 13.84292603 133.77493286 C13.75710016 141.92056317 12.06276202 148.78664926 6.37349701 154.88050556 C-0.24624934 160.99374787 -6.56696971 161.27721953 -15.25 161.25 C-16.27416016 161.26611328 -17.29832031 161.28222656 -18.35351562 161.29882812 C-23.9529665 161.30245237 -27.973071 161.07072006 -32.8125 157.9375 C-33.658125 157.421875 -34.50375 156.90625 -35.375 156.375 C-41.54160215 150.20839785 -43.37905012 143.14538916 -43.50125122 134.61787415 C-43.49270111 133.46329208 -43.484151 132.30871002 -43.4753418 131.11914062 C-43.48570969 129.87553268 -43.49607758 128.63192474 -43.50675964 127.35063171 C-43.52908766 123.96789774 -43.52916101 120.58670772 -43.51705909 117.20402336 C-43.5098838 114.36865659 -43.51845652 111.53342353 -43.52696449 108.69806719 C-43.54685485 102.00447876 -43.54141736 95.31124803 -43.51928711 88.61767578 C-43.49692051 81.73612088 -43.51453837 74.85550401 -43.55233639 67.97403765 C-43.58366431 62.04159718 -43.59145845 56.10944564 -43.58038265 50.17693281 C-43.57392651 46.64422773 -43.57574783 43.11206346 -43.59970665 39.579422 C-43.62508285 35.63786691 -43.6012303 31.69741135 -43.57299805 27.75585938 C-43.58671448 26.60127731 -43.60043091 25.44669525 -43.61456299 24.25712585 C-43.50258469 16.40738534 -41.65672373 11.15409337 -36.8125 4.9375 C-34.36328125 2.68359375 -34.36328125 2.68359375 -32.125 1.375 C-31.37863281 0.91996094 -30.63226563 0.46492188 -29.86328125 -0.00390625 C-21.81822179 -4.15668932 -8.09775475 -3.78806012 0 0 Z " fill="#F18675" transform="translate(397.8125,321.0625)"/>
<path d="M0 0 C13.53 0 27.06 0 41 0 C41 64.02 41 128.04 41 194 C27.47 194 13.94 194 0 194 C0 129.98 0 65.96 0 0 Z " fill="#F36175" transform="translate(268,288)"/>
<path d="M0 0 C13.53 0 27.06 0 41 0 C41 55.44 41 110.88 41 168 C27.47 168 13.94 168 0 168 C0 112.56 0 57.12 0 0 Z " fill="#F8AF23" transform="translate(186,314)"/>
<path d="M0 0 C1.60875 0.08894531 1.60875 0.08894531 3.25 0.1796875 C14.97759886 1.48629498 27.25932159 8.19298496 36 16 C36.6496875 16.55816406 37.299375 17.11632812 37.96875 17.69140625 C46.49295301 25.54350864 52.46231302 36.01455096 56 47 C56.33644531 48.01707031 56.33644531 48.01707031 56.6796875 49.0546875 C61.08230426 65.03678944 57.4268756 82.95010227 49.69140625 97.2578125 C39.80011307 113.29404302 25.25287261 124.22697871 7 129 C4.16549189 129.56690162 1.84391215 129.88267689 -1 130 C-2.75957031 130.09474609 -2.75957031 130.09474609 -4.5546875 130.19140625 C-22.25384293 130.85447451 -38.02083912 124.99714729 -51.46484375 113.41015625 C-64.15527617 101.34544623 -71.90491743 85.04498098 -72.37084961 67.44873047 C-72.40669717 48.45795853 -66.5209286 32.55169525 -53.6875 18.4609375 C-38.47851798 3.90233958 -20.66500547 -1.25692323 0 0 Z M-4 6 C-4.01030746 6.74946396 -4.02061493 7.49892792 -4.03123474 8.27110291 C-4.12904525 15.31990454 -4.23153576 22.36861874 -4.33933926 29.41727352 C-4.39460097 33.0414158 -4.448026 36.6655661 -4.49731445 40.28979492 C-4.54491032 43.78467099 -4.5972511 47.2794462 -4.65294075 50.77420235 C-4.68336413 52.76233823 -4.70881982 54.75054809 -4.73423767 56.73875427 C-4.75418289 57.93992386 -4.77412811 59.14109344 -4.79467773 60.37866211 C-4.81022202 61.44233505 -4.8257663 62.506008 -4.84178162 63.60191345 C-5 66 -5 66 -6 67 C-7.87096111 67.12344027 -9.74650928 67.17792394 -11.62133789 67.20532227 C-13.42309227 67.2352401 -13.42309227 67.2352401 -15.26124573 67.26576233 C-16.5685112 67.28247482 -17.87577667 67.29918732 -19.22265625 67.31640625 C-20.56644847 67.33696958 -21.91023412 67.35796588 -23.25401306 67.37937927 C-26.79674987 67.43466419 -30.33954567 67.48404498 -33.88238525 67.53222656 C-37.4952115 67.58239487 -41.10795172 67.63810525 -44.72070312 67.69335938 C-51.81372747 67.80101937 -58.90682888 67.9024468 -66 68 C-65.86761878 69.9104339 -65.72753113 71.82033474 -65.58422852 73.72998047 C-65.50705093 74.79360809 -65.42987335 75.85723572 -65.35035706 76.95309448 C-64.87907834 81.05160394 -63.68959947 84.41963054 -61.9375 88.125 C-61.472229 89.14110352 -61.472229 89.14110352 -60.99755859 90.17773438 C-58.13792989 96.16824962 -54.60141782 101.1996487 -50 106 C-49.33484375 106.70511719 -48.6696875 107.41023438 -47.984375 108.13671875 C-37.49879456 118.33103307 -23.13160301 124.00379726 -8.625 124.375 C5.9094397 123.99367262 22.63370499 119.26076209 33.42578125 108.80859375 C45.83067469 94.55681791 52.74889715 79.78304585 52.28125 60.66796875 C51.03482046 44.41245011 43.24900836 30.42510244 31.28125 19.5234375 C22.47430114 12.44473398 12.60604129 7.36422476 1.25415039 6.43164062 C0.26870743 6.34869751 -0.71673553 6.26575439 -1.73204041 6.18029785 C-2.48046707 6.12079956 -3.22889374 6.06130127 -4 6 Z " fill="#453B79" transform="translate(390,116)"/>
<path d="M0 0 C13.53 0 27.06 0 41 0 C41 41.58 41 83.16 41 126 C27.47 126 13.94 126 0 126 C0 84.42 0 42.84 0 0 Z " fill="#CECECE" transform="translate(104,356)"/>
<path d="M0 0 C23.64849264 -1.3625892 44.62557161 6.0780916 63 21 C63.78890625 21.63679688 64.5778125 22.27359375 65.390625 22.9296875 C82.87746033 37.7399664 94.94582629 60.15706827 97 83 C97.85041785 97.32436635 98.2730621 111.4606376 93 125 C92.74798828 125.65500488 92.49597656 126.31000977 92.23632812 126.98486328 C86.96578601 140.45507972 80.03429394 151.50960179 70 162 C69.38640625 162.68835938 68.7728125 163.37671875 68.140625 164.0859375 C55.54028194 177.70938533 34.07386752 188.65478895 15.48535156 190.21044922 C10.31097481 190.40795202 5.16908636 190.27205718 0 190 C2.72985205 188.18009864 5.37684653 186.94803831 8.39331055 185.69238281 C32.70782546 175.53714909 51.38520345 158.23670543 62 134 C67.23054 121.1146165 69.38109084 108.55950824 69.3125 94.6875 C69.30686035 93.49342529 69.3012207 92.29935059 69.29541016 91.0690918 C69.17910821 82.63374612 68.61667307 75.06890442 66 67 C65.81195801 66.38721191 65.62391602 65.77442383 65.43017578 65.14306641 C57.80518131 40.70304833 41.2756377 20.8570279 18.8046875 8.6796875 C12.63885812 5.46707317 6.74823295 2.74147947 0 1 C0 0.67 0 0.34 0 0 Z " fill="#DBDBDC" transform="translate(381,86)"/>
<path d="M0 0 C3.21499429 1.39905246 5.23524687 3.01139581 7.5625 5.625 C8.14128906 6.25664062 8.72007812 6.88828125 9.31640625 7.5390625 C14.28877274 14.80725482 14.43789177 21.79776461 14.40405273 30.33178711 C14.41091599 31.54744858 14.41777924 32.76311005 14.42485046 34.01560974 C14.43995427 37.32987525 14.44162963 40.64357538 14.43590808 43.95783305 C14.43280404 46.73351692 14.43892211 49.50915059 14.44494683 52.28482729 C14.45896288 58.83730742 14.45745518 65.38965709 14.44604492 71.94213867 C14.43456607 78.68260646 14.44864177 85.42267624 14.4754414 92.1630916 C14.49765339 97.96889402 14.50422347 103.77457201 14.49836498 109.58041388 C14.49500733 113.03979473 14.49733035 116.49892054 14.51461601 119.9582653 C14.53306599 123.81860626 14.51884156 127.67846388 14.50170898 131.53881836 C14.51137695 132.67208557 14.52104492 133.80535278 14.53100586 134.97296143 C14.44905187 143.81488667 12.51028262 150.90524687 6.375 157.5 C5.78460938 158.1496875 5.19421875 158.799375 4.5859375 159.46875 C3 161 3 161 1 162 C-6.4740474 158.8442911 -10.43390016 155.14174231 -13.92853737 147.92948914 C-15.8253773 142.74333349 -15.70333938 137.6503173 -15.6628418 132.18164062 C-15.67320969 130.93803268 -15.68357758 129.69442474 -15.69425964 128.41313171 C-15.71658766 125.03039774 -15.71666101 121.64920772 -15.70455909 118.26652336 C-15.6973838 115.43115659 -15.70595652 112.59592353 -15.71446449 109.76056719 C-15.73435485 103.06697876 -15.72891736 96.37374803 -15.70678711 89.68017578 C-15.68442051 82.79862088 -15.70203837 75.91800401 -15.73983639 69.03653765 C-15.77116431 63.10409718 -15.77895845 57.17194564 -15.76788265 51.23943281 C-15.76142651 47.70672773 -15.76324783 44.17456346 -15.78720665 40.641922 C-15.81258285 36.70036691 -15.7887303 32.75991135 -15.76049805 28.81835938 C-15.77421448 27.66377731 -15.78793091 26.50919525 -15.80206299 25.31962585 C-15.69020366 17.47822517 -13.85691315 12.20192384 -9 6 C-6.4453125 3.7109375 -6.4453125 3.7109375 -4.125 2.375 C-2.95324219 1.67503906 -2.95324219 1.67503906 -1.7578125 0.9609375 C-1.17773438 0.64382813 -0.59765625 0.32671875 0 0 Z " fill="#F36275" transform="translate(370,320)"/>
<path d="M0 0 C50.16 0 100.32 0 152 0 C152 7.92 152 15.84 152 24 C101.84 24 51.68 24 0 24 C0 16.08 0 8.16 0 0 Z " fill="#F5AD24" transform="translate(104,214)"/>
<path d="M0 0 C50.16 0 100.32 0 152 0 C152 7.92 152 15.84 152 24 C101.84 24 51.68 24 0 24 C0 16.08 0 8.16 0 0 Z " fill="#F6AE23" transform="translate(104,153)"/>
<path d="M0 0 C50.16 0 100.32 0 152 0 C152 7.92 152 15.84 152 24 C101.84 24 51.68 24 0 24 C0 16.08 0 8.16 0 0 Z " fill="#F6AE23" transform="translate(104,92)"/>
<path d="M0 0 C0.98519623 -0.00218016 0.98519623 -0.00218016 1.99029541 -0.00440437 C4.21254716 -0.00808197 6.43473107 -0.00456983 8.65698242 -0.0011425 C10.25770605 -0.00229363 11.85842941 -0.00388109 13.45915222 -0.00586975 C17.87459005 -0.01006427 22.29000641 -0.00797182 26.70544434 -0.00488353 C31.46077626 -0.00263015 36.21610437 -0.00610873 40.97143555 -0.00886345 C50.29375524 -0.0133208 59.6160669 -0.01234483 68.93838692 -0.00945081 C76.51174104 -0.00719664 84.0850929 -0.00688431 91.65844727 -0.00797462 C93.27243487 -0.00820447 93.27243487 -0.00820447 94.91902828 -0.00843897 C97.10456975 -0.00875868 99.29011122 -0.00908289 101.47565269 -0.00941156 C121.9916609 -0.01226625 142.50766463 -0.0089795 163.0236721 -0.00361119 C180.64493403 0.00085684 198.26618937 0.0000809 215.88745117 -0.00452995 C236.32774463 -0.00987591 256.76803418 -0.01199156 277.20832825 -0.00891769 C279.38603719 -0.00859912 281.56374613 -0.00828475 283.74145508 -0.00797462 C284.81305846 -0.00782035 285.88466185 -0.00766607 286.98873806 -0.00750712 C294.5570275 -0.00664203 302.12531446 -0.00810468 309.69360352 -0.01045418 C318.91102345 -0.01325261 328.12843486 -0.012513 337.34585381 -0.00717343 C342.0528396 -0.00453701 346.75981117 -0.00353038 351.46679688 -0.00682259 C355.76968177 -0.00978674 360.07253915 -0.00819072 364.37542152 -0.00284503 C365.93797084 -0.00172136 367.50052244 -0.00231094 369.0630703 -0.00472082 C371.17538142 -0.00773048 373.28759638 -0.00467437 375.39990234 0 C377.16511482 0.00024353 377.16511482 0.00024353 378.96598816 0.00049198 C381.69995117 0.12584114 381.69995117 0.12584114 383.69995117 1.12584114 C383.74267217 2.79196019 383.74058949 4.45966999 383.69995117 6.12584114 C381.86783952 7.9579528 378.94588911 7.25134532 376.48892212 7.25168228 C375.49994214 7.25386244 375.49994214 7.25386244 374.49098277 7.25608665 C372.25413857 7.25977218 370.01736142 7.25624851 367.78051758 7.25282478 C366.17169471 7.2539756 364.56287211 7.25556285 362.95405006 7.25755203 C358.51161918 7.26175084 354.0692096 7.25965219 349.6267786 7.25656581 C344.84418145 7.25431416 340.06158811 7.25779014 335.2789917 7.26054573 C325.90139086 7.26500495 316.523798 7.26402629 307.14619684 7.26113309 C299.52847382 7.25887965 291.91075304 7.25856628 284.29302979 7.25965691 C283.21106311 7.25981014 282.12909644 7.25996337 281.0143429 7.26012125 C278.81672017 7.26044096 276.61909743 7.26076517 274.4214747 7.26109384 C253.78818554 7.26394908 233.15490083 7.26066093 212.52161241 7.25529347 C194.79655123 7.2508254 177.0714966 7.25160132 159.34643555 7.25621223 C138.78969655 7.26155723 118.23296144 7.26367438 97.67622185 7.26059997 C95.48643875 7.2602814 93.29665566 7.25996703 91.10687256 7.25965691 C90.02930525 7.25950263 88.95173795 7.25934836 87.84151709 7.2591894 C80.22818574 7.25832402 72.61485685 7.25978758 65.00152588 7.26213646 C55.73025436 7.26493383 46.45899132 7.26419754 37.18772078 7.25885572 C32.45251213 7.25621784 27.71731763 7.25521508 22.98210907 7.25850487 C18.65456435 7.26146608 14.32704701 7.25987797 9.9995048 7.25452732 C8.42684925 7.25340237 6.85419141 7.25399599 5.28153729 7.2564031 C3.1579845 7.25940622 1.03452783 7.25636355 -1.08901978 7.25168228 C-2.27282541 7.25151993 -3.45663105 7.25135758 -4.67630959 7.2511903 C-7.30004883 7.12584114 -7.30004883 7.12584114 -8.30004883 6.12584114 C-8.34068715 4.45966999 -8.34276983 2.79196019 -8.30004883 1.12584114 C-5.48393629 -0.28221513 -3.15149937 0.00043478 0 0 Z " fill="#3E3678" transform="translate(68.300048828125,504.87415885925293)"/>
<path d="M0 0 C0 18.48 0 36.96 0 56 C-18.48 56 -36.96 56 -56 56 C-54.53202216 38.38426595 -49.04093713 26.05443059 -36.1796875 13.84375 C-28.21863907 7.10967319 -20.04886477 3.56390788 -10 1 C-9.33871094 0.80148438 -8.67742187 0.60296875 -7.99609375 0.3984375 C-6 0 -6 0 0 0 Z " fill="#F16175" transform="translate(380,122)"/>
<path d="M0 0 C4.65191329 3.98735425 9.08759402 7.94221032 13.39428711 12.26489258 C13.9902771 12.85913025 14.58626709 13.45336792 15.20031738 14.06561279 C17.14516139 16.00609908 19.08637668 17.95016766 21.02734375 19.89453125 C22.38482814 21.25134139 23.74246089 22.6080031 25.10023499 23.96452332 C27.93181313 26.79463321 30.76158936 29.62652915 33.59008789 32.4597168 C37.2240874 36.09944591 40.86260195 39.73462334 44.50244808 43.36850452 C47.29994452 46.16239963 50.09507002 48.95865689 52.88946724 51.75565147 C54.23123239 53.09808539 55.5737454 54.43977222 56.91700554 55.78071022 C58.78425112 57.64543279 60.64828943 59.51330168 62.51147461 61.38208008 C63.07087234 61.93945358 63.63027008 62.49682709 64.20661926 63.0710907 C68 66.88573095 68 66.88573095 68 68 C45.56 68 23.12 68 0 68 C0 45.56 0 23.12 0 0 Z " fill="#62DFE5" transform="translate(307,11)"/>
<path d="M0 0 C0.66168434 -0.00155999 1.32336868 -0.00311998 2.00510406 -0.00472724 C4.23845092 -0.00873907 6.47173067 -0.00554691 8.70507812 -0.00241089 C10.29964233 -0.00376485 11.89420623 -0.00554475 13.48876953 -0.00772095 C17.83162191 -0.0122959 22.17445065 -0.01050547 26.51730347 -0.00734186 C31.0519009 -0.00481858 35.58649624 -0.00715571 40.12109375 -0.00872803 C47.73763392 -0.01054982 55.35416442 -0.00814317 62.97070312 -0.00338745 C71.78949001 0.00205519 80.60825378 0.00029254 89.4270401 -0.00521386 C96.9845525 -0.00974472 104.54205791 -0.01039567 112.09957123 -0.00777519 C116.61952595 -0.00621227 121.13946979 -0.00601906 125.65942383 -0.00931168 C129.90778694 -0.01219 134.15612012 -0.01021541 138.40447998 -0.00441742 C139.96824087 -0.00308961 141.53200425 -0.00348428 143.09576416 -0.00568008 C145.22142945 -0.0083908 147.34699726 -0.00501147 149.47265625 0 C150.66507935 0.00037703 151.85750244 0.00075405 153.08605957 0.0011425 C155.73632812 0.12698364 155.73632812 0.12698364 156.73632812 1.12698364 C156.83720024 3.63622518 156.87604845 6.11734748 156.86914062 8.62698364 C156.87009735 9.37786255 156.87105408 10.12874146 156.87203979 10.90237427 C156.87272151 12.49286991 156.87086784 14.08336832 156.86669922 15.67385864 C156.86135079 18.11663019 156.86664446 20.55921786 156.87304688 23.00198364 C156.87238609 24.54365072 156.87110493 26.08531768 156.86914062 27.62698364 C156.87116486 28.3623938 156.87318909 29.09780396 156.87527466 29.85549927 C156.85127973 35.01203204 156.85127973 35.01203204 155.73632812 36.12698364 C153.65035865 36.2260305 151.56097578 36.25330699 149.47265625 36.25396729 C148.81097191 36.25552728 148.14928757 36.25708727 147.46755219 36.25869453 C145.23420533 36.26270635 143.00092558 36.2595142 140.76757812 36.25637817 C139.17301392 36.25773213 137.57845002 36.25951204 135.98388672 36.26168823 C131.64103434 36.26626319 127.2982056 36.26447275 122.95535278 36.26130915 C118.42075535 36.25878587 113.88616001 36.26112299 109.3515625 36.26269531 C101.73502233 36.2645171 94.11849183 36.26211045 86.50195312 36.25735474 C77.68316624 36.2519121 68.86440247 36.25367475 60.04561615 36.25918114 C52.48810375 36.26371201 44.93059834 36.26436295 37.37308502 36.26174247 C32.8531303 36.26017955 28.33318646 36.25998634 23.81323242 36.26327896 C19.56486931 36.26615729 15.31653613 36.26418269 11.06817627 36.2583847 C9.50441538 36.2570569 7.940652 36.25745157 6.37689209 36.25964737 C4.2512268 36.26235809 2.12565899 36.25897875 0 36.25396729 C-1.1924231 36.25359026 -2.38484619 36.25321323 -3.61340332 36.25282478 C-6.26367188 36.12698364 -6.26367188 36.12698364 -7.26367188 35.12698364 C-7.36454399 32.61774211 -7.4033922 30.1366198 -7.39648438 27.62698364 C-7.3974411 26.87610474 -7.39839783 26.12522583 -7.39938354 25.35159302 C-7.40006526 23.76109738 -7.39821159 22.17059897 -7.39404297 20.58010864 C-7.38869454 18.1373371 -7.39398821 15.69474943 -7.40039062 13.25198364 C-7.39972984 11.71031657 -7.39844868 10.16864961 -7.39648438 8.62698364 C-7.39850861 7.89157349 -7.40053284 7.15616333 -7.40261841 6.39846802 C-7.37133276 -0.32484806 -6.54458559 0.0020693 0 0 Z M-1.26367188 6.12698364 C-1.26367188 14.04698364 -1.26367188 21.96698364 -1.26367188 30.12698364 C48.89632812 30.12698364 99.05632812 30.12698364 150.73632812 30.12698364 C150.73632812 22.20698364 150.73632812 14.28698364 150.73632812 6.12698364 C100.57632813 6.12698364 50.41632813 6.12698364 -1.26367188 6.12698364 Z " fill="#3F377A" transform="translate(105.263671875,85.87301635742188)"/>
<path d="M0 0 C0.66168434 -0.00155999 1.32336868 -0.00311998 2.00510406 -0.00472724 C4.23845092 -0.00873907 6.47173067 -0.00554691 8.70507812 -0.00241089 C10.29964233 -0.00376485 11.89420623 -0.00554475 13.48876953 -0.00772095 C17.83162191 -0.0122959 22.17445065 -0.01050547 26.51730347 -0.00734186 C31.0519009 -0.00481858 35.58649624 -0.00715571 40.12109375 -0.00872803 C47.73763392 -0.01054982 55.35416442 -0.00814317 62.97070312 -0.00338745 C71.78949001 0.00205519 80.60825378 0.00029254 89.4270401 -0.00521386 C96.9845525 -0.00974472 104.54205791 -0.01039567 112.09957123 -0.00777519 C116.61952595 -0.00621227 121.13946979 -0.00601906 125.65942383 -0.00931168 C129.90778694 -0.01219 134.15612012 -0.01021541 138.40447998 -0.00441742 C139.96824087 -0.00308961 141.53200425 -0.00348428 143.09576416 -0.00568008 C145.22142945 -0.0083908 147.34699726 -0.00501147 149.47265625 0 C150.66507935 0.00037703 151.85750244 0.00075405 153.08605957 0.0011425 C155.73632812 0.12698364 155.73632812 0.12698364 156.73632812 1.12698364 C156.84955246 3.55188735 156.90049688 5.94725226 156.90429688 8.37307739 C156.90762527 9.09938858 156.91095367 9.82569977 156.91438293 10.57402039 C156.91945487 12.1132341 156.92179118 13.65245885 156.92163086 15.19168091 C156.92381579 17.55115835 156.94196378 19.91016725 156.9609375 22.26956177 C156.96387164 23.7623987 156.9658563 25.25523787 156.96679688 26.74807739 C156.97398239 27.45645248 156.98116791 28.16482758 156.98857117 28.89466858 C156.9651515 33.89816027 156.9651515 33.89816027 154.73632812 36.12698364 C151.9758358 36.3730793 151.9758358 36.3730793 148.38363647 36.36749268 C147.72447569 36.36920153 147.06531492 36.37091038 146.38617957 36.37267101 C144.16733753 36.37597728 141.94879486 36.36494382 139.72998047 36.35403442 C138.14349881 36.35347055 136.55701663 36.3537864 134.97053528 36.35491943 C130.65463025 36.3554949 126.33883566 36.3437094 122.02295637 36.32977152 C117.51593042 36.3172963 113.00890213 36.3160962 108.50186157 36.3137207 C99.96311396 36.30749647 91.42441736 36.29107294 82.88569224 36.27102172 C73.16636998 36.248692 63.44704532 36.23767667 53.72770381 36.22763085 C33.73055007 36.20670751 13.73344231 36.17151326 -6.26367188 36.12698364 C-7.76443615 33.12545509 -7.4058878 30.03878355 -7.39648438 26.74807739 C-7.39791946 25.65717552 -7.39791946 25.65717552 -7.39938354 24.54423523 C-7.40006423 23.00679437 -7.39821773 21.46935063 -7.39404297 19.93191528 C-7.38868539 17.57044064 -7.39399565 15.20915554 -7.40039062 12.84768677 C-7.39972998 11.35614989 -7.39844909 9.86461313 -7.39648438 8.37307739 C-7.39850861 7.66267807 -7.40053284 6.95227875 -7.40261841 6.22035217 C-7.37074885 -0.39339483 -6.4190413 0.0020296 0 0 Z M-1.26367188 6.12698364 C-1.26367188 14.04698364 -1.26367188 21.96698364 -1.26367188 30.12698364 C48.89632812 30.12698364 99.05632812 30.12698364 150.73632812 30.12698364 C150.73632812 22.20698364 150.73632812 14.28698364 150.73632812 6.12698364 C100.57632813 6.12698364 50.41632813 6.12698364 -1.26367188 6.12698364 Z " fill="#413979" transform="translate(105.263671875,146.87301635742188)"/>
<path d="M0 0 C0.66168434 -0.00155999 1.32336868 -0.00311998 2.00510406 -0.00472724 C4.23845092 -0.00873907 6.47173067 -0.00554691 8.70507812 -0.00241089 C10.29964233 -0.00376485 11.89420623 -0.00554475 13.48876953 -0.00772095 C17.83162191 -0.0122959 22.17445065 -0.01050547 26.51730347 -0.00734186 C31.0519009 -0.00481858 35.58649624 -0.00715571 40.12109375 -0.00872803 C47.73763392 -0.01054982 55.35416442 -0.00814317 62.97070312 -0.00338745 C71.78949001 0.00205519 80.60825378 0.00029254 89.4270401 -0.00521386 C96.9845525 -0.00974472 104.54205791 -0.01039567 112.09957123 -0.00777519 C116.61952595 -0.00621227 121.13946979 -0.00601906 125.65942383 -0.00931168 C129.90778694 -0.01219 134.15612012 -0.01021541 138.40447998 -0.00441742 C139.96824087 -0.00308961 141.53200425 -0.00348428 143.09576416 -0.00568008 C145.22142945 -0.0083908 147.34699726 -0.00501147 149.47265625 0 C150.66507935 0.00037703 151.85750244 0.00075405 153.08605957 0.0011425 C155.73632812 0.12698364 155.73632812 0.12698364 156.73632812 1.12698364 C156.84955246 3.55188735 156.90049688 5.94725226 156.90429688 8.37307739 C156.90762527 9.09938858 156.91095367 9.82569977 156.91438293 10.57402039 C156.91945487 12.1132341 156.92179118 13.65245885 156.92163086 15.19168091 C156.92381579 17.55115835 156.94196378 19.91016725 156.9609375 22.26956177 C156.96387164 23.7623987 156.9658563 25.25523787 156.96679688 26.74807739 C156.97398239 27.45645248 156.98116791 28.16482758 156.98857117 28.89466858 C156.9651515 33.89816027 156.9651515 33.89816027 154.73632812 36.12698364 C151.99703979 36.37866592 151.99703979 36.37866592 148.43505859 36.38095093 C147.7813925 36.38407091 147.1277264 36.38719089 146.45425224 36.39040542 C144.25391621 36.39841185 142.05385394 36.39205166 139.85351562 36.38577271 C138.28012937 36.3884814 136.70674439 36.39204165 135.13336182 36.39639282 C130.8524593 36.40553358 126.57165286 36.40196565 122.2907486 36.39563465 C117.81801589 36.39058336 113.34529161 36.39526367 108.87255859 36.39840698 C101.36033648 36.40204918 93.84815365 36.3972409 86.3359375 36.38772583 C77.64152567 36.37684079 68.94720763 36.38036619 60.25279808 36.39137864 C52.79800296 36.40044431 45.34323612 36.40174033 37.88843727 36.3965013 C33.43161099 36.39337763 28.97482884 36.39298311 24.51800537 36.39957428 C20.32868798 36.40533668 16.13949192 36.40137125 11.95018768 36.38978577 C10.40942334 36.38713323 8.86864884 36.38791433 7.32788849 36.3923111 C5.23098536 36.39774478 3.13447547 36.39095943 1.03759766 36.38095093 C-0.13785614 36.38019688 -1.31330994 36.37944283 -2.52438354 36.37866592 C-5.26367188 36.12698364 -5.26367188 36.12698364 -7.26367188 34.12698364 C-7.4508904 31.62954502 -7.51946954 29.24509681 -7.49414062 26.74807739 C-7.4936824 26.02080948 -7.49322418 25.29354156 -7.49275208 24.54423523 C-7.48973024 23.00677865 -7.48184593 21.46932512 -7.46948242 19.93191528 C-7.45121761 17.57039629 -7.44897278 15.20926904 -7.44921875 12.84768677 C-7.44430391 11.3561469 -7.43847573 9.8646097 -7.43164062 8.37307739 C-7.4305278 7.66267807 -7.42941498 6.95227875 -7.42826843 6.22035217 C-7.36379758 -0.39012384 -6.41844885 0.00202941 0 0 Z M-1.26367188 6.12698364 C-1.26367188 14.04698364 -1.26367188 21.96698364 -1.26367188 30.12698364 C48.89632812 30.12698364 99.05632812 30.12698364 150.73632812 30.12698364 C150.73632812 22.20698364 150.73632812 14.28698364 150.73632812 6.12698364 C100.57632813 6.12698364 50.41632813 6.12698364 -1.26367188 6.12698364 Z " fill="#423B7A" transform="translate(105.263671875,207.87301635742188)"/>
<path d="M0 0 C6.38483644 0.63848364 12.75546572 1.30029496 19.125 2.0625 C21.72375 2.371875 24.3225 2.68125 27 3 C27 13.56 27 24.12 27 35 C22.71 35.66 18.42 36.32 14 37 C8.43766833 39.89867988 4.92676744 42.89436047 0 47 C0 31.49 0 15.98 0 0 Z " fill="#62DEE4" transform="translate(353,279)"/>
<path d="M0 0 C7.87700252 6.75171645 7.87700252 6.75171645 11.00756836 9.87817383 C11.70776596 10.57521927 12.40796356 11.27226471 13.12937927 11.99043274 C13.85883255 12.72191025 14.58828583 13.45338776 15.33984375 14.20703125 C16.10680069 14.97303146 16.87375763 15.73903168 17.66395569 16.52824402 C19.27109547 18.13470736 20.87698941 19.74241795 22.48168945 21.35131836 C24.95084704 23.82587623 27.42535325 26.29499643 29.90039062 28.76367188 C31.4638628 30.32780406 33.02702518 31.892246 34.58984375 33.45703125 C35.33346664 34.19862991 36.07708954 34.94022858 36.84324646 35.70429993 C37.52137894 36.38558456 38.19951141 37.0668692 38.89819336 37.76879883 C39.79918007 38.67097893 39.79918007 38.67097893 40.71836853 39.59138489 C42 41 42 41 42 42 C28.14 42 14.28 42 0 42 C0 28.14 0 14.28 0 0 Z " fill="#63BCE7" transform="translate(307,37)"/>
<path d="M0 0 C1.31828041 0.00068733 1.31828041 0.00068733 2.66319275 0.00138855 C4.5200231 0.00440849 6.37685098 0.01228709 8.23364258 0.0246582 C11.08228485 0.04292029 13.93060216 0.04516781 16.77929688 0.04492188 C18.58203407 0.04983697 20.38476906 0.05566525 22.1875 0.0625 C23.04271744 0.06361282 23.89793488 0.06472565 24.77906799 0.06587219 C30.79519796 0.11439586 30.79519796 0.11439586 33.02734375 1.23046875 C33.02734375 3.21046875 33.02734375 5.19046875 33.02734375 7.23046875 C18.50734375 7.23046875 3.98734375 7.23046875 -10.97265625 7.23046875 C-11.30265625 5.58046875 -11.63265625 3.93046875 -11.97265625 2.23046875 C-8.01124542 -0.4104718 -4.59463195 -0.03869558 0 0 Z " fill="#3E3678" transform="translate(478.97265625,504.76953125)"/>
<path d="M0 0 C0.87789688 -0.0033284 1.75579376 -0.0066568 2.66029358 -0.01008606 C4.51888504 -0.01515343 6.37748562 -0.01749444 8.23608398 -0.01733398 C11.08267172 -0.01951974 13.92887154 -0.03767533 16.77539062 -0.05664062 C18.57942575 -0.0595747 20.38346273 -0.0615594 22.1875 -0.0625 C23.46728981 -0.07327827 23.46728981 -0.07327827 24.77293396 -0.08427429 C30.8169144 -0.06085915 30.8169144 -0.06085915 34.16015625 2.16796875 C33.83015625 3.81796875 33.50015625 5.46796875 33.16015625 7.16796875 C18.64015625 7.16796875 4.12015625 7.16796875 -10.83984375 7.16796875 C-10.83984375 5.18796875 -10.83984375 3.20796875 -10.83984375 1.16796875 C-7.4819447 -0.51098077 -3.69299629 0.00480539 0 0 Z " fill="#3E3678" transform="translate(10.83984375,504.83203125)"/>
<path d="M0 0 C7.59 0 15.18 0 23 0 C23 7.59 23 15.18 23 23 C15.11136861 16.23831595 15.11136861 16.23831595 11.81640625 12.94921875 C10.76743164 11.90217773 10.76743164 11.90217773 9.69726562 10.83398438 C8.99279297 10.12564453 8.28832031 9.41730469 7.5625 8.6875 C6.83095703 7.95982422 6.09941406 7.23214844 5.34570312 6.48242188 C4.65541016 5.79083984 3.96511719 5.09925781 3.25390625 4.38671875 C2.62814697 3.75983154 2.0023877 3.13294434 1.35766602 2.48706055 C0 1 0 1 0 0 Z " fill="#62E0E6" transform="translate(277,6)"/>
<path d="M0 0 C2.02054804 1.64169528 4.02043058 3.30911778 6 5 C6 5.33 6 5.66 6 6 C4.02 6 2.04 6 0 6 C0 4.02 0 2.04 0 0 Z " fill="#62DDE4" transform="translate(353,476)"/>
</svg>
