<?xml version="1.0" encoding="UTF-8"?>
<svg version="1.1" xmlns="http://www.w3.org/2000/svg" width="512" height="512">
<path d="M0 0 C0.99386719 0.79148438 1.98773438 1.58296875 3.01171875 2.3984375 C17.29326954 13.98640179 30.157627 27.14743425 41 42 C41.6290625 42.845625 42.258125 43.69125 42.90625 44.5625 C78.71741558 94.04701971 90.05710199 154.18137427 81 214 C81.68513672 214.00410889 82.37027344 214.00821777 83.07617188 214.01245117 C86.21828989 214.04560147 89.35852372 214.11626885 92.5 214.1875 C93.57765625 214.19330078 94.6553125 214.19910156 95.765625 214.20507812 C103.65670957 214.42160179 108.90559664 215.91718639 114.55249023 221.5480957 C118.0473187 225.52713626 119.11986533 228.5592087 119.15390015 233.748703 C119.16250061 234.72572174 119.17110107 235.70274048 119.17996216 236.70936584 C119.18635208 238.31538918 119.18635208 238.31538918 119.19287109 239.95385742 C119.20104858 241.08261292 119.20922607 242.21136841 119.21765137 243.37432861 C119.24250836 247.11803658 119.2590227 250.86170661 119.2734375 254.60546875 C119.28142302 256.5225788 119.28142302 256.5225788 119.28956985 258.47841835 C119.31080018 263.85114474 119.32992943 269.22385787 119.34119225 274.59661388 C119.35741525 282.28385187 119.3905558 289.97058315 119.44759309 297.65763015 C119.49105213 303.72260493 119.50694637 309.78738188 119.51332474 315.85250282 C119.52004016 318.42768268 119.53526958 321.00285508 119.55921555 323.57793236 C119.5908465 327.18540228 119.59090594 330.79159762 119.58349609 334.39916992 C119.59990143 335.45973099 119.61630676 336.52029205 119.63320923 337.61299133 C119.57657897 344.36028734 118.35483606 348.7723249 114 354 C108.27752723 359.5757427 102.48752647 360.22663867 94.80793762 360.17900085 C93.73106186 360.1623085 92.6541861 360.14561615 91.54467773 360.12841797 C89.16662151 360.10928723 86.78856464 360.09023792 84.4105072 360.07125854 C82.52370397 360.05077265 82.52370397 360.05077265 80.59878349 360.02987289 C76.63972424 359.99176524 72.68089988 359.97354296 68.72169495 359.96463013 C68.05047794 359.96301467 67.37926094 359.96139921 66.68770403 359.9597348 C65.31509606 359.95649738 63.94248793 359.95332768 62.56987965 359.95022416 C53.36319233 359.92852077 44.15747312 359.89118237 34.95141602 359.77734375 C28.72891725 359.70059663 22.50779671 359.66793457 16.28482395 359.68324578 C13.00359153 359.68964243 9.72639893 359.66875879 6.44564629 359.60717392 C-10.95162648 359.29401103 -22.57596171 361.63374458 -36.96511459 371.64382935 C-41.27044012 374.51315856 -46.01939802 376.4035475 -50.8125 378.3125 C-51.80056641 378.71291504 -52.78863281 379.11333008 -53.80664062 379.52587891 C-109.99177315 401.72806837 -172.7438039 400.10429806 -228.125 376.25 C-232.69747332 374.24261495 -236.96736713 372.12894994 -241.03829956 369.21922302 C-254.90253786 359.52636214 -267.52013821 359.53361996 -284.0078125 359.84765625 C-286.67210097 359.85591219 -289.33595928 359.85942126 -292.00021362 359.85630798 C-298.25115366 359.85811473 -304.50035005 359.91194939 -310.75077903 359.9885754 C-321.95774726 360.12445329 -333.1652393 360.17409226 -344.37295234 360.19801325 C-348.92236432 360.21019832 -353.47034353 360.26170871 -358.01931763 360.32350159 C-360.40366125 360.34016782 -362.78800978 360.35614993 -365.17236328 360.37133789 C-366.24159531 360.39364975 -367.31082733 360.41596161 -368.41246033 360.43894958 C-375.52623488 360.45302036 -382.13805523 359.52453253 -387.58636665 354.55223179 C-391.28600725 350.30194831 -393.24714913 346.73559452 -393.26069641 341.11758423 C-393.26778122 340.13630051 -393.27486603 339.15501678 -393.28216553 338.14399719 C-393.27968811 337.07376816 -393.27721069 336.00353912 -393.2746582 334.90087891 C-393.27976913 333.7687648 -393.28488007 332.6366507 -393.29014587 331.4702301 C-393.30406266 327.72228734 -393.30308341 323.97452805 -393.30078125 320.2265625 C-393.30466721 317.6234836 -393.30900167 315.02040533 -393.31376648 312.41732788 C-393.32197858 306.95821503 -393.32107227 301.49915393 -393.31567383 296.04003906 C-393.30963652 289.7370467 -393.32193945 283.43427771 -393.3432439 277.13132346 C-393.3630067 271.06045872 -393.36603086 264.98969816 -393.36250877 258.91880417 C-393.36302238 256.33921153 -393.36826753 253.75961536 -393.37832069 251.18004227 C-393.3906535 247.57248983 -393.3839116 243.96545429 -393.37231445 240.35791016 C-393.37995819 239.29172958 -393.38760193 238.22554901 -393.39547729 237.12705994 C-393.34874698 230.55204044 -392.71529349 225.91784562 -388.0625 220.91796875 C-387.381875 220.34691406 -386.70125 219.77585937 -386 219.1875 C-385.319375 218.60355469 -384.63875 218.01960938 -383.9375 217.41796875 C-380.56374843 214.94887234 -377.5114062 214.83375579 -373.45703125 214.68359375 C-372.38388672 214.64169922 -371.31074219 214.59980469 -370.20507812 214.55664062 C-368.52575195 214.49766602 -368.52575195 214.49766602 -366.8125 214.4375 C-365.68134766 214.39431641 -364.55019531 214.35113281 -363.38476562 214.30664062 C-360.58996646 214.20050901 -357.79507838 214.09845615 -355 214 C-355.09087891 213.39978027 -355.18175781 212.79956055 -355.27539062 212.18115234 C-362.39771505 163.64890321 -356.56413133 114.45230286 -333 71 C-332.65888184 70.35401855 -332.31776367 69.70803711 -331.96630859 69.04248047 C-316.86101121 40.45709468 -295.12832286 15.07367568 -269 -4 C-268.154375 -4.6290625 -267.30875 -5.258125 -266.4375 -5.90625 C-191.13831129 -60.39908393 -88.80052567 -59.9556069 0 0 Z " fill="#23A4E9" transform="translate(393,82)"/>
<path d="M0 0 C0.81823762 -0.00265183 1.63647525 -0.00530365 2.47950795 -0.00803584 C5.24496267 -0.01574783 8.01037313 -0.01628874 10.7758379 -0.01688576 C12.76912977 -0.02089912 14.76242083 -0.02533713 16.7557109 -0.03016531 C22.25184907 -0.0421506 27.74797846 -0.04778378 33.24412715 -0.05234647 C39.16453401 -0.0582951 45.08493033 -0.06990673 51.00533009 -0.08063698 C64.63563215 -0.10401687 78.26593839 -0.11857013 91.89625416 -0.13086639 C96.61157969 -0.13512062 101.32690484 -0.13968633 106.04222989 -0.14444971 C131.10934429 -0.16970875 156.17645935 -0.19175874 181.24358368 -0.20417786 C187.05184589 -0.20709923 192.86010808 -0.21006674 198.66837025 -0.21308327 C199.38997938 -0.21345418 200.11158851 -0.21382509 200.85506459 -0.21420723 C224.25400981 -0.22636412 247.65287983 -0.25731041 271.05178973 -0.29900479 C295.10340148 -0.34178411 319.15497351 -0.36841778 343.20662433 -0.37365257 C346.60311692 -0.37439303 349.99960944 -0.37530371 353.39610195 -0.37631035 C354.39880087 -0.37659627 354.39880087 -0.37659627 355.42175634 -0.37688797 C365.51635105 -0.38018488 375.61086108 -0.39747917 385.70542431 -0.42220116 C397.18735444 -0.45015971 408.66914163 -0.46121938 420.15110316 -0.4500057 C426.01132544 -0.44480846 431.87124816 -0.44777528 437.73142719 -0.47247124 C443.09503767 -0.4948863 448.45813205 -0.49428395 453.8217511 -0.47526737 C455.76325153 -0.4724565 457.70478638 -0.47812585 459.64623126 -0.4930803 C462.28464514 -0.5121625 464.92121403 -0.50041444 467.55958557 -0.48101807 C468.31421511 -0.49386729 469.06884466 -0.50671651 469.84634176 -0.5199551 C476.30790461 -0.41550719 481.08199355 2.16135318 485.6623749 6.68586973 C489.13312233 10.68025978 490.21425809 13.69578414 490.24829578 18.88571739 C490.25689625 19.86273613 490.26549671 20.83975487 490.2743578 21.84638023 C490.28074772 23.45240356 490.28074772 23.45240356 490.28726673 25.09087181 C490.29544422 26.2196273 490.30362171 27.3483828 490.312047 28.511343 C490.336904 32.25505097 490.35341834 35.99872099 490.36783314 39.74248314 C490.37581865 41.65959319 490.37581865 41.65959319 490.38396549 43.61543274 C490.40519582 48.98815913 490.42432506 54.36087226 490.43558788 59.73362827 C490.45181089 67.42086626 490.48495143 75.10759753 490.54198873 82.79464453 C490.58544776 88.85961932 490.60134201 94.92439627 490.60772038 100.98951721 C490.6144358 103.56469707 490.62966522 106.13986947 490.65361118 108.71494675 C490.68524214 112.32241667 490.68530158 115.92861201 490.67789173 119.53618431 C490.69429707 120.59674538 490.7107024 121.65730644 490.72760487 122.75000572 C490.67097461 129.49730173 489.4492317 133.90933929 485.09439564 139.13701439 C479.37192287 144.71275709 473.5819221 145.36365306 465.90233326 145.31601524 C464.8254575 145.29932289 463.74858173 145.28263054 462.63907337 145.26543236 C460.26101715 145.24630162 457.88296027 145.22725231 455.50490284 145.20827293 C453.6180996 145.18778704 453.6180996 145.18778704 451.69317913 145.16688728 C447.73411988 145.12877963 443.77529552 145.11055735 439.81609058 145.10164452 C439.14487358 145.10002906 438.47365658 145.0984136 437.78209966 145.09674919 C436.4094917 145.09351177 435.03688357 145.09034207 433.66427529 145.08723855 C424.45758797 145.06553516 415.25186876 145.02819676 406.04581165 144.91435814 C399.82331289 144.83761102 393.60219235 144.80494895 387.37921959 144.82026017 C384.09798717 144.82665681 380.82079457 144.80577318 377.54004192 144.74418831 C360.14276915 144.43102542 348.51843393 146.77075896 334.12928104 156.78084373 C329.82395552 159.65017295 325.07499762 161.54056189 320.28189564 163.44951439 C319.29382923 163.84992943 318.30576283 164.25034447 317.28775501 164.6628933 C261.10262249 186.86508276 198.35059174 185.24131245 142.96939564 161.38701439 C138.39692232 159.37962933 134.12702851 157.26596433 130.05609608 154.35623741 C116.19185778 144.66337653 103.57425743 144.67063434 87.08658314 144.98467064 C84.42229467 144.99292658 81.75843636 144.99643565 79.09418201 144.99332237 C72.84324198 144.99512911 66.59404559 145.04896378 60.3436166 145.12558979 C49.13664838 145.26146768 37.92915634 145.31110665 26.7214433 145.33502764 C22.17203131 145.34721271 17.62405211 145.3987231 13.07507801 145.46051598 C10.69073439 145.47718221 8.30638585 145.49316432 5.92203236 145.50835228 C4.85280033 145.53066414 3.78356831 145.552976 2.68193531 145.57596397 C-4.43183924 145.59003474 -11.04365959 144.66154692 -16.49197102 139.68924618 C-20.19161161 135.4389627 -22.1527535 131.87260891 -22.16630077 126.25459862 C-22.17338558 125.2733149 -22.18047039 124.29203117 -22.18776989 123.28101158 C-22.18529247 122.21078255 -22.18281506 121.14055351 -22.18026257 120.0378933 C-22.1853735 118.90577919 -22.19048443 117.77366508 -22.19575024 116.60724449 C-22.20966702 112.85930173 -22.20868777 109.11154244 -22.20638561 105.36357689 C-22.21027157 102.76049798 -22.21460603 100.15741971 -22.21937084 97.55434227 C-22.22758294 92.09522942 -22.22667663 86.63616832 -22.22127819 81.17705345 C-22.21524088 74.87406109 -22.22754381 68.5712921 -22.24884826 62.26833785 C-22.26861106 56.1974731 -22.27163522 50.12671255 -22.26811314 44.05581856 C-22.26862675 41.47622592 -22.2738719 38.89662975 -22.28392506 36.31705666 C-22.29625787 32.70950422 -22.28951596 29.10246868 -22.27791882 25.49492455 C-22.28556255 24.42874397 -22.29320629 23.3625634 -22.30108166 22.26407433 C-22.25435134 15.68905483 -21.62089785 11.05486001 -16.96810436 6.05498314 C-16.28747936 5.48392845 -15.60685436 4.91287376 -14.90560436 4.32451439 C-14.22497936 3.74056908 -13.54435436 3.15662376 -12.84310436 2.55498314 C-8.84653877 -0.36992273 -4.73040438 -0.00739359 0 0 Z " fill="#F2F0F5" transform="translate(21.905604362487793,296.8629856109619)"/>
<path d="M0 0 C0 0.66 0 1.32 0 2 C-1.65322266 2.51046875 -1.65322266 2.51046875 -3.33984375 3.03125 C-30.01067572 11.46906071 -52.16480405 25.28955371 -72 45 C-72.495 45.99 -72.495 45.99 -73 47 C-73.66 47 -74.32 47 -75 47 C-75.41185547 47.88026855 -75.41185547 47.88026855 -75.83203125 48.77832031 C-76.95877819 50.92158895 -78.17988545 52.65822636 -79.6875 54.546875 C-80.48087769 55.55451904 -80.48087769 55.55451904 -81.2902832 56.58251953 C-82.13659302 57.65542236 -82.13659302 57.65542236 -83 58.75 C-97.02802726 76.84127771 -107.74710778 96.64854996 -115.9375 118 C-116.29755127 118.90991699 -116.65760254 119.81983398 -117.02856445 120.75732422 C-118.69596616 125.07290786 -120.14463036 129.18328062 -120.890625 133.7578125 C-122.67922225 144.14148647 -122.67922225 144.14148647 -127.03710938 147.63134766 C-132.25811184 150.85957723 -137.84204889 153.30983698 -143.43994141 155.80419922 C-161.44019178 164.21209797 -179.66227732 182.20407285 -187.0234375 200.55078125 C-192.21812953 215.11021625 -190.77801632 229.30096544 -184.25 243.125 C-181.75754078 247.9225155 -178.86606757 252.10182584 -175.41796875 256.2578125 C-174 258 -174 258 -173 260 C-177.95 260 -182.9 260 -188 260 C-201.19503074 213.81739243 -189.48196503 157.45678615 -167 116 C-166.65888184 115.35401855 -166.31776367 114.70803711 -165.96630859 114.04248047 C-150.86101121 85.45709468 -129.12832286 60.07367568 -103 41 C-102.154375 40.3709375 -101.30875 39.741875 -100.4375 39.09375 C-74.15959603 20.07684581 -33.49033496 -1.83788424 0 0 Z " fill="#63DEFB" transform="translate(227,37)"/>
<path d="M0 0 C5.40763101 -0.12425623 10.81441829 -0.21464659 16.22314453 -0.2746582 C18.06020599 -0.29969289 19.89716893 -0.33373145 21.73388672 -0.37719727 C24.38533927 -0.43834037 27.03546734 -0.46631957 29.6875 -0.48828125 C30.49928711 -0.51408768 31.31107422 -0.5398941 32.14746094 -0.56648254 C38.95562422 -0.56977801 43.72939765 1.76195698 48.56494141 6.54936218 C52.04113077 10.53987701 53.11986592 13.55929907 53.15390015 18.748703 C53.16250061 19.72572174 53.17110107 20.70274048 53.17996216 21.70936584 C53.18422211 22.78004807 53.18848206 23.85073029 53.19287109 24.95385742 C53.20513733 26.64699066 53.20513733 26.64699066 53.21765137 28.37432861 C53.24250836 32.11803658 53.2590227 35.86170661 53.2734375 39.60546875 C53.27876118 40.88354212 53.28408485 42.16161549 53.28956985 43.47841835 C53.31080018 48.85114474 53.32992943 54.22385787 53.34119225 59.59661388 C53.35741525 67.28385187 53.3905558 74.97058315 53.44759309 82.65763015 C53.49105213 88.72260493 53.50694637 94.78738188 53.51332474 100.85250282 C53.52004016 103.42768268 53.53526958 106.00285508 53.55921555 108.57793236 C53.5908465 112.18540228 53.59090594 115.79159762 53.58349609 119.39916992 C53.59990143 120.45973099 53.61630676 121.52029205 53.63320923 122.61299133 C53.57657897 129.36028734 52.35483606 133.7723249 48 139 C41.67192342 145.16581821 34.93497255 145.28588216 26.5703125 145.1953125 C25.57998016 145.1924826 24.58964783 145.18965271 23.56930542 145.18673706 C20.42107824 145.1755847 17.27314051 145.15048907 14.125 145.125 C11.98437912 145.11496382 9.84375376 145.10583908 7.703125 145.09765625 C2.46865203 145.07566158 -2.7656533 145.04223333 -8 145 C-8 144.67 -8 144.34 -8 144 C-7.34773438 143.84144531 -6.69546875 143.68289063 -6.0234375 143.51953125 C-0.1411785 141.94919367 3.81781038 140.4882035 8 136 C11.33542459 129.9363987 11.4392165 124.6070265 11.41992188 117.77563477 C11.43262619 116.11088608 11.43262619 116.11088608 11.44558716 114.4125061 C11.46892587 110.75535525 11.46998007 107.09862585 11.46875 103.44140625 C11.47585301 100.89224581 11.48355221 98.34308697 11.49182129 95.79393005 C11.50525866 90.45526052 11.50701977 85.11674577 11.50097656 79.77807617 C11.49433597 73.62202958 11.51720917 67.46658219 11.55429029 61.31065708 C11.58876825 55.36953867 11.5953178 49.42860397 11.59120178 43.48737907 C11.592893 40.96803947 11.60253559 38.44869196 11.62034607 35.92941475 C11.64253078 32.40371542 11.63283458 28.87945502 11.61523438 25.35375977 C11.62849762 24.31818436 11.64176086 23.28260895 11.65542603 22.21565247 C11.57934863 15.64210112 10.41775146 11.01023551 6 6 C4.07098561 4.48381659 2.1055279 3.27310989 0 2 C0 1.34 0 0.68 0 0 Z " fill="#D1CEEB" transform="translate(459,297)"/>
<path d="M0 0 C78.87 0 157.74 0 239 0 C211.19711073 27.80288927 157.3699053 36.16495153 119.8125 36.25 C80.61272434 36.23797848 42.45589387 26.59797472 8.375 7.125 C7.5382373 6.64836914 6.70147461 6.17173828 5.83935547 5.68066406 C5.07510254 5.23174805 4.31084961 4.78283203 3.5234375 4.3203125 C2.84200684 3.92086426 2.16057617 3.52141602 1.45849609 3.10986328 C0.97719238 2.7436084 0.49588867 2.37735352 0 2 C0 1.34 0 0.68 0 0 Z " fill="#1BABEC" transform="translate(137,441)"/>
<path d="M0 0 C0.495 0.99 0.495 0.99 1 2 C0.38222962 3.5422659 -0.25056596 5.07965812 -0.94360352 6.58959961 C-10.62658936 27.7500329 -15.44487206 51.06941314 -19.14868164 73.91967773 C-19.26075958 74.60943695 -19.37283752 75.29919617 -19.48831177 76.00985718 C-19.78701462 77.86955641 -20.07636802 79.73075065 -20.36499023 81.59204102 C-21.03063367 85.1644042 -21.94966653 88.52428557 -23 92 C-23.92409668 92.15033691 -24.84819336 92.30067383 -25.80029297 92.45556641 C-59.22335532 97.82759144 -59.22335532 97.82759144 -91.92163086 106.44262695 C-94 107 -94 107 -97 107 C-94.81400376 98.15191998 -91.03773679 90.123454 -87 82 C-86.62423828 81.23913086 -86.24847656 80.47826172 -85.86132812 79.69433594 C-80.41458254 68.75165413 -74.48314247 58.66773729 -67 49 C-66.28328125 48.06027344 -65.5665625 47.12054688 -64.828125 46.15234375 C-47.62413432 24.33341396 -26.23827539 8.99598013 0 0 Z " fill="#21D4FA" transform="translate(228,64)"/>
<path d="M0 0 C0.08567655 8.13859267 -0.15026861 16.20599087 -0.65625 24.328125 C-0.71522461 25.3186084 -0.77419922 26.3090918 -0.83496094 27.32958984 C-1.05274664 30.96996161 -1.27671856 34.60996118 -1.5 38.25 C-1.995 46.4175 -2.49 54.585 -3 63 C-30.06 63 -57.12 63 -85 63 C-81.82636627 23.32957844 -81.82636627 23.32957844 -78.77099609 19.43237305 C-74.91051527 16.31003489 -69.71721102 15.22227728 -65.0625 13.6875 C-63.8655249 13.29159668 -62.6685498 12.89569336 -61.43530273 12.48779297 C-42.42214208 6.38663804 -20.15192384 0 0 0 Z " fill="#32D6FB" transform="translate(202,181)"/>
<path d="M0 0 C1.01114868 -0.00315216 2.02229736 -0.00630432 3.06408691 -0.009552 C4.7000885 -0.00651566 4.7000885 -0.00651566 6.36914062 -0.00341797 C8.05009827 -0.00485306 8.05009827 -0.00485306 9.76501465 -0.00631714 C12.13549862 -0.00699796 14.50598445 -0.00515051 16.87646484 -0.00097656 C20.51078467 0.00437303 24.14498091 -0.00092491 27.77929688 -0.00732422 C30.0800784 -0.00666342 32.38085985 -0.00538222 34.68164062 -0.00341797 C35.77230835 -0.0054422 36.86297607 -0.00746643 37.98669434 -0.009552 C39.50341736 -0.00482376 39.50341736 -0.00482376 41.05078125 0 C41.94108032 0.00079559 42.83137939 0.00159119 43.74865723 0.00241089 C46.02539062 0.12939453 46.02539062 0.12939453 49.02539062 1.12939453 C50.76102876 11.4772052 51.54402636 21.72115016 52.03076172 32.18896484 C52.15056176 34.75806446 52.28055332 37.32649765 52.41210938 39.89501953 C52.49473572 41.56946944 52.57678657 43.24394786 52.65820312 44.91845703 C52.69567657 45.66568024 52.73315002 46.41290344 52.77175903 47.18276978 C53.06135875 53.51792646 53.02539062 59.76517119 53.02539062 66.12939453 C31.90539062 66.12939453 10.78539062 66.12939453 -10.97460938 66.12939453 C-10.97460938 50.61374925 -10.73244591 35.53015366 -9.47460938 20.12939453 C-9.32923349 18.26357473 -9.18470068 16.39768905 -9.04101562 14.53173828 C-8.69516815 10.06347799 -8.33824984 5.59624047 -7.97460938 1.12939453 C-5.01482242 0.14279888 -3.0862567 0.00275796 0 0 Z " fill="#06C7F7" transform="translate(234.974609375,177.87060546875)"/>
<path d="M0 0 C6.7803867 3.03813481 10.94931206 8.12937125 14.15625 14.72265625 C17.81571564 24.80925062 16.89420571 36.95964689 13.04296875 46.82421875 C9.97656428 52.9570277 5.41500862 58.10581292 -1.21875 60.34765625 C-7.1238369 61.47570441 -11.2285255 60.75009917 -16.28125 57.47265625 C-20.01433011 54.75649603 -20.01433011 54.75649603 -21.21875 52.34765625 C-21.2280957 53.20520508 -21.23744141 54.06275391 -21.24707031 54.94628906 C-21.29116291 58.13738304 -21.35281056 61.32752381 -21.42626953 64.51806641 C-21.45444099 65.89717276 -21.47567472 67.27643943 -21.48974609 68.65576172 C-21.51122545 70.64188574 -21.55998132 72.62765534 -21.609375 74.61328125 C-21.6407959 76.40427246 -21.6407959 76.40427246 -21.67285156 78.23144531 C-22.31819567 81.91533271 -23.26947488 83.11607417 -26.21875 85.34765625 C-28.875 85.84375 -28.875 85.84375 -31.71875 85.78515625 C-33.12640625 85.78322266 -33.12640625 85.78322266 -34.5625 85.78125 C-37.77372051 85.25706548 -38.96203483 84.69883788 -41.21875 82.34765625 C-41.62193364 79.69668262 -41.76603012 77.45568813 -41.73632812 74.80273438 C-41.7433374 74.0365831 -41.75034668 73.27043182 -41.75756836 72.48106384 C-41.77518445 69.94664342 -41.76351354 67.41333817 -41.75 64.87890625 C-41.75269389 63.11917913 -41.75657546 61.35945346 -41.76159668 59.59973145 C-41.7674966 55.91090733 -41.75891308 52.22247052 -41.74023438 48.53369141 C-41.71744431 43.80200626 -41.73056478 39.07122856 -41.75452423 34.33957672 C-41.76896901 30.7055984 -41.76438234 27.07183572 -41.75401306 23.43785095 C-41.75134211 21.69310906 -41.75462847 19.94834768 -41.76393127 18.20362854 C-41.77407549 15.76608323 -41.75862745 13.33001334 -41.73632812 10.89257812 C-41.74442505 10.16936874 -41.75252197 9.44615936 -41.76086426 8.70103455 C-41.70557956 5.44400096 -41.64610901 3.78596683 -39.32287598 1.40319824 C-35.6725598 -0.42799535 -32.19524263 -0.31154841 -28.21875 0.34765625 C-25.34845131 2.14159293 -23.72743362 3.33028901 -22.21875 6.34765625 C-21.31125 5.56390625 -20.40375 4.78015625 -19.46875 3.97265625 C-13.63822578 -1.06279648 -7.46734742 -2.19550531 0 0 Z " fill="#7B6E7A" transform="translate(262.21875,346.65234375)"/>
<path d="M0 0 C5.625 2.25 5.625 2.25 7 5 C7.15644172 7.55106029 7.25821389 10.07918663 7.31640625 12.6328125 C7.33718735 13.38464813 7.35796844 14.13648376 7.37937927 14.91110229 C7.44482705 17.31564085 7.50373738 19.72028967 7.5625 22.125 C7.60568977 23.75391771 7.64930421 25.38282422 7.69335938 27.01171875 C7.80050351 31.00769915 7.90178433 35.00379059 8 39 C8.78761719 38.36578125 9.57523438 37.7315625 10.38671875 37.078125 C14.65206326 33.68625164 17.30347841 32.58314248 22.9140625 32.75 C29.02557278 33.48246565 33.1251934 36.41141324 37 41 C41.85240133 47.8810889 43.15584604 52.70787772 43.23828125 61.16015625 C43.246353 61.94643906 43.25442474 62.73272186 43.26274109 63.54283142 C43.27653966 65.20113952 43.28728062 66.85947551 43.29516602 68.51782227 C43.30673478 70.21614887 43.32726311 71.91443776 43.35668945 73.61254883 C43.39920209 76.06616926 43.41550673 78.51871413 43.42578125 80.97265625 C43.44328934 81.73208023 43.46079742 82.49150421 43.47883606 83.27394104 C43.45712498 88.52522062 43.45712498 88.52522062 41.10986328 90.96313477 C37.50532791 92.73453742 33.99376964 93.14238038 30 93 C27.50941337 91.85848113 25.9103944 90.9103944 24 89 C23.90180481 86.61210615 23.86287508 84.24786849 23.859375 81.859375 C23.84103964 80.3814951 23.82146865 78.9036301 23.80078125 77.42578125 C23.77185661 75.09072922 23.75000139 72.75662927 23.74951172 70.42138672 C23.74616744 68.17068591 23.7115566 65.92219142 23.671875 63.671875 C23.6789447 62.97898376 23.6860144 62.28609253 23.69329834 61.57220459 C23.59795729 57.75587187 23.07099428 56.09027742 20.68457031 53.05566406 C18.07144541 50.71470353 18.07144541 50.71470353 14.375 50.4375 C11.03842625 50.6753188 11.03842625 50.6753188 9.30786133 52.57055664 C7.54187029 55.85100779 7.63342362 58.80574788 7.69921875 62.43359375 C7.6915776 63.90169722 7.68308786 65.36979647 7.67382812 66.83789062 C7.67603868 69.14006396 7.68754658 71.44139322 7.71508789 73.7434082 C7.7358529 75.97433361 7.71975833 78.20271883 7.69921875 80.43359375 C7.71772385 81.11707382 7.73622894 81.80055389 7.7552948 82.50474548 C7.71299263 85.27537575 7.50594521 87.39598103 5.69352722 89.5597229 C2.91414496 91.94679994 0.67273203 93.68407714 -3.0625 93.5 C-6.95295788 93.0059736 -8.95143542 92.40189937 -12 90 C-13.56061203 86.87877595 -13.17395589 83.55329942 -13.19287109 80.12548828 C-13.20104858 79.31232147 -13.20922607 78.49915466 -13.21765137 77.66134644 C-13.24251015 74.96434267 -13.25902114 72.26739148 -13.2734375 69.5703125 C-13.27876118 68.65040401 -13.28408485 67.73049553 -13.28956985 66.78271103 C-13.31630149 61.91520775 -13.33567774 57.04773014 -13.35009766 52.18017578 C-13.36676036 47.14702421 -13.41155143 42.11452555 -13.4624691 37.08162117 C-13.49608344 33.21604641 -13.50766858 29.35062787 -13.51332474 25.4849205 C-13.52005161 23.62931188 -13.53531082 21.77371405 -13.55921555 19.91824722 C-13.59075107 17.32271926 -13.59092207 14.72896913 -13.58349609 12.13330078 C-13.59990143 11.36536194 -13.61630676 10.5974231 -13.63320923 9.80621338 C-13.58881205 6.02003714 -13.31671242 4.34307031 -10.70962524 1.51901245 C-7.10838124 -0.49984034 -3.98831339 -0.66212234 0 0 Z " fill="#7D707C" transform="translate(77,313)"/>
<path d="M0 0 C3 1 3 1 4.578125 3.640625 C13.73801405 23.41571258 19.57286758 44.05519729 23.25 65.5 C23.5133313 67.02330933 23.5133313 67.02330933 23.78198242 68.57739258 C23.94158447 69.55216553 24.10118652 70.52693848 24.265625 71.53125 C24.47880371 72.82385742 24.47880371 72.82385742 24.69628906 74.14257812 C25.0789569 77.74285494 25 81.37944372 25 85 C8.83 85.33 -7.34 85.66 -24 86 C-22.87207719 72.46492622 -22.87207719 72.46492622 -21.8359375 67.328125 C-21.60463135 66.18110107 -21.3733252 65.03407715 -21.13500977 63.85229492 C-20.88420654 62.6635376 -20.63340332 61.47478027 -20.375 60.25 C-20.11066162 58.99227783 -19.84632324 57.73455566 -19.57397461 56.4387207 C-15.39602711 37.0795547 -10.6177158 16.98194906 0 0 Z " fill="#06C8F7" transform="translate(255,68)"/>
<path d="M0 0 C27.06 0 54.12 0 82 0 C83 13 83 13 83 29 C56.6 29 30.2 29 3 29 C1 16 1 16 0 0 Z " fill="#34D7FB" transform="translate(117,268)"/>
<path d="M0 0 C2.625 1.625 2.625 1.625 3.625 3.625 C3.70900529 5.21947464 3.73227467 6.81740545 3.72265625 8.4140625 C3.71943359 9.35507812 3.71621094 10.29609375 3.71289062 11.265625 C3.70451172 12.25046875 3.69613281 13.2353125 3.6875 14.25 C3.68298828 15.24257813 3.67847656 16.23515625 3.67382812 17.2578125 C3.66202145 19.7136016 3.645554 22.16927104 3.625 24.625 C4.75679687 24.59019531 5.88859375 24.55539062 7.0546875 24.51953125 C8.53644353 24.49139664 10.01821556 24.46409613 11.5 24.4375 C12.61955078 24.39979492 12.61955078 24.39979492 13.76171875 24.36132812 C15.9296875 24.33203125 15.9296875 24.33203125 19.625 24.625 C22.08311625 28.31217438 21.93618164 30.26845704 21.625 34.625 C20.965 35.615 20.305 36.605 19.625 37.625 C16.67435852 37.8458564 13.94131769 37.90560989 11 37.8125 C9.79730469 37.79219727 9.79730469 37.79219727 8.5703125 37.77148438 C6.58825622 37.73609051 4.60654449 37.68228234 2.625 37.625 C2.73444715 42.08385926 2.86517666 46.54184156 3 51 C3.0309375 52.27101563 3.061875 53.54203125 3.09375 54.8515625 C3.13242188 56.06328125 3.17109375 57.275 3.2109375 58.5234375 C3.25806885 60.20445557 3.25806885 60.20445557 3.30615234 61.91943359 C3.35911203 64.77210412 3.35911203 64.77210412 5.625 66.625 C8.64660733 66.93332728 11.6440687 67.00389375 14.6796875 67.0859375 C18.26267601 67.74170993 19.45220752 68.74514679 21.625 71.625 C22.09418683 75.37849462 22.15636381 77.66348453 20.3125 81 C16.18097519 84.97850538 9.81684879 84.00663515 4.4375 83.90625 C-2.05723986 83.42712985 -6.24336027 81.33957978 -11.25 77.3125 C-17.24904582 69.72547147 -16.8641601 62.20522283 -16.87890625 52.86328125 C-16.88855833 51.42554939 -16.89865162 49.98782043 -16.90916443 48.5500946 C-16.92705672 45.54854493 -16.93269195 42.54725348 -16.9309082 39.5456543 C-16.93060214 35.70165079 -16.97171035 31.85929494 -17.02322483 28.01568317 C-17.05657623 25.05163462 -17.06266647 22.08798675 -17.06107903 19.12376976 C-17.06461493 17.70635434 -17.07786174 16.2889281 -17.10107613 14.87169838 C-17.26459794 3.86754832 -17.26459794 3.86754832 -15.11569214 0.86605835 C-10.27015338 -2.5747683 -5.2541897 -2.14059581 0 0 Z " fill="#7C707C" transform="translate(191.375,322.375)"/>
<path d="M0 0 C2.7265625 1.328125 2.7265625 1.328125 5 4 C5.62552174 7.76466431 5.46934139 11.44719942 5.3125 15.25 C5.28994141 16.28125 5.26738281 17.3125 5.24414062 18.375 C5.18527163 20.91814065 5.10310065 23.45833113 5 26 C6.20398438 25.96519531 7.40796875 25.93039062 8.6484375 25.89453125 C10.22394442 25.8663972 11.79946638 25.83909663 13.375 25.8125 C14.1690625 25.78736328 14.963125 25.76222656 15.78125 25.73632812 C17.85586148 25.70995595 19.93100865 25.84513538 22 26 C24.45811625 29.68717438 24.31118164 31.64345704 24 36 C23.34 36.99 22.68 37.98 22 39 C19.04935852 39.2208564 16.31631769 39.28060989 13.375 39.1875 C12.17230469 39.16719727 12.17230469 39.16719727 10.9453125 39.14648438 C8.96325622 39.11109051 6.98154449 39.05728234 5 39 C5.10944715 43.45885926 5.24017666 47.91684156 5.375 52.375 C5.4059375 53.64601563 5.436875 54.91703125 5.46875 56.2265625 C5.50742188 57.43828125 5.54609375 58.65 5.5859375 59.8984375 C5.63306885 61.57945557 5.63306885 61.57945557 5.68115234 63.29443359 C5.73411203 66.14710412 5.73411203 66.14710412 8 68 C11.02160733 68.30832728 14.0190687 68.37889375 17.0546875 68.4609375 C20.65847584 69.1205168 21.8699933 70.0487859 24 73 C24.34765625 75.25390625 24.34765625 75.25390625 24.0625 77.5625 C23.95615234 78.70912109 23.95615234 78.70912109 23.84765625 79.87890625 C22.59442411 83.01487423 21.0662161 83.67227449 18 85 C9.5764386 86.05770963 1.23990286 85.8161093 -6 81 C-10.14824577 77.66336753 -12.64464786 74.13665852 -14 69 C-14.47568723 64.08453318 -14.49611731 59.17271156 -14.50390625 54.23828125 C-14.51355833 52.80054939 -14.52365162 51.36282043 -14.53416443 49.9250946 C-14.55205672 46.92354493 -14.55769195 43.92225348 -14.5559082 40.9206543 C-14.55560214 37.07665079 -14.59671035 33.23429494 -14.64822483 29.39068317 C-14.68157623 26.42663462 -14.68766647 23.46298675 -14.68607903 20.49876976 C-14.68961493 19.08135434 -14.70286174 17.6639281 -14.72607613 16.24669838 C-14.89028335 5.19642386 -14.89028335 5.19642386 -12.69358826 2.24435425 C-8.46211955 -0.68492254 -4.88916063 -0.62084579 0 0 Z " fill="#7C6F7B" transform="translate(144,321)"/>
<path d="M0 0 C5.47193878 2.88520408 5.47193878 2.88520408 7.125 6.375 C6.93483228 10.36852207 4.7945648 13.2054352 2 16 C-1.52396659 15.65451308 -4.65737114 15.12134772 -8 13.9375 C-11.50253177 12.84295882 -14.35037586 12.71925968 -18 13 C-18.66 13.66 -19.32 14.32 -20 15 C-20 15.99 -20 16.98 -20 18 C-18.77023437 18.38671875 -17.54046875 18.7734375 -16.2734375 19.171875 C-14.6404678 19.69742847 -13.00766397 20.22349751 -11.375 20.75 C-10.56675781 21.00265625 -9.75851562 21.2553125 -8.92578125 21.515625 C-2.84904677 23.49179881 2.0054905 25.79554213 6.375 30.625 C9.18402615 36.45913124 8.67906161 41.69873566 6.875 47.8125 C3.41330015 53.69738975 -1.57671875 56.93902809 -8 59 C-18.80975312 60.22312191 -28.30332456 59.32947334 -37.125 52.625 C-39 50 -39 50 -39.5625 47 C-38.88398909 43.38127515 -37.49661422 41.6526526 -35 39 C-31.2100243 39.37899757 -28.41055102 40.22492897 -25.125 42.0625 C-20.84714056 44.32869809 -17.80080337 44.40684774 -13 44 C-11.515 43.505 -11.515 43.505 -10 43 C-9.67 41.35 -9.34 39.7 -9 38 C-9.65484375 37.84144531 -10.3096875 37.68289063 -10.984375 37.51953125 C-30.80741228 32.45177737 -30.80741228 32.45177737 -36 25 C-38.21197891 20.57604218 -37.40521352 14.81558098 -37 10 C-34.59577608 4.39014419 -30.27694978 1.71974208 -25 -1 C-17.30316113 -3.56561296 -7.58707602 -2.70967001 0 0 Z " fill="#7C6F7B" transform="translate(323,348)"/>
<path d="M0 0 C21.12 0 42.24 0 64 0 C64 9.67241209 63.53652889 19.34248001 63 29 C42.54 29 22.08 29 1 29 C-0.59013475 19.45919149 0 9.67241209 0 0 Z " fill="#06C7F7" transform="translate(224,268)"/>
<path d="M0 0 C3.36698577 0.18365377 6.03575743 0.45761356 9 2.125 C10.64539122 5.21010853 9.69389141 7.63966128 9 11 C7.89618604 13.82861806 6.53293493 16.49533958 5.1328125 19.1875 C4.74230713 19.95865646 4.35180176 20.72981293 3.94946289 21.52433777 C3.11522152 23.16927238 2.27649464 24.81193863 1.43365479 26.45248413 C-0.33223156 29.89007787 -2.07616025 33.33863782 -3.82107544 36.78691101 C-4.68806045 38.49995058 -5.5561174 40.21244806 -6.42526245 41.9243927 C-9.66237122 48.30559257 -12.8120847 54.72055724 -15.875 61.1875 C-16.49048706 62.48337036 -16.49048706 62.48337036 -17.1184082 63.80541992 C-17.95302842 65.56484976 -18.786759 67.32470187 -19.61962891 69.08496094 C-22.12862366 74.38340404 -24.64838245 79.6766068 -27.17950439 84.96450806 C-28.04402747 86.77383946 -28.90366005 88.58550502 -29.76318359 90.3972168 C-30.28605957 91.48945557 -30.80893555 92.58169434 -31.34765625 93.70703125 C-31.81179932 94.6813208 -32.27594238 95.65561035 -32.75415039 96.65942383 C-34 99 -34 99 -36 101 C-39.9170163 101.43522403 -42.15241649 101.55092928 -45.5 99.375 C-47 97 -47 97 -46.87915039 94.45825195 C-45.6776767 89.73209954 -43.61221344 85.6407635 -41.43359375 81.29296875 C-40.96743149 80.34675156 -40.50126923 79.40053436 -40.02098083 78.42564392 C-38.50030747 75.3426687 -36.96895959 72.2651293 -35.4375 69.1875 C-34.38799866 67.06470346 -33.33933815 64.94149102 -32.29150391 62.81787109 C-30.70947736 59.61185784 -29.1269118 56.40612556 -27.54138184 53.20184326 C-24.36090649 46.77251793 -21.20660811 40.33154205 -18.08984375 33.87109375 C-17.54006111 32.73183693 -17.54006111 32.73183693 -16.97917175 31.56956482 C-15.61841852 28.74753926 -14.25892905 25.9249195 -12.90328979 23.10043335 C-3.48501832 3.48501832 -3.48501832 3.48501832 0 0 Z " fill="#7C6F7B" transform="translate(411,310)"/>
<path d="M0 0 C3.28926044 0.24364892 6.06181028 0.50158671 9 2.0625 C10.66714919 5.29260156 9.77117016 8.58462612 9 12 C7.85673738 15.02660129 6.41107648 17.85726948 4.9140625 20.72265625 C4.50122513 21.53706177 4.08838776 22.35146729 3.66304016 23.19055176 C2.32762723 25.82008988 0.976211 28.4410509 -0.375 31.0625 C-1.76158416 33.78631661 -3.14371932 36.51236117 -4.52571106 39.23851013 C-5.43512612 41.03166168 -6.34591424 42.82411755 -7.25810242 44.61585999 C-10.61963591 51.22214268 -13.88972309 57.86313862 -17.0625 64.5625 C-17.47483887 65.42979736 -17.88717773 66.29709473 -18.31201172 67.19067383 C-20.03836125 70.83048024 -21.75391352 74.47525074 -23.46435547 78.12255859 C-24.47953174 80.28591637 -25.49716317 82.44812386 -26.51733398 84.60913086 C-27.47961125 86.64761218 -28.43648295 88.68865732 -29.38696289 90.73266602 C-29.81614014 91.64072998 -30.24531738 92.54879395 -30.6875 93.484375 C-31.06261719 94.28584961 -31.43773437 95.08732422 -31.82421875 95.91308594 C-33.02922715 98.05187576 -34.07331922 99.48088631 -36 101 C-41.90954774 101.63316583 -41.90954774 101.63316583 -44.9375 99.875 C-46.54398598 97.04002473 -46.3128334 95.26197831 -46 92 C-44.82690874 88.78744271 -43.29576233 85.77796412 -41.75 82.73046875 C-41.30475479 81.82891556 -40.85950958 80.92736237 -40.40077209 79.99848938 C-38.9446995 77.0559651 -37.4724456 74.12186034 -36 71.1875 C-34.99152145 69.15686322 -33.98428698 67.12560815 -32.97827148 65.09375 C-30.95181236 61.00228017 -28.92044387 56.91330283 -26.88623047 52.82568359 C-24.29816796 47.61459488 -21.74801969 42.38625576 -19.22265625 37.14453125 C-18.86231293 36.39689011 -18.5019696 35.64924896 -18.13070679 34.87895203 C-16.78890212 32.09245281 -15.4485506 29.30526737 -14.11157227 26.51644897 C-2.67105233 2.67105233 -2.67105233 2.67105233 0 0 Z " fill="#7C6F7B" transform="translate(441,310)"/>
<path d="M0 0 C78.87 0 157.74 0 239 0 C239 0.33 239 0.66 239 1 C171.02 1 103.04 1 33 1 C33 1.66 33 2.32 33 3 C33.56203125 3.25652344 34.1240625 3.51304687 34.703125 3.77734375 C37.28045778 5.1492913 39.4348252 6.78297899 41.75 8.5625 C59.68597681 21.70441918 79.48629546 28.83671091 101 34 C101 34.33 101 34.66 101 35 C68.53411811 34.47481662 36.35990642 23.09809626 8.375 7.125 C7.53799561 6.64828857 6.70099121 6.17157715 5.83862305 5.68041992 C5.07461182 5.23158447 4.31060059 4.78274902 3.5234375 4.3203125 C2.84200684 3.92086426 2.16057617 3.52141602 1.45849609 3.10986328 C0.97719238 2.7436084 0.49588867 2.37735352 0 2 C0 1.34 0 0.68 0 0 Z " fill="#38D2F8" transform="translate(137,441)"/>
<path d="M0 0 C0.02736707 1.39572052 0.04655989 2.79160221 0.0625 4.1875 C0.07410156 4.96480469 0.08570312 5.74210938 0.09765625 6.54296875 C0 9 0 9 -0.46875 11.3125 C-1.15717938 14.79514275 -1.35586504 18.27653167 -1.5625 21.8125 C-1.706875 24.184375 -1.85125 26.55625 -2 29 C-11.57 29 -21.14 29 -31 29 C-27.95799301 16.83197205 -14.85372865 8.0987068 -5.12890625 1.21484375 C-3 0 -3 0 0 0 Z " fill="#6CDFFB" transform="translate(95,215)"/>
<path d="M0 0 C9.57 0 19.14 0 29 0 C29.33 3.856875 29.66 7.71375 30 11.6875 C30.10441406 12.89494873 30.20882812 14.10239746 30.31640625 15.34643555 C30.39761719 16.308479 30.47882813 17.27052246 30.5625 18.26171875 C30.68818359 19.73064575 30.68818359 19.73064575 30.81640625 21.22924805 C30.98872357 23.82981886 31.0332673 26.3947545 31 29 C25.78842782 27.60813854 22.31018759 25.32099045 18.1875 22 C17.57874023 21.51595703 16.96998047 21.03191406 16.34277344 20.53320312 C10.06345108 15.42606521 4.50538549 9.75807824 0 3 C0 2.01 0 1.02 0 0 Z " fill="#6CDFFB" transform="translate(64,268)"/>
<path d="M0 0 C4.23048902 0.74219106 6.92248639 2.27656476 9.5625 5.625 C10.13297116 8.61844007 10.32381326 10.66972863 10.1875 13.625 C10.19394531 14.32367188 10.20039063 15.02234375 10.20703125 15.7421875 C10.10578946 20.62020111 9.01341854 23.21285582 5.5625 26.625 C2.70925563 28.05162219 0.72795451 27.93533868 -2.4375 27.625 C-5.13740662 25.82506226 -6.9793865 24.541227 -8.4375 21.625 C-8.6412399 19.00257644 -8.76106725 16.43790797 -8.8125 13.8125 C-8.84988281 13.10029297 -8.88726562 12.38808594 -8.92578125 11.65429688 C-8.9924816 7.64857018 -8.61117843 5.8486367 -6.12890625 2.65234375 C-3.4375 0.625 -3.4375 0.625 0 0 Z " fill="#F1EFF4" transform="translate(248.4375,362.375)"/>
<path d="M0 0 C3.55247432 0.87379409 4.94828114 2.4927342 6.9375 5.4765625 C7.63597125 8.3162489 7.63597125 10.6368761 6.9375 13.4765625 C4.94828114 16.4603908 3.55247432 18.07933091 0 18.953125 C-3.92313492 19.23547183 -5.73362371 18.69581336 -9.0625 16.4765625 C-11.28175086 13.14768621 -11.82140933 11.33719742 -11.5390625 7.4140625 C-10.07519871 1.46261629 -5.59135555 -0.40240816 0 0 Z " fill="#7C6F7B" transform="translate(350.0625,387.5234375)"/>
<path d="M0 0 C3.55247432 0.87379409 4.94828114 2.4927342 6.9375 5.4765625 C7.63597125 8.3162489 7.63597125 10.6368761 6.9375 13.4765625 C4.94828114 16.4603908 3.55247432 18.07933091 0 18.953125 C-3.92313492 19.23547183 -5.73362371 18.69581336 -9.0625 16.4765625 C-11.28175086 13.14768621 -11.82140933 11.33719742 -11.5390625 7.4140625 C-10.07519871 1.46261629 -5.59135555 -0.40240816 0 0 Z " fill="#7C6F7B" transform="translate(350.0625,353.5234375)"/>
<path d="M0 0 C3 1 3 1 4.578125 3.84375 C5.14224812 5.05935301 5.69914283 6.27832822 6.25 7.5 C8.83564147 12.97893091 11.70379663 17.6601341 15.6171875 22.328125 C17 24 17 24 18 26 C13.05 26 8.1 26 3 26 C0.42774979 16.99712428 -0.15345145 9.27528782 0 0 Z " fill="#8CE4FC" transform="translate(36,271)"/>
<path d="M0 0 C0.66 0 1.32 0 2 0 C1.835 1.19625 1.67 2.3925 1.5 3.625 C0.49350351 12.726604 0.55293466 21.9558416 2 31 C1.01 31 0.02 31 -1 31 C-1.02465622 26.74585377 -1.04283899 22.49174502 -1.05493164 18.23754883 C-1.05997101 16.78929927 -1.06680253 15.34105483 -1.07543945 13.89282227 C-1.08752247 11.81525412 -1.09323211 9.73775303 -1.09765625 7.66015625 C-1.10289307 6.40855713 -1.10812988 5.15695801 -1.11352539 3.86743164 C-1 1 -1 1 0 0 Z " fill="#72E0FB" transform="translate(36,240)"/>
<path d="M0 0 C0.66 0 1.32 0 2 0 C1.88637738 1.4800841 1.75877092 2.95910074 1.625 4.4375 C1.52058594 5.67306641 1.52058594 5.67306641 1.4140625 6.93359375 C1.27742188 7.61550781 1.14078125 8.29742187 1 9 C0.01 9.495 0.01 9.495 -1 10 C-1.02689216 8.52093108 -1.04634621 7.04172517 -1.0625 5.5625 C-1.07410156 4.73878906 -1.08570313 3.91507813 -1.09765625 3.06640625 C-1 1 -1 1 0 0 Z " fill="#80E2FC" transform="translate(36,240)"/>
</svg>
